<svg version="1.1" viewBox="0.0 0.0 960.0 540.0" fill="none" stroke="none" stroke-linecap="square" stroke-miterlimit="10" xmlns:xlink="http://www.w3.org/1999/xlink" xmlns="http://www.w3.org/2000/svg"><clipPath id="g3e2bc892ae2_0_8.0"><path d="m0 0l960.0 0l0 540.0l-960.0 0l0 -540.0z" clip-rule="nonzero"/></clipPath><g clip-path="url(#g3e2bc892ae2_0_8.0)"><path fill="#ffffff" d="m0 0l960.0 0l0 540.0l-960.0 0z" fill-rule="evenodd"/><path fill="#eeeeee" d="m120.58204 246.50372c0 -2.8672943 2.3244019 -5.1917114 5.191704 -5.1917114l60.104782 0c1.3769226 0 2.6974487 0.5469818 3.6710815 1.5206146c0.9736328 0.9736328 1.5206146 2.2941742 1.5206146 3.6710968l0 20.766205c0 2.867279 -2.3244019 5.191681 -5.191696 5.191681l-60.104782 0c-2.867302 0 -5.191704 -2.3244019 -5.191704 -5.191681z" fill-rule="evenodd"/><path stroke="#595959" stroke-width="0.7375328083989501" stroke-linejoin="round" stroke-linecap="butt" d="m120.58204 246.50372c0 -2.8672943 2.3244019 -5.1917114 5.191704 -5.1917114l60.104782 0c1.3769226 0 2.6974487 0.5469818 3.6710815 1.5206146c0.9736328 0.9736328 1.5206146 2.2941742 1.5206146 3.6710968l0 20.766205c0 2.867279 -2.3244019 5.191681 -5.191696 5.191681l-60.104782 0c-2.867302 0 -5.191704 -2.3244019 -5.191704 -5.191681z" fill-rule="evenodd"/><path fill="#000000" d="m143.43733 261.6247l0 -9.85936l1.296875 0l0 8.687485l4.859375 0l0 1.171875l-6.15625 0zm7.6644745 0l0 -9.85936l1.296875 0l0 8.687485l4.859375 0l0 1.171875l-6.15625 0zm7.6644745 0l0 -9.85936l1.96875 0l2.34375 6.9843597q0.3125 0.96875 0.46875 1.453125q0.171875 -0.53125 0.515625 -1.578125l2.375 -6.8593597l1.75 0l0 9.85936l-1.265625 0l0 -8.249985l-2.859375 8.249985l-1.171875 0l-2.859375 -8.39061l0 8.39061l-1.265625 0z" fill-rule="nonzero"/><path fill="#000000" d="m17.75853 241.31201l70.48819 0l0 31.149597l-70.48819 0z" fill-rule="evenodd"/><path stroke="#000000" stroke-width="0.7375328083989501" stroke-linejoin="round" stroke-linecap="butt" d="m17.75853 241.31201l70.48819 0l0 31.149597l-70.48819 0z" fill-rule="evenodd"/><path fill="#ffffff" d="m28.400238 261.6247l0 -9.85936l3.40625 0q1.140625 0 1.75 0.140625q0.84375 0.1875 1.453125 0.703125q0.765625 0.65625 1.15625 1.6875q0.390625 1.015625 0.390625 2.3437347q0 1.125 -0.265625 2.0q-0.265625 0.859375 -0.671875 1.4375q-0.40625 0.5625 -0.90625 0.890625q-0.484375 0.3125 -1.171875 0.484375q-0.6875 0.171875 -1.578125 0.171875l-3.5625 0zm1.3125 -1.171875l2.09375 0q0.984375 0 1.53125 -0.171875q0.5625 -0.1875 0.890625 -0.515625q0.46875 -0.46875 0.71875 -1.25q0.265625 -0.78125 0.265625 -1.890625q0 -1.5468597 -0.515625 -2.3749847q-0.5 -0.84375 -1.234375 -1.125q-0.515625 -0.203125 -1.6875 -0.203125l-2.0625 0l0 7.5312347zm13.374252 -1.125l1.25 0.15625q-0.296875 1.09375 -1.09375 1.703125q-0.796875 0.59375 -2.046875 0.59375q-1.5625 0 -2.484375 -0.953125q-0.921875 -0.96875 -0.921875 -2.71875q0 -1.796875 0.921875 -2.7968597q0.9375 -1.0 2.421875 -1.0q1.4375 0 2.34375 0.984375q0.90625 0.96873474 0.90625 2.7343597q0 0.109375 -0.015625 0.328125l-5.328125 0q0.078125 1.171875 0.671875 1.8125q0.59375 0.625 1.5 0.625q0.65625 0 1.125 -0.34375q0.484375 -0.359375 0.75 -1.125zm-3.96875 -1.96875l3.984375 0q-0.078125 -0.890625 -0.453125 -1.34375q-0.578125 -0.70310974 -1.5 -0.70310974q-0.84375 0 -1.40625 0.5625q-0.5625 0.56248474 -0.625 1.4843597zm7.0394745 4.265625l0 -6.2031097l-1.078125 0l0 -0.9375l1.078125 0l0 -0.765625q0 -0.71875 0.125 -1.078125q0.171875 -0.46875 0.609375 -0.75q0.4375 -0.296875 1.234375 -0.296875q0.515625 0 1.140625 0.125l-0.1875 1.046875q-0.375 -0.0625 -0.71875 -0.0625q-0.546875 0 -0.78125 0.234375q-0.21875 0.234375 -0.21875 0.875l0 0.671875l1.390625 0l0 0.9375l-1.390625 0l0 6.2031097l-1.203125 0zm8.422623 -2.296875l1.25 0.15625q-0.296875 1.09375 -1.09375 1.703125q-0.796875 0.59375 -2.046875 0.59375q-1.5625 0 -2.484375 -0.953125q-0.921875 -0.96875 -0.921875 -2.71875q0 -1.796875 0.921875 -2.7968597q0.9375 -1.0 2.421875 -1.0q1.4375 0 2.34375 0.984375q0.90625 0.96873474 0.90625 2.7343597q0 0.109375 -0.015625 0.328125l-5.328125 0q0.078125 1.171875 0.671875 1.8125q0.59375 0.625 1.5 0.625q0.65625 0 1.125 -0.34375q0.484375 -0.359375 0.75 -1.125zm-3.96875 -1.96875l3.984375 0q-0.078125 -0.890625 -0.453125 -1.34375q-0.578125 -0.70310974 -1.5 -0.70310974q-0.84375 0 -1.40625 0.5625q-0.5625 0.56248474 -0.625 1.4843597zm6.7425995 4.265625l0 -7.1406097l1.09375 0l0 1.015625q0.78125 -1.1875 2.265625 -1.1875q0.65625 0 1.1875 0.234375q0.546875 0.234375 0.8125 0.609375q0.28125 0.375 0.375 0.89060974q0.078125 0.34375 0.078125 1.1875l0 4.390625l-1.21875 0l0 -4.34375q0 -0.75 -0.140625 -1.109375q-0.140625 -0.37498474 -0.5 -0.59373474q-0.359375 -0.21875 -0.84375 -0.21875q-0.765625 0 -1.328125 0.5q-0.5625 0.48435974 -0.5625 1.8593597l0 3.90625l-1.21875 0zm12.3363495 -2.625l1.1875 0.15625q-0.203125 1.234375 -1.015625 1.9375q-0.796875 0.6875 -1.96875 0.6875q-1.453125 0 -2.359375 -0.953125q-0.890625 -0.953125 -0.890625 -2.75q0 -1.15625 0.390625 -2.015625q0.390625 -0.87498474 1.171875 -1.3124847q0.78125 -0.4375 1.703125 -0.4375q1.15625 0 1.890625 0.59375q0.75 0.59375 0.953125 1.6718597l-1.171875 0.1875q-0.171875 -0.71875 -0.59375 -1.0781097q-0.421875 -0.375 -1.03125 -0.375q-0.921875 0 -1.5 0.65625q-0.5625 0.65623474 -0.5625 2.0781097q0 1.4375 0.546875 2.09375q0.5625 0.65625 1.453125 0.65625q0.703125 0 1.171875 -0.4375q0.484375 -0.4375 0.625 -1.359375zm7.109375 0.328125l1.25 0.15625q-0.296875 1.09375 -1.09375 1.703125q-0.796875 0.59375 -2.046875 0.59375q-1.5625 0 -2.484375 -0.953125q-0.921875 -0.96875 -0.921875 -2.71875q0 -1.796875 0.921875 -2.7968597q0.9375 -1.0 2.421875 -1.0q1.4375 0 2.34375 0.984375q0.90625 0.96873474 0.90625 2.7343597q0 0.109375 -0.015625 0.328125l-5.328125 0q0.078125 1.171875 0.671875 1.8125q0.59375 0.625 1.5 0.625q0.65625 0 1.125 -0.34375q0.484375 -0.359375 0.75 -1.125zm-3.96875 -1.96875l3.984375 0q-0.078125 -0.890625 -0.453125 -1.34375q-0.578125 -0.70310974 -1.5 -0.70310974q-0.84375 0 -1.40625 0.5625q-0.5625 0.56248474 -0.625 1.4843597z" fill-rule="nonzero"/><path fill="#000000" fill-opacity="0.0" d="m88.24672 256.8868l32.34646 0" fill-rule="evenodd"/><path stroke="#595959" stroke-width="0.7375328083989501" stroke-linejoin="round" stroke-linecap="butt" d="m88.24672 256.8868l27.921257 0" fill-rule="evenodd"/><path fill="#595959" stroke="#595959" stroke-width="0.7375328083989501" stroke-linecap="butt" d="m116.16798 258.105l3.3470001 -1.2182007l-3.3470001 -1.2182007z" fill-rule="evenodd"/><path fill="#000000" fill-opacity="0.0" d="m191.07022 256.8868l32.346466 -48.03148" fill-rule="evenodd"/><path stroke="#595959" stroke-width="0.7375328083989501" stroke-linejoin="round" stroke-linecap="butt" d="m191.07024 256.8868l29.874603 -44.36104" fill-rule="evenodd"/><path fill="#595959" stroke="#595959" stroke-width="0.7375328083989501" stroke-linecap="butt" d="m221.95528 213.20625l0.8591461 -3.4566345l-2.8800201 2.0956879z" fill-rule="evenodd"/><path fill="#000000" fill-opacity="0.0" d="m191.07022 256.8868l32.346466 0" fill-rule="evenodd"/><path stroke="#595959" stroke-width="0.7375328083989501" stroke-linejoin="round" stroke-linecap="butt" d="m191.07024 256.8868l27.92125 0" fill-rule="evenodd"/><path fill="#595959" stroke="#595959" stroke-width="0.7375328083989501" stroke-linecap="butt" d="m218.99149 258.105l3.3470001 -1.2182007l-3.3470001 -1.2182007z" fill-rule="evenodd"/><path fill="#000000" fill-opacity="0.0" d="m191.07022 256.8868l32.346466 48.031494" fill-rule="evenodd"/><path stroke="#595959" stroke-width="0.7375328083989501" stroke-linejoin="round" stroke-linecap="butt" d="m191.07024 256.8868l29.874603 44.361023" fill-rule="evenodd"/><path fill="#595959" stroke="#595959" stroke-width="0.7375328083989501" stroke-linecap="butt" d="m219.9344 301.9283l2.8800201 2.0956726l-0.8591461 -3.456604z" fill-rule="evenodd"/><path fill="#eeeeee" d="m326.23486 198.48688c0 -2.8672943 2.3244019 -5.191696 5.1917114 -5.191696l60.104767 0c1.3769531 0 2.6974792 0.54696655 3.671112 1.5206146c0.9736328 0.9736328 1.5205994 2.294159 1.5205994 3.6710815l0 20.766205c0 2.8672943 -2.3244019 5.191696 -5.1917114 5.191696l-60.104767 0c-2.8673096 0 -5.1917114 -2.3244019 -5.1917114 -5.191696z" fill-rule="evenodd"/><path stroke="#595959" stroke-width="0.7375328083989501" stroke-linejoin="round" stroke-linecap="butt" d="m326.23486 198.48688c0 -2.8672943 2.3244019 -5.191696 5.1917114 -5.191696l60.104767 0c1.3769531 0 2.6974792 0.54696655 3.671112 1.5206146c0.9736328 0.9736328 1.5205994 2.294159 1.5205994 3.6710815l0 20.766205c0 2.8672943 -2.3244019 5.191696 -5.1917114 5.191696l-60.104767 0c-2.8673096 0 -5.1917114 -2.3244019 -5.1917114 -5.191696z" fill-rule="evenodd"/><path fill="#000000" d="m349.09018 213.60786l0 -9.859375l1.296875 0l0 8.6875l4.859375 0l0 1.171875l-6.15625 0zm7.664459 0l0 -9.859375l1.296875 0l0 8.6875l4.859375 0l0 1.171875l-6.15625 0zm7.6644897 0l0 -9.859375l1.96875 0l2.34375 6.984375q0.3125 0.96875 0.46875 1.453125q0.171875 -0.53125 0.515625 -1.578125l2.375 -6.859375l1.75 0l0 9.859375l-1.265625 0l0 -8.25l-2.859375 8.25l-1.171875 0l-2.859375 -8.390625l0 8.390625l-1.265625 0z" fill-rule="nonzero"/><path fill="#000000" d="m223.41136 193.29518l70.488205 0l0 31.149597l-70.488205 0z" fill-rule="evenodd"/><path stroke="#000000" stroke-width="0.7375328083989501" stroke-linejoin="round" stroke-linecap="butt" d="m223.41136 193.29518l70.488205 0l0 31.149597l-70.488205 0z" fill-rule="evenodd"/><path fill="#ffffff" d="m234.05307 213.60786l0 -9.859375l3.40625 0q1.140625 0 1.75 0.140625q0.84375 0.1875 1.453125 0.703125q0.765625 0.65625 1.15625 1.6875q0.390625 1.015625 0.390625 2.34375q0 1.125 -0.265625 2.0q-0.265625 0.859375 -0.671875 1.4375q-0.40625 0.5625 -0.90625 0.890625q-0.484375 0.3125 -1.171875 0.484375q-0.6875 0.171875 -1.578125 0.171875l-3.5625 0zm1.3125 -1.171875l2.09375 0q0.984375 0 1.53125 -0.171875q0.5625 -0.1875 0.890625 -0.515625q0.46875 -0.46875 0.71875 -1.25q0.265625 -0.78125 0.265625 -1.890625q0 -1.546875 -0.515625 -2.375q-0.5 -0.84375 -1.234375 -1.125q-0.515625 -0.203125 -1.6875 -0.203125l-2.0625 0l0 7.53125zm13.374252 -1.125l1.25 0.15625q-0.296875 1.09375 -1.09375 1.703125q-0.796875 0.59375 -2.046875 0.59375q-1.5625 0 -2.484375 -0.953125q-0.921875 -0.96875 -0.921875 -2.71875q0 -1.796875 0.921875 -2.796875q0.9375 -1.0 2.421875 -1.0q1.4375 0 2.34375 0.984375q0.90625 0.96875 0.90625 2.734375q0 0.109375 -0.015625 0.328125l-5.328125 0q0.078125 1.171875 0.671875 1.8125q0.59375 0.625 1.5 0.625q0.65625 0 1.125 -0.34375q0.484375 -0.359375 0.75 -1.125zm-3.96875 -1.96875l3.984375 0q-0.078125 -0.890625 -0.453125 -1.34375q-0.578125 -0.703125 -1.5 -0.703125q-0.84375 0 -1.40625 0.5625q-0.5625 0.5625 -0.625 1.484375zm7.0394745 4.265625l0 -6.203125l-1.078125 0l0 -0.9375l1.078125 0l0 -0.765625q0 -0.71875 0.125 -1.078125q0.171875 -0.46875 0.609375 -0.75q0.4375 -0.296875 1.234375 -0.296875q0.515625 0 1.140625 0.125l-0.1875 1.046875q-0.375 -0.0625 -0.71875 -0.0625q-0.546875 0 -0.78125 0.234375q-0.21875 0.234375 -0.21875 0.875l0 0.671875l1.390625 0l0 0.9375l-1.390625 0l0 6.203125l-1.203125 0zm8.422638 -2.296875l1.25 0.15625q-0.296875 1.09375 -1.09375 1.703125q-0.796875 0.59375 -2.046875 0.59375q-1.5625 0 -2.4843903 -0.953125q-0.921875 -0.96875 -0.921875 -2.71875q0 -1.796875 0.921875 -2.796875q0.93751526 -1.0 2.4218903 -1.0q1.4375 0 2.34375 0.984375q0.90625 0.96875 0.90625 2.734375q0 0.109375 -0.015625 0.328125l-5.328125 0q0.078125 1.171875 0.671875 1.8125q0.59375 0.625 1.5 0.625q0.65625 0 1.125 -0.34375q0.484375 -0.359375 0.75 -1.125zm-3.96875 -1.96875l3.984375 0q-0.078125 -0.890625 -0.453125 -1.34375q-0.578125 -0.703125 -1.5 -0.703125q-0.84375 0 -1.40625 0.5625q-0.5625 0.5625 -0.625 1.484375zm6.742584 4.265625l0 -7.140625l1.09375 0l0 1.015625q0.78125 -1.1875 2.265625 -1.1875q0.65625 0 1.1875 0.234375q0.546875 0.234375 0.8125 0.609375q0.28125 0.375 0.375 0.890625q0.078125 0.34375 0.078125 1.1875l0 4.390625l-1.21875 0l0 -4.34375q0 -0.75 -0.140625 -1.109375q-0.140625 -0.375 -0.5 -0.59375q-0.359375 -0.21875 -0.84375 -0.21875q-0.765625 0 -1.328125 0.5q-0.5625 0.484375 -0.5625 1.859375l0 3.90625l-1.21875 0zm12.336365 -2.625l1.1875 0.15625q-0.203125 1.234375 -1.015625 1.9375q-0.796875 0.6875 -1.96875 0.6875q-1.453125 0 -2.359375 -0.953125q-0.890625 -0.953125 -0.890625 -2.75q0 -1.15625 0.390625 -2.015625q0.390625 -0.875 1.171875 -1.3125q0.78125 -0.4375 1.703125 -0.4375q1.15625 0 1.890625 0.59375q0.75 0.59375 0.953125 1.671875l-1.171875 0.1875q-0.171875 -0.71875 -0.59375 -1.078125q-0.421875 -0.375 -1.03125 -0.375q-0.921875 0 -1.5 0.65625q-0.5625 0.65625 -0.5625 2.078125q0 1.4375 0.546875 2.09375q0.5625 0.65625 1.453125 0.65625q0.703125 0 1.171875 -0.4375q0.484375 -0.4375 0.625 -1.359375zm7.109375 0.328125l1.25 0.15625q-0.296875 1.09375 -1.09375 1.703125q-0.796875 0.59375 -2.046875 0.59375q-1.5625 0 -2.484375 -0.953125q-0.921875 -0.96875 -0.921875 -2.71875q0 -1.796875 0.921875 -2.796875q0.9375 -1.0 2.421875 -1.0q1.4375 0 2.34375 0.984375q0.90625 0.96875 0.90625 2.734375q0 0.109375 -0.015625 0.328125l-5.328125 0q0.078125 1.171875 0.671875 1.8125q0.59375 0.625 1.5 0.625q0.65625 0 1.125 -0.34375q0.484375 -0.359375 0.75 -1.125zm-3.96875 -1.96875l3.984375 0q-0.078125 -0.890625 -0.453125 -1.34375q-0.578125 -0.703125 -1.5 -0.703125q-0.84375 0 -1.40625 0.5625q-0.5625 0.5625 -0.625 1.484375z" fill-rule="nonzero"/><path fill="#000000" fill-opacity="0.0" d="m293.89957 208.86998l32.346436 0" fill-rule="evenodd"/><path stroke="#595959" stroke-width="0.7375328083989501" stroke-linejoin="round" stroke-linecap="butt" d="m293.89954 208.86998l27.921265 0" fill-rule="evenodd"/><path fill="#595959" stroke="#595959" stroke-width="0.7375328083989501" stroke-linecap="butt" d="m321.8208 210.08818l3.3469849 -1.2182007l-3.3469849 -1.218216z" fill-rule="evenodd"/><path fill="#000000" fill-opacity="0.0" d="m396.72305 208.86998l32.346466 -137.92126" fill-rule="evenodd"/><path stroke="#595959" stroke-width="0.7375328083989501" stroke-linejoin="round" stroke-linecap="butt" d="m396.72305 208.86998l31.33603 -133.61298" fill-rule="evenodd"/><path fill="#595959" stroke="#595959" stroke-width="0.7375328083989501" stroke-linecap="butt" d="m429.24512 75.53517l-0.42178345 -3.5367355l-1.9502563 2.980423z" fill-rule="evenodd"/><path fill="#000000" fill-opacity="0.0" d="m396.72305 208.86998l32.346466 -93.039375" fill-rule="evenodd"/><path stroke="#595959" stroke-width="0.7375328083989501" stroke-linejoin="round" stroke-linecap="butt" d="m396.72305 208.86998l30.89328 -88.85958" fill-rule="evenodd"/><path fill="#595959" stroke="#595959" stroke-width="0.7375328083989501" stroke-linecap="butt" d="m428.767 120.41044l-0.05154419 -3.5614243l-2.2497559 2.761345z" fill-rule="evenodd"/><path fill="#000000" fill-opacity="0.0" d="m396.72305 208.86998l32.314972 -48.157486" fill-rule="evenodd"/><path stroke="#595959" stroke-width="0.7375328083989501" stroke-linejoin="round" stroke-linecap="butt" d="m396.72305 208.86998l29.849213 -44.48291" fill-rule="evenodd"/><path fill="#595959" stroke="#595959" stroke-width="0.7375328083989501" stroke-linecap="butt" d="m427.58386 165.06586l0.85336304 -3.4580536l-2.8765259 2.1004791z" fill-rule="evenodd"/><path fill="#eeeeee" d="m326.22906 246.50372c0 -2.8672943 2.3244019 -5.1917114 5.191681 -5.1917114l60.104797 0c1.3769226 0 2.6974487 0.5469818 3.6710815 1.5206146c0.9736328 0.9736328 1.5206299 2.2941742 1.5206299 3.6710968l0 20.766205c0 2.867279 -2.3244019 5.191681 -5.1917114 5.191681l-60.104797 0c-2.867279 0 -5.191681 -2.3244019 -5.191681 -5.191681z" fill-rule="evenodd"/><path stroke="#595959" stroke-width="0.7375328083989501" stroke-linejoin="round" stroke-linecap="butt" d="m326.22906 246.50372c0 -2.8672943 2.3244019 -5.1917114 5.191681 -5.1917114l60.104797 0c1.3769226 0 2.6974487 0.5469818 3.6710815 1.5206146c0.9736328 0.9736328 1.5206299 2.2941742 1.5206299 3.6710968l0 20.766205c0 2.867279 -2.3244019 5.191681 -5.1917114 5.191681l-60.104797 0c-2.867279 0 -5.191681 -2.3244019 -5.191681 -5.191681z" fill-rule="evenodd"/><path fill="#000000" d="m349.08435 261.6247l0 -9.85936l1.296875 0l0 8.687485l4.859375 0l0 1.171875l-6.15625 0zm7.6644897 0l0 -9.85936l1.296875 0l0 8.687485l4.859375 0l0 1.171875l-6.15625 0zm7.664459 0l0 -9.85936l1.96875 0l2.34375 6.9843597q0.3125 0.96875 0.46875 1.453125q0.171875 -0.53125 0.515625 -1.578125l2.375 -6.8593597l1.75 0l0 9.85936l-1.265625 0l0 -8.249985l-2.859375 8.249985l-1.171875 0l-2.859375 -8.39061l0 8.39061l-1.265625 0z" fill-rule="nonzero"/><path fill="#000000" d="m223.40555 241.31201l70.48819 0l0 31.149597l-70.48819 0z" fill-rule="evenodd"/><path stroke="#000000" stroke-width="0.7375328083989501" stroke-linejoin="round" stroke-linecap="butt" d="m223.40555 241.31201l70.48819 0l0 31.149597l-70.48819 0z" fill-rule="evenodd"/><path fill="#ffffff" d="m234.04726 261.6247l0 -9.85936l3.40625 0q1.140625 0 1.75 0.140625q0.84375 0.1875 1.453125 0.703125q0.765625 0.65625 1.15625 1.6875q0.390625 1.015625 0.390625 2.3437347q0 1.125 -0.265625 2.0q-0.265625 0.859375 -0.671875 1.4375q-0.40625 0.5625 -0.90625 0.890625q-0.484375 0.3125 -1.171875 0.484375q-0.6875 0.171875 -1.578125 0.171875l-3.5625 0zm1.3125 -1.171875l2.09375 0q0.984375 0 1.53125 -0.171875q0.5625 -0.1875 0.890625 -0.515625q0.46875 -0.46875 0.71875 -1.25q0.265625 -0.78125 0.265625 -1.890625q0 -1.5468597 -0.515625 -2.3749847q-0.5 -0.84375 -1.234375 -1.125q-0.515625 -0.203125 -1.6875 -0.203125l-2.0625 0l0 7.5312347zm13.374252 -1.125l1.25 0.15625q-0.296875 1.09375 -1.09375 1.703125q-0.796875 0.59375 -2.046875 0.59375q-1.5625 0 -2.484375 -0.953125q-0.921875 -0.96875 -0.921875 -2.71875q0 -1.796875 0.921875 -2.7968597q0.9375 -1.0 2.421875 -1.0q1.4375 0 2.34375 0.984375q0.90625 0.96873474 0.90625 2.7343597q0 0.109375 -0.015625 0.328125l-5.328125 0q0.078125 1.171875 0.671875 1.8125q0.59375 0.625 1.5 0.625q0.65625 0 1.125 -0.34375q0.484375 -0.359375 0.75 -1.125zm-3.96875 -1.96875l3.984375 0q-0.078125 -0.890625 -0.453125 -1.34375q-0.578125 -0.70310974 -1.5 -0.70310974q-0.84375 0 -1.40625 0.5625q-0.5625 0.56248474 -0.625 1.4843597zm7.0394745 4.265625l0 -6.2031097l-1.078125 0l0 -0.9375l1.078125 0l0 -0.765625q0 -0.71875 0.125 -1.078125q0.171875 -0.46875 0.609375 -0.75q0.4375 -0.296875 1.234375 -0.296875q0.515625 0 1.140625 0.125l-0.1875 1.046875q-0.375 -0.0625 -0.71875 -0.0625q-0.546875 0 -0.78125 0.234375q-0.21875 0.234375 -0.21875 0.875l0 0.671875l1.390625 0l0 0.9375l-1.390625 0l0 6.2031097l-1.203125 0zm8.422623 -2.296875l1.25 0.15625q-0.296875 1.09375 -1.09375 1.703125q-0.796875 0.59375 -2.046875 0.59375q-1.5625 0 -2.484375 -0.953125q-0.921875 -0.96875 -0.921875 -2.71875q0 -1.796875 0.921875 -2.7968597q0.9375 -1.0 2.421875 -1.0q1.4375 0 2.34375 0.984375q0.90625 0.96873474 0.90625 2.7343597q0 0.109375 -0.015625 0.328125l-5.328125 0q0.078125 1.171875 0.671875 1.8125q0.59375 0.625 1.5 0.625q0.65625 0 1.125 -0.34375q0.484375 -0.359375 0.75 -1.125zm-3.96875 -1.96875l3.984375 0q-0.078125 -0.890625 -0.453125 -1.34375q-0.578125 -0.70310974 -1.5 -0.70310974q-0.84375 0 -1.40625 0.5625q-0.5625 0.56248474 -0.625 1.4843597zm6.742584 4.265625l0 -7.1406097l1.09375 0l0 1.015625q0.78125 -1.1875 2.265625 -1.1875q0.65625 0 1.1875 0.234375q0.546875 0.234375 0.8125 0.609375q0.28125 0.375 0.375 0.89060974q0.078125 0.34375 0.078125 1.1875l0 4.390625l-1.21875 0l0 -4.34375q0 -0.75 -0.140625 -1.109375q-0.140625 -0.37498474 -0.5 -0.59373474q-0.359375 -0.21875 -0.84375 -0.21875q-0.765625 0 -1.328125 0.5q-0.5625 0.48435974 -0.5625 1.8593597l0 3.90625l-1.21875 0zm12.336365 -2.625l1.1875 0.15625q-0.203125 1.234375 -1.015625 1.9375q-0.796875 0.6875 -1.96875 0.6875q-1.453125 0 -2.359375 -0.953125q-0.890625 -0.953125 -0.890625 -2.75q0 -1.15625 0.390625 -2.015625q0.390625 -0.87498474 1.171875 -1.3124847q0.78125 -0.4375 1.703125 -0.4375q1.15625 0 1.890625 0.59375q0.75 0.59375 0.953125 1.6718597l-1.171875 0.1875q-0.171875 -0.71875 -0.59375 -1.0781097q-0.421875 -0.375 -1.03125 -0.375q-0.921875 0 -1.5 0.65625q-0.5625 0.65623474 -0.5625 2.0781097q0 1.4375 0.546875 2.09375q0.5625 0.65625 1.453125 0.65625q0.703125 0 1.171875 -0.4375q0.484375 -0.4375 0.625 -1.359375zm7.109375 0.328125l1.25 0.15625q-0.296875 1.09375 -1.09375 1.703125q-0.796875 0.59375 -2.046875 0.59375q-1.5625 0 -2.484375 -0.953125q-0.921875 -0.96875 -0.921875 -2.71875q0 -1.796875 0.921875 -2.7968597q0.9375 -1.0 2.421875 -1.0q1.4375 0 2.34375 0.984375q0.90625 0.96873474 0.90625 2.7343597q0 0.109375 -0.015625 0.328125l-5.328125 0q0.078125 1.171875 0.671875 1.8125q0.59375 0.625 1.5 0.625q0.65625 0 1.125 -0.34375q0.484375 -0.359375 0.75 -1.125zm-3.96875 -1.96875l3.984375 0q-0.078125 -0.890625 -0.453125 -1.34375q-0.578125 -0.70310974 -1.5 -0.70310974q-0.84375 0 -1.40625 0.5625q-0.5625 0.56248474 -0.625 1.4843597z" fill-rule="nonzero"/><path fill="#000000" fill-opacity="0.0" d="m293.89374 256.8868l32.346466 0" fill-rule="evenodd"/><path stroke="#595959" stroke-width="0.7375328083989501" stroke-linejoin="round" stroke-linecap="butt" d="m293.89374 256.8868l27.921265 0" fill-rule="evenodd"/><path fill="#595959" stroke="#595959" stroke-width="0.7375328083989501" stroke-linecap="butt" d="m321.815 258.105l3.3469849 -1.2182007l-3.3469849 -1.2182007z" fill-rule="evenodd"/><path fill="#000000" fill-opacity="0.0" d="m396.71725 256.8868l32.346436 -48.03148" fill-rule="evenodd"/><path stroke="#595959" stroke-width="0.7375328083989501" stroke-linejoin="round" stroke-linecap="butt" d="m396.71722 256.8868l29.874603 -44.36104" fill-rule="evenodd"/><path fill="#595959" stroke="#595959" stroke-width="0.7375328083989501" stroke-linecap="butt" d="m427.60226 213.20625l0.8591614 -3.4566345l-2.8800354 2.0956879z" fill-rule="evenodd"/><path fill="#000000" fill-opacity="0.0" d="m396.71725 256.8868l32.346436 0.12600708" fill-rule="evenodd"/><path stroke="#595959" stroke-width="0.7375328083989501" stroke-linejoin="round" stroke-linecap="butt" d="m396.71722 256.8868l27.921295 0.10873413" fill-rule="evenodd"/><path fill="#595959" stroke="#595959" stroke-width="0.7375328083989501" stroke-linecap="butt" d="m424.6338 258.21375l3.351715 -1.2051392l-3.3422241 -1.231247z" fill-rule="evenodd"/><path fill="#000000" fill-opacity="0.0" d="m396.71725 256.8868l32.346436 48.283478" fill-rule="evenodd"/><path stroke="#595959" stroke-width="0.7375328083989501" stroke-linejoin="round" stroke-linecap="butt" d="m396.71722 256.8868l29.883484 44.607025" fill-rule="evenodd"/><path fill="#595959" stroke="#595959" stroke-width="0.7375328083989501" stroke-linecap="butt" d="m425.58865 302.17184l2.874939 2.1026611l-0.85076904 -3.4587097z" fill-rule="evenodd"/><path fill="#eeeeee" d="m326.23486 294.52057c0 -2.8673096 2.3244019 -5.1917114 5.1917114 -5.1917114l60.104767 0c1.3769531 0 2.6974792 0.5469971 3.671112 1.5206299c0.9736328 0.9736328 1.5205994 2.294159 1.5205994 3.6710815l0 20.766205c0 2.867279 -2.3244019 5.191681 -5.1917114 5.191681l-60.104767 0c-2.8673096 0 -5.1917114 -2.3244019 -5.1917114 -5.191681z" fill-rule="evenodd"/><path stroke="#595959" stroke-width="0.7375328083989501" stroke-linejoin="round" stroke-linecap="butt" d="m326.23486 294.52057c0 -2.8673096 2.3244019 -5.1917114 5.1917114 -5.1917114l60.104767 0c1.3769531 0 2.6974792 0.5469971 3.671112 1.5206299c0.9736328 0.9736328 1.5205994 2.294159 1.5205994 3.6710815l0 20.766205c0 2.867279 -2.3244019 5.191681 -5.1917114 5.191681l-60.104767 0c-2.8673096 0 -5.1917114 -2.3244019 -5.1917114 -5.191681z" fill-rule="evenodd"/><path fill="#000000" d="m349.09018 309.64154l0 -9.859375l1.296875 0l0 8.6875l4.859375 0l0 1.171875l-6.15625 0zm7.664459 0l0 -9.859375l1.296875 0l0 8.6875l4.859375 0l0 1.171875l-6.15625 0zm7.6644897 0l0 -9.859375l1.96875 0l2.34375 6.984375q0.3125 0.96875 0.46875 1.453125q0.171875 -0.53125 0.515625 -1.578125l2.375 -6.859375l1.75 0l0 9.859375l-1.265625 0l0 -8.25l-2.859375 8.25l-1.171875 0l-2.859375 -8.390625l0 8.390625l-1.265625 0z" fill-rule="nonzero"/><path fill="#000000" d="m223.41136 289.32886l70.488205 0l0 31.149597l-70.488205 0z" fill-rule="evenodd"/><path stroke="#000000" stroke-width="0.7375328083989501" stroke-linejoin="round" stroke-linecap="butt" d="m223.41136 289.32886l70.488205 0l0 31.149597l-70.488205 0z" fill-rule="evenodd"/><path fill="#ffffff" d="m234.05307 309.64154l0 -9.859375l3.40625 0q1.140625 0 1.75 0.140625q0.84375 0.1875 1.453125 0.703125q0.765625 0.65625 1.15625 1.6875q0.390625 1.015625 0.390625 2.34375q0 1.125 -0.265625 2.0q-0.265625 0.859375 -0.671875 1.4375q-0.40625 0.5625 -0.90625 0.890625q-0.484375 0.3125 -1.171875 0.484375q-0.6875 0.171875 -1.578125 0.171875l-3.5625 0zm1.3125 -1.171875l2.09375 0q0.984375 0 1.53125 -0.171875q0.5625 -0.1875 0.890625 -0.515625q0.46875 -0.46875 0.71875 -1.25q0.265625 -0.78125 0.265625 -1.890625q0 -1.546875 -0.515625 -2.375q-0.5 -0.84375 -1.234375 -1.125q-0.515625 -0.203125 -1.6875 -0.203125l-2.0625 0l0 7.53125zm13.374252 -1.125l1.25 0.15625q-0.296875 1.09375 -1.09375 1.703125q-0.796875 0.59375 -2.046875 0.59375q-1.5625 0 -2.484375 -0.953125q-0.921875 -0.96875 -0.921875 -2.71875q0 -1.796875 0.921875 -2.796875q0.9375 -1.0 2.421875 -1.0q1.4375 0 2.34375 0.984375q0.90625 0.96875 0.90625 2.734375q0 0.109375 -0.015625 0.328125l-5.328125 0q0.078125 1.171875 0.671875 1.8125q0.59375 0.625 1.5 0.625q0.65625 0 1.125 -0.34375q0.484375 -0.359375 0.75 -1.125zm-3.96875 -1.96875l3.984375 0q-0.078125 -0.890625 -0.453125 -1.34375q-0.578125 -0.703125 -1.5 -0.703125q-0.84375 0 -1.40625 0.5625q-0.5625 0.5625 -0.625 1.484375zm7.0394745 4.265625l0 -6.203125l-1.078125 0l0 -0.9375l1.078125 0l0 -0.765625q0 -0.71875 0.125 -1.078125q0.171875 -0.46875 0.609375 -0.75q0.4375 -0.296875 1.234375 -0.296875q0.515625 0 1.140625 0.125l-0.1875 1.046875q-0.375 -0.0625 -0.71875 -0.0625q-0.546875 0 -0.78125 0.234375q-0.21875 0.234375 -0.21875 0.875l0 0.671875l1.390625 0l0 0.9375l-1.390625 0l0 6.203125l-1.203125 0zm8.422638 -2.296875l1.25 0.15625q-0.296875 1.09375 -1.09375 1.703125q-0.796875 0.59375 -2.046875 0.59375q-1.5625 0 -2.4843903 -0.953125q-0.921875 -0.96875 -0.921875 -2.71875q0 -1.796875 0.921875 -2.796875q0.93751526 -1.0 2.4218903 -1.0q1.4375 0 2.34375 0.984375q0.90625 0.96875 0.90625 2.734375q0 0.109375 -0.015625 0.328125l-5.328125 0q0.078125 1.171875 0.671875 1.8125q0.59375 0.625 1.5 0.625q0.65625 0 1.125 -0.34375q0.484375 -0.359375 0.75 -1.125zm-3.96875 -1.96875l3.984375 0q-0.078125 -0.890625 -0.453125 -1.34375q-0.578125 -0.703125 -1.5 -0.703125q-0.84375 0 -1.40625 0.5625q-0.5625 0.5625 -0.625 1.484375zm6.742584 4.265625l0 -7.140625l1.09375 0l0 1.015625q0.78125 -1.1875 2.265625 -1.1875q0.65625 0 1.1875 0.234375q0.546875 0.234375 0.8125 0.609375q0.28125 0.375 0.375 0.890625q0.078125 0.34375 0.078125 1.1875l0 4.390625l-1.21875 0l0 -4.34375q0 -0.75 -0.140625 -1.109375q-0.140625 -0.375 -0.5 -0.59375q-0.359375 -0.21875 -0.84375 -0.21875q-0.765625 0 -1.328125 0.5q-0.5625 0.484375 -0.5625 1.859375l0 3.90625l-1.21875 0zm12.336365 -2.625l1.1875 0.15625q-0.203125 1.234375 -1.015625 1.9375q-0.796875 0.6875 -1.96875 0.6875q-1.453125 0 -2.359375 -0.953125q-0.890625 -0.953125 -0.890625 -2.75q0 -1.15625 0.390625 -2.015625q0.390625 -0.875 1.171875 -1.3125q0.78125 -0.4375 1.703125 -0.4375q1.15625 0 1.890625 0.59375q0.75 0.59375 0.953125 1.671875l-1.171875 0.1875q-0.171875 -0.71875 -0.59375 -1.078125q-0.421875 -0.375 -1.03125 -0.375q-0.921875 0 -1.5 0.65625q-0.5625 0.65625 -0.5625 2.078125q0 1.4375 0.546875 2.09375q0.5625 0.65625 1.453125 0.65625q0.703125 0 1.171875 -0.4375q0.484375 -0.4375 0.625 -1.359375zm7.109375 0.328125l1.25 0.15625q-0.296875 1.09375 -1.09375 1.703125q-0.796875 0.59375 -2.046875 0.59375q-1.5625 0 -2.484375 -0.953125q-0.921875 -0.96875 -0.921875 -2.71875q0 -1.796875 0.921875 -2.796875q0.9375 -1.0 2.421875 -1.0q1.4375 0 2.34375 0.984375q0.90625 0.96875 0.90625 2.734375q0 0.109375 -0.015625 0.328125l-5.328125 0q0.078125 1.171875 0.671875 1.8125q0.59375 0.625 1.5 0.625q0.65625 0 1.125 -0.34375q0.484375 -0.359375 0.75 -1.125zm-3.96875 -1.96875l3.984375 0q-0.078125 -0.890625 -0.453125 -1.34375q-0.578125 -0.703125 -1.5 -0.703125q-0.84375 0 -1.40625 0.5625q-0.5625 0.5625 -0.625 1.484375z" fill-rule="nonzero"/><path fill="#000000" fill-opacity="0.0" d="m293.89957 304.90366l32.346436 0" fill-rule="evenodd"/><path stroke="#595959" stroke-width="0.7375328083989501" stroke-linejoin="round" stroke-linecap="butt" d="m293.89954 304.90366l27.921265 0" fill-rule="evenodd"/><path fill="#595959" stroke="#595959" stroke-width="0.7375328083989501" stroke-linecap="butt" d="m321.8208 306.1219l3.3469849 -1.2182312l-3.3469849 -1.2182007z" fill-rule="evenodd"/><path fill="#000000" fill-opacity="0.0" d="m396.72305 304.90366l32.346466 48.44095" fill-rule="evenodd"/><path stroke="#595959" stroke-width="0.7375328083989501" stroke-linejoin="round" stroke-linecap="butt" d="m396.72305 304.90366l29.889038 44.760803" fill-rule="evenodd"/><path fill="#595959" stroke="#595959" stroke-width="0.7375328083989501" stroke-linecap="butt" d="m425.599 350.34097l2.8717651 2.106964l-0.84558105 -3.459961z" fill-rule="evenodd"/><path fill="#000000" fill-opacity="0.0" d="m396.72305 304.90366l32.314972 96.59842" fill-rule="evenodd"/><path stroke="#595959" stroke-width="0.7375328083989501" stroke-linejoin="round" stroke-linecap="butt" d="m396.72305 304.90366l30.911102 92.401825" fill-rule="evenodd"/><path fill="#595959" stroke="#595959" stroke-width="0.7375328083989501" stroke-linecap="butt" d="m426.47885 397.69196l2.217102 2.7876282l0.093444824 -3.5605774z" fill-rule="evenodd"/><path fill="#000000" fill-opacity="0.0" d="m396.72305 304.90366l32.346466 144.75592" fill-rule="evenodd"/><path stroke="#595959" stroke-width="0.7375328083989501" stroke-linejoin="round" stroke-linecap="butt" d="m396.72305 304.90366l31.38144 140.43723" fill-rule="evenodd"/><path fill="#595959" stroke="#595959" stroke-width="0.7375328083989501" stroke-linecap="butt" d="m426.9156 445.60654l1.9187927 3.0007935l0.45898438 -3.5321045z" fill-rule="evenodd"/><path fill="#eeeeee" d="m531.8819 198.48688c0 -2.8672943 2.3244019 -5.191696 5.1917114 -5.191696l60.104736 0c1.3769531 0 2.6975098 0.54696655 3.6711426 1.5206146c0.9736328 0.9736328 1.5205688 2.294159 1.5205688 3.6710815l0 20.766205c0 2.8672943 -2.3244019 5.191696 -5.1917114 5.191696l-60.104736 0c-2.8673096 0 -5.1917114 -2.3244019 -5.1917114 -5.191696z" fill-rule="evenodd"/><path stroke="#595959" stroke-width="0.7375328083989501" stroke-linejoin="round" stroke-linecap="butt" d="m531.8819 198.48688c0 -2.8672943 2.3244019 -5.191696 5.1917114 -5.191696l60.104736 0c1.3769531 0 2.6975098 0.54696655 3.6711426 1.5206146c0.9736328 0.9736328 1.5205688 2.294159 1.5205688 3.6710815l0 20.766205c0 2.8672943 -2.3244019 5.191696 -5.1917114 5.191696l-60.104736 0c-2.8673096 0 -5.1917114 -2.3244019 -5.1917114 -5.191696z" fill-rule="evenodd"/><path fill="#000000" d="m554.7372 213.60786l0 -9.859375l1.296875 0l0 8.6875l4.859375 0l0 1.171875l-6.15625 0zm7.6644897 0l0 -9.859375l1.296875 0l0 8.6875l4.859375 0l0 1.171875l-6.15625 0zm7.6644897 0l0 -9.859375l1.96875 0l2.34375 6.984375q0.3125 0.96875 0.46875 1.453125q0.171875 -0.53125 0.515625 -1.578125l2.375 -6.859375l1.75 0l0 9.859375l-1.265625 0l0 -8.25l-2.859375 8.25l-1.171875 0l-2.859375 -8.390625l0 8.390625l-1.265625 0z" fill-rule="nonzero"/><path fill="#000000" d="m429.05838 193.29518l70.48819 0l0 31.149597l-70.48819 0z" fill-rule="evenodd"/><path stroke="#000000" stroke-width="0.7375328083989501" stroke-linejoin="round" stroke-linecap="butt" d="m429.05838 193.29518l70.48819 0l0 31.149597l-70.48819 0z" fill-rule="evenodd"/><path fill="#ffffff" d="m439.70007 213.60786l0 -9.859375l3.40625 0q1.140625 0 1.75 0.140625q0.84375 0.1875 1.453125 0.703125q0.765625 0.65625 1.15625 1.6875q0.390625 1.015625 0.390625 2.34375q0 1.125 -0.265625 2.0q-0.265625 0.859375 -0.671875 1.4375q-0.40625 0.5625 -0.90625 0.890625q-0.484375 0.3125 -1.171875 0.484375q-0.6875 0.171875 -1.578125 0.171875l-3.5625 0zm1.3125 -1.171875l2.09375 0q0.984375 0 1.53125 -0.171875q0.5625 -0.1875 0.890625 -0.515625q0.46875 -0.46875 0.71875 -1.25q0.265625 -0.78125 0.265625 -1.890625q0 -1.546875 -0.515625 -2.375q-0.5 -0.84375 -1.234375 -1.125q-0.515625 -0.203125 -1.6875 -0.203125l-2.0625 0l0 7.53125zm13.374268 -1.125l1.25 0.15625q-0.296875 1.09375 -1.09375 1.703125q-0.796875 0.59375 -2.046875 0.59375q-1.5625 0 -2.484375 -0.953125q-0.921875 -0.96875 -0.921875 -2.71875q0 -1.796875 0.921875 -2.796875q0.9375 -1.0 2.421875 -1.0q1.4375 0 2.34375 0.984375q0.90625 0.96875 0.90625 2.734375q0 0.109375 -0.015625 0.328125l-5.328125 0q0.078125 1.171875 0.671875 1.8125q0.59375 0.625 1.5 0.625q0.65625 0 1.125 -0.34375q0.484375 -0.359375 0.75 -1.125zm-3.96875 -1.96875l3.984375 0q-0.078125 -0.890625 -0.453125 -1.34375q-0.578125 -0.703125 -1.5 -0.703125q-0.84375 0 -1.40625 0.5625q-0.5625 0.5625 -0.625 1.484375zm7.039459 4.265625l0 -6.203125l-1.078125 0l0 -0.9375l1.078125 0l0 -0.765625q0 -0.71875 0.125 -1.078125q0.171875 -0.46875 0.609375 -0.75q0.4375 -0.296875 1.234375 -0.296875q0.515625 0 1.140625 0.125l-0.1875 1.046875q-0.375 -0.0625 -0.71875 -0.0625q-0.546875 0 -0.78125 0.234375q-0.21875 0.234375 -0.21875 0.875l0 0.671875l1.390625 0l0 0.9375l-1.390625 0l0 6.203125l-1.203125 0zm8.422638 -2.296875l1.25 0.15625q-0.296875 1.09375 -1.09375 1.703125q-0.796875 0.59375 -2.046875 0.59375q-1.5625 0 -2.484375 -0.953125q-0.921875 -0.96875 -0.921875 -2.71875q0 -1.796875 0.921875 -2.796875q0.9375 -1.0 2.421875 -1.0q1.4375 0 2.34375 0.984375q0.90625 0.96875 0.90625 2.734375q0 0.109375 -0.015625 0.328125l-5.328125 0q0.078125 1.171875 0.671875 1.8125q0.59375 0.625 1.5 0.625q0.65625 0 1.125 -0.34375q0.484375 -0.359375 0.75 -1.125zm-3.96875 -1.96875l3.984375 0q-0.078125 -0.890625 -0.453125 -1.34375q-0.578125 -0.703125 -1.5 -0.703125q-0.84375 0 -1.40625 0.5625q-0.5625 0.5625 -0.625 1.484375zm6.742584 4.265625l0 -7.140625l1.09375 0l0 1.015625q0.78125 -1.1875 2.265625 -1.1875q0.65625 0 1.1875 0.234375q0.546875 0.234375 0.8125 0.609375q0.28125 0.375 0.375 0.890625q0.078125 0.34375 0.078125 1.1875l0 4.390625l-1.21875 0l0 -4.34375q0 -0.75 -0.140625 -1.109375q-0.140625 -0.375 -0.5 -0.59375q-0.359375 -0.21875 -0.84375 -0.21875q-0.765625 0 -1.328125 0.5q-0.5625 0.484375 -0.5625 1.859375l0 3.90625l-1.21875 0zm12.336365 -2.625l1.1875 0.15625q-0.203125 1.234375 -1.015625 1.9375q-0.796875 0.6875 -1.96875 0.6875q-1.453125 0 -2.359375 -0.953125q-0.890625 -0.953125 -0.890625 -2.75q0 -1.15625 0.390625 -2.015625q0.390625 -0.875 1.171875 -1.3125q0.78125 -0.4375 1.703125 -0.4375q1.15625 0 1.890625 0.59375q0.75 0.59375 0.953125 1.671875l-1.171875 0.1875q-0.171875 -0.71875 -0.59375 -1.078125q-0.421875 -0.375 -1.03125 -0.375q-0.921875 0 -1.5 0.65625q-0.5625 0.65625 -0.5625 2.078125q0 1.4375 0.546875 2.09375q0.5625 0.65625 1.453125 0.65625q0.703125 0 1.171875 -0.4375q0.484375 -0.4375 0.625 -1.359375zm7.109375 0.328125l1.25 0.15625q-0.296875 1.09375 -1.09375 1.703125q-0.796875 0.59375 -2.046875 0.59375q-1.5625 0 -2.484375 -0.953125q-0.921875 -0.96875 -0.921875 -2.71875q0 -1.796875 0.921875 -2.796875q0.9375 -1.0 2.421875 -1.0q1.4375 0 2.34375 0.984375q0.90625 0.96875 0.90625 2.734375q0 0.109375 -0.015625 0.328125l-5.328125 0q0.078125 1.171875 0.671875 1.8125q0.59375 0.625 1.5 0.625q0.65625 0 1.125 -0.34375q0.484375 -0.359375 0.75 -1.125zm-3.96875 -1.96875l3.984375 0q-0.078125 -0.890625 -0.453125 -1.34375q-0.578125 -0.703125 -1.5 -0.703125q-0.84375 0 -1.40625 0.5625q-0.5625 0.5625 -0.625 1.484375z" fill-rule="nonzero"/><path fill="#000000" fill-opacity="0.0" d="m499.54657 208.86998l32.346436 0" fill-rule="evenodd"/><path stroke="#595959" stroke-width="0.7375328083989501" stroke-linejoin="round" stroke-linecap="butt" d="m499.5466 208.86998l27.921234 0" fill-rule="evenodd"/><path fill="#595959" stroke="#595959" stroke-width="0.7375328083989501" stroke-linecap="butt" d="m527.46783 210.08818l3.3469849 -1.2182007l-3.3469849 -1.218216z" fill-rule="evenodd"/><path fill="#eeeeee" d="m531.8761 246.64333c0 -2.8673096 2.3244019 -5.1917114 5.1916504 -5.1917114l60.104797 0c1.3769531 0 2.6974487 0.5469818 3.6710815 1.5206146c0.9736328 0.9736328 1.5206299 2.2941742 1.5206299 3.6710968l0 20.76619c0 2.8673096 -2.3244019 5.1917114 -5.1917114 5.1917114l-60.104797 0c-2.8672485 0 -5.1916504 -2.3244019 -5.1916504 -5.1917114z" fill-rule="evenodd"/><path stroke="#595959" stroke-width="0.7375328083989501" stroke-linejoin="round" stroke-linecap="butt" d="m531.8761 246.64333c0 -2.8673096 2.3244019 -5.1917114 5.1916504 -5.1917114l60.104797 0c1.3769531 0 2.6974487 0.5469818 3.6710815 1.5206146c0.9736328 0.9736328 1.5206299 2.2941742 1.5206299 3.6710968l0 20.76619c0 2.8673096 -2.3244019 5.1917114 -5.1917114 5.1917114l-60.104797 0c-2.8672485 0 -5.1916504 -2.3244019 -5.1916504 -5.1917114z" fill-rule="evenodd"/><path fill="#000000" d="m554.7314 261.7643l0 -9.859375l1.296875 0l0 8.6875l4.859375 0l0 1.171875l-6.15625 0zm7.6644897 0l0 -9.859375l1.296875 0l0 8.6875l4.859375 0l0 1.171875l-6.15625 0zm7.6644287 0l0 -9.859375l1.96875 0l2.34375 6.984375q0.3125 0.96875 0.46875 1.453125q0.171875 -0.53125 0.515625 -1.578125l2.375 -6.859375l1.75 0l0 9.859375l-1.265625 0l0 -8.25l-2.859375 8.25l-1.171875 0l-2.859375 -8.390625l0 8.390625l-1.265625 0z" fill-rule="nonzero"/><path fill="#000000" d="m429.05255 241.45161l70.48819 0l0 31.149612l-70.48819 0z" fill-rule="evenodd"/><path stroke="#000000" stroke-width="0.7375328083989501" stroke-linejoin="round" stroke-linecap="butt" d="m429.05255 241.45161l70.48819 0l0 31.149612l-70.48819 0z" fill-rule="evenodd"/><path fill="#ffffff" d="m439.69427 261.7643l0 -9.859375l3.40625 0q1.140625 0 1.75 0.140625q0.84375 0.1875 1.453125 0.703125q0.765625 0.65625 1.15625 1.6875q0.390625 1.015625 0.390625 2.34375q0 1.125 -0.265625 2.0q-0.265625 0.859375 -0.671875 1.4375q-0.40625 0.5625 -0.90625 0.890625q-0.484375 0.3125 -1.171875 0.484375q-0.6875 0.171875 -1.578125 0.171875l-3.5625 0zm1.3125 -1.171875l2.09375 0q0.984375 0 1.53125 -0.171875q0.5625 -0.1875 0.890625 -0.515625q0.46875 -0.46875 0.71875 -1.25q0.265625 -0.78125 0.265625 -1.890625q0 -1.546875 -0.515625 -2.375q-0.5 -0.84375 -1.234375 -1.125q-0.515625 -0.203125 -1.6875 -0.203125l-2.0625 0l0 7.53125zm13.374237 -1.125l1.25 0.15625q-0.296875 1.09375 -1.09375 1.703125q-0.796875 0.59375 -2.046875 0.59375q-1.5625 0 -2.484375 -0.953125q-0.921875 -0.96875 -0.921875 -2.71875q0 -1.796875 0.921875 -2.796875q0.9375 -1.0 2.421875 -1.0q1.4375 0 2.34375 0.984375q0.90625 0.96875 0.90625 2.734375q0 0.109375 -0.015625 0.328125l-5.328125 0q0.078125 1.171875 0.671875 1.8125q0.59375 0.625 1.5 0.625q0.65625 0 1.125 -0.34375q0.484375 -0.359375 0.75 -1.125zm-3.96875 -1.96875l3.984375 0q-0.078125 -0.890625 -0.453125 -1.34375q-0.578125 -0.703125 -1.5 -0.703125q-0.84375 0 -1.40625 0.5625q-0.5625 0.5625 -0.625 1.484375zm7.0394897 4.265625l0 -6.203125l-1.078125 0l0 -0.9375l1.078125 0l0 -0.765625q0 -0.71875 0.125 -1.078125q0.171875 -0.46875 0.609375 -0.75q0.4375 -0.296875 1.234375 -0.296875q0.515625 0 1.140625 0.125l-0.1875 1.046875q-0.375 -0.0625 -0.71875 -0.0625q-0.546875 0 -0.78125 0.234375q-0.21875 0.234375 -0.21875 0.875l0 0.671875l1.390625 0l0 0.9375l-1.390625 0l0 6.203125l-1.203125 0zm8.422607 -2.296875l1.25 0.15625q-0.296875 1.09375 -1.09375 1.703125q-0.796875 0.59375 -2.046875 0.59375q-1.5625 0 -2.484375 -0.953125q-0.921875 -0.96875 -0.921875 -2.71875q0 -1.796875 0.921875 -2.796875q0.9375 -1.0 2.421875 -1.0q1.4375 0 2.34375 0.984375q0.90625 0.96875 0.90625 2.734375q0 0.109375 -0.015625 0.328125l-5.328125 0q0.078125 1.171875 0.671875 1.8125q0.59375 0.625 1.5 0.625q0.65625 0 1.125 -0.34375q0.484375 -0.359375 0.75 -1.125zm-3.96875 -1.96875l3.984375 0q-0.078125 -0.890625 -0.453125 -1.34375q-0.578125 -0.703125 -1.5 -0.703125q-0.84375 0 -1.40625 0.5625q-0.5625 0.5625 -0.625 1.484375zm6.7426147 4.265625l0 -7.140625l1.09375 0l0 1.015625q0.78125 -1.1875 2.265625 -1.1875q0.65625 0 1.1875 0.234375q0.546875 0.234375 0.8125 0.609375q0.28125 0.375 0.375 0.890625q0.078125 0.34375 0.078125 1.1875l0 4.390625l-1.21875 0l0 -4.34375q0 -0.75 -0.140625 -1.109375q-0.140625 -0.375 -0.5 -0.59375q-0.359375 -0.21875 -0.84375 -0.21875q-0.765625 0 -1.328125 0.5q-0.5625 0.484375 -0.5625 1.859375l0 3.90625l-1.21875 0zm12.336334 -2.625l1.1875 0.15625q-0.203125 1.234375 -1.015625 1.9375q-0.796875 0.6875 -1.96875 0.6875q-1.453125 0 -2.359375 -0.953125q-0.890625 -0.953125 -0.890625 -2.75q0 -1.15625 0.390625 -2.015625q0.390625 -0.875 1.171875 -1.3125q0.78125 -0.4375 1.703125 -0.4375q1.15625 0 1.890625 0.59375q0.75 0.59375 0.953125 1.671875l-1.171875 0.1875q-0.171875 -0.71875 -0.59375 -1.078125q-0.421875 -0.375 -1.03125 -0.375q-0.921875 0 -1.5 0.65625q-0.5625 0.65625 -0.5625 2.078125q0 1.4375 0.546875 2.09375q0.5625 0.65625 1.453125 0.65625q0.703125 0 1.171875 -0.4375q0.484375 -0.4375 0.625 -1.359375zm7.109375 0.328125l1.25 0.15625q-0.296875 1.09375 -1.09375 1.703125q-0.796875 0.59375 -2.046875 0.59375q-1.5625 0 -2.484375 -0.953125q-0.921875 -0.96875 -0.921875 -2.71875q0 -1.796875 0.921875 -2.796875q0.9375 -1.0 2.421875 -1.0q1.4375 0 2.34375 0.984375q0.90625 0.96875 0.90625 2.734375q0 0.109375 -0.015625 0.328125l-5.328125 0q0.078125 1.171875 0.671875 1.8125q0.59375 0.625 1.5 0.625q0.65625 0 1.125 -0.34375q0.484375 -0.359375 0.75 -1.125zm-3.96875 -1.96875l3.984375 0q-0.078125 -0.890625 -0.453125 -1.34375q-0.578125 -0.703125 -1.5 -0.703125q-0.84375 0 -1.40625 0.5625q-0.5625 0.5625 -0.625 1.484375z" fill-rule="nonzero"/><path fill="#000000" fill-opacity="0.0" d="m499.54074 257.02643l32.346466 0" fill-rule="evenodd"/><path stroke="#595959" stroke-width="0.7375328083989501" stroke-linejoin="round" stroke-linecap="butt" d="m499.54077 257.02643l27.921265 0" fill-rule="evenodd"/><path fill="#595959" stroke="#595959" stroke-width="0.7375328083989501" stroke-linecap="butt" d="m527.46204 258.24463l3.3469849 -1.2182007l-3.3469849 -1.2182007z" fill-rule="evenodd"/><path fill="#eeeeee" d="m531.8819 294.79977c0 -2.8673096 2.3244019 -5.1917114 5.1917114 -5.1917114l60.104736 0c1.3769531 0 2.6975098 0.54696655 3.6711426 1.5205994c0.9736328 0.97366333 1.5205688 2.2941895 1.5205688 3.671112l0 20.766174c0 2.8673096 -2.3244019 5.1917114 -5.1917114 5.1917114l-60.104736 0c-2.8673096 0 -5.1917114 -2.3244019 -5.1917114 -5.1917114z" fill-rule="evenodd"/><path stroke="#595959" stroke-width="0.7375328083989501" stroke-linejoin="round" stroke-linecap="butt" d="m531.8819 294.79977c0 -2.8673096 2.3244019 -5.1917114 5.1917114 -5.1917114l60.104736 0c1.3769531 0 2.6975098 0.54696655 3.6711426 1.5205994c0.9736328 0.97366333 1.5205688 2.2941895 1.5205688 3.671112l0 20.766174c0 2.8673096 -2.3244019 5.1917114 -5.1917114 5.1917114l-60.104736 0c-2.8673096 0 -5.1917114 -2.3244019 -5.1917114 -5.1917114z" fill-rule="evenodd"/><path fill="#000000" d="m554.7372 309.92075l0 -9.859375l1.296875 0l0 8.6875l4.859375 0l0 1.171875l-6.15625 0zm7.6644897 0l0 -9.859375l1.296875 0l0 8.6875l4.859375 0l0 1.171875l-6.15625 0zm7.6644897 0l0 -9.859375l1.96875 0l2.34375 6.984375q0.3125 0.96875 0.46875 1.453125q0.171875 -0.53125 0.515625 -1.578125l2.375 -6.859375l1.75 0l0 9.859375l-1.265625 0l0 -8.25l-2.859375 8.25l-1.171875 0l-2.859375 -8.390625l0 8.390625l-1.265625 0z" fill-rule="nonzero"/><path fill="#000000" d="m429.05838 289.60806l70.48819 0l0 31.149597l-70.48819 0z" fill-rule="evenodd"/><path stroke="#000000" stroke-width="0.7375328083989501" stroke-linejoin="round" stroke-linecap="butt" d="m429.05838 289.60806l70.48819 0l0 31.149597l-70.48819 0z" fill-rule="evenodd"/><path fill="#ffffff" d="m439.70007 309.92075l0 -9.859375l3.40625 0q1.140625 0 1.75 0.140625q0.84375 0.1875 1.453125 0.703125q0.765625 0.65625 1.15625 1.6875q0.390625 1.015625 0.390625 2.34375q0 1.125 -0.265625 2.0q-0.265625 0.859375 -0.671875 1.4375q-0.40625 0.5625 -0.90625 0.890625q-0.484375 0.3125 -1.171875 0.484375q-0.6875 0.171875 -1.578125 0.171875l-3.5625 0zm1.3125 -1.171875l2.09375 0q0.984375 0 1.53125 -0.171875q0.5625 -0.1875 0.890625 -0.515625q0.46875 -0.46875 0.71875 -1.25q0.265625 -0.78125 0.265625 -1.890625q0 -1.546875 -0.515625 -2.375q-0.5 -0.84375 -1.234375 -1.125q-0.515625 -0.203125 -1.6875 -0.203125l-2.0625 0l0 7.53125zm13.374268 -1.125l1.25 0.15625q-0.296875 1.09375 -1.09375 1.703125q-0.796875 0.59375 -2.046875 0.59375q-1.5625 0 -2.484375 -0.953125q-0.921875 -0.96875 -0.921875 -2.71875q0 -1.796875 0.921875 -2.796875q0.9375 -1.0 2.421875 -1.0q1.4375 0 2.34375 0.984375q0.90625 0.96875 0.90625 2.734375q0 0.109375 -0.015625 0.328125l-5.328125 0q0.078125 1.171875 0.671875 1.8125q0.59375 0.625 1.5 0.625q0.65625 0 1.125 -0.34375q0.484375 -0.359375 0.75 -1.125zm-3.96875 -1.96875l3.984375 0q-0.078125 -0.890625 -0.453125 -1.34375q-0.578125 -0.703125 -1.5 -0.703125q-0.84375 0 -1.40625 0.5625q-0.5625 0.5625 -0.625 1.484375zm7.039459 4.265625l0 -6.203125l-1.078125 0l0 -0.9375l1.078125 0l0 -0.765625q0 -0.71875 0.125 -1.078125q0.171875 -0.46875 0.609375 -0.75q0.4375 -0.296875 1.234375 -0.296875q0.515625 0 1.140625 0.125l-0.1875 1.046875q-0.375 -0.0625 -0.71875 -0.0625q-0.546875 0 -0.78125 0.234375q-0.21875 0.234375 -0.21875 0.875l0 0.671875l1.390625 0l0 0.9375l-1.390625 0l0 6.203125l-1.203125 0zm8.422638 -2.296875l1.25 0.15625q-0.296875 1.09375 -1.09375 1.703125q-0.796875 0.59375 -2.046875 0.59375q-1.5625 0 -2.484375 -0.953125q-0.921875 -0.96875 -0.921875 -2.71875q0 -1.796875 0.921875 -2.796875q0.9375 -1.0 2.421875 -1.0q1.4375 0 2.34375 0.984375q0.90625 0.96875 0.90625 2.734375q0 0.109375 -0.015625 0.328125l-5.328125 0q0.078125 1.171875 0.671875 1.8125q0.59375 0.625 1.5 0.625q0.65625 0 1.125 -0.34375q0.484375 -0.359375 0.75 -1.125zm-3.96875 -1.96875l3.984375 0q-0.078125 -0.890625 -0.453125 -1.34375q-0.578125 -0.703125 -1.5 -0.703125q-0.84375 0 -1.40625 0.5625q-0.5625 0.5625 -0.625 1.484375zm6.742584 4.265625l0 -7.140625l1.09375 0l0 1.015625q0.78125 -1.1875 2.265625 -1.1875q0.65625 0 1.1875 0.234375q0.546875 0.234375 0.8125 0.609375q0.28125 0.375 0.375 0.890625q0.078125 0.34375 0.078125 1.1875l0 4.390625l-1.21875 0l0 -4.34375q0 -0.75 -0.140625 -1.109375q-0.140625 -0.375 -0.5 -0.59375q-0.359375 -0.21875 -0.84375 -0.21875q-0.765625 0 -1.328125 0.5q-0.5625 0.484375 -0.5625 1.859375l0 3.90625l-1.21875 0zm12.336365 -2.625l1.1875 0.15625q-0.203125 1.234375 -1.015625 1.9375q-0.796875 0.6875 -1.96875 0.6875q-1.453125 0 -2.359375 -0.953125q-0.890625 -0.953125 -0.890625 -2.75q0 -1.15625 0.390625 -2.015625q0.390625 -0.875 1.171875 -1.3125q0.78125 -0.4375 1.703125 -0.4375q1.15625 0 1.890625 0.59375q0.75 0.59375 0.953125 1.671875l-1.171875 0.1875q-0.171875 -0.71875 -0.59375 -1.078125q-0.421875 -0.375 -1.03125 -0.375q-0.921875 0 -1.5 0.65625q-0.5625 0.65625 -0.5625 2.078125q0 1.4375 0.546875 2.09375q0.5625 0.65625 1.453125 0.65625q0.703125 0 1.171875 -0.4375q0.484375 -0.4375 0.625 -1.359375zm7.109375 0.328125l1.25 0.15625q-0.296875 1.09375 -1.09375 1.703125q-0.796875 0.59375 -2.046875 0.59375q-1.5625 0 -2.484375 -0.953125q-0.921875 -0.96875 -0.921875 -2.71875q0 -1.796875 0.921875 -2.796875q0.9375 -1.0 2.421875 -1.0q1.4375 0 2.34375 0.984375q0.90625 0.96875 0.90625 2.734375q0 0.109375 -0.015625 0.328125l-5.328125 0q0.078125 1.171875 0.671875 1.8125q0.59375 0.625 1.5 0.625q0.65625 0 1.125 -0.34375q0.484375 -0.359375 0.75 -1.125zm-3.96875 -1.96875l3.984375 0q-0.078125 -0.890625 -0.453125 -1.34375q-0.578125 -0.703125 -1.5 -0.703125q-0.84375 0 -1.40625 0.5625q-0.5625 0.5625 -0.625 1.484375z" fill-rule="nonzero"/><path fill="#000000" fill-opacity="0.0" d="m499.54657 305.18286l32.346436 0" fill-rule="evenodd"/><path stroke="#595959" stroke-width="0.7375328083989501" stroke-linejoin="round" stroke-linecap="butt" d="m499.5466 305.18286l27.921234 0" fill-rule="evenodd"/><path fill="#595959" stroke="#595959" stroke-width="0.7375328083989501" stroke-linecap="butt" d="m527.46783 306.40106l3.3469849 -1.2182007l-3.3469849 -1.2182007z" fill-rule="evenodd"/><path fill="#eeeeee" d="m531.8722 150.33043c0 -2.8672943 2.3244019 -5.191696 5.1917114 -5.191696l60.104797 0c1.3768921 0 2.6974487 0.5469818 3.6710815 1.5206146c0.9736328 0.9736328 1.5205688 2.294159 1.5205688 3.6710815l0 20.766205c0 2.8672943 -2.3244019 5.191696 -5.1916504 5.191696l-60.104797 0c-2.8673096 0 -5.1917114 -2.3244019 -5.1917114 -5.191696z" fill-rule="evenodd"/><path stroke="#595959" stroke-width="0.7375328083989501" stroke-linejoin="round" stroke-linecap="butt" d="m531.8722 150.33043c0 -2.8672943 2.3244019 -5.191696 5.1917114 -5.191696l60.104797 0c1.3768921 0 2.6974487 0.5469818 3.6710815 1.5206146c0.9736328 0.9736328 1.5205688 2.294159 1.5205688 3.6710815l0 20.766205c0 2.8672943 -2.3244019 5.191696 -5.1916504 5.191696l-60.104797 0c-2.8673096 0 -5.1917114 -2.3244019 -5.1917114 -5.191696z" fill-rule="evenodd"/><path fill="#000000" d="m554.7275 165.45142l0 -9.859375l1.296875 0l0 8.6875l4.859375 0l0 1.171875l-6.15625 0zm7.6644897 0l0 -9.859375l1.296875 0l0 8.6875l4.859375 0l0 1.171875l-6.15625 0zm7.6644897 0l0 -9.859375l1.96875 0l2.34375 6.984375q0.3125 0.96875 0.46875 1.453125q0.171875 -0.53125 0.515625 -1.578125l2.375 -6.859375l1.75 0l0 9.859375l-1.265625 0l0 -8.25l-2.859375 8.25l-1.171875 0l-2.859375 -8.390625l0 8.390625l-1.265625 0z" fill-rule="nonzero"/><path fill="#000000" d="m429.04868 145.13873l70.48819 0l0 31.149597l-70.48819 0z" fill-rule="evenodd"/><path stroke="#000000" stroke-width="0.7375328083989501" stroke-linejoin="round" stroke-linecap="butt" d="m429.04868 145.13873l70.48819 0l0 31.149597l-70.48819 0z" fill-rule="evenodd"/><path fill="#ffffff" d="m439.6904 165.45142l0 -9.859375l3.40625 0q1.140625 0 1.75 0.140625q0.84375 0.1875 1.453125 0.703125q0.765625 0.65625 1.15625 1.6875q0.390625 1.015625 0.390625 2.34375q0 1.125 -0.265625 2.0q-0.265625 0.859375 -0.671875 1.4375q-0.40625 0.5625 -0.90625 0.890625q-0.484375 0.3125 -1.171875 0.484375q-0.6875 0.171875 -1.578125 0.171875l-3.5625 0zm1.3125 -1.171875l2.09375 0q0.984375 0 1.53125 -0.171875q0.5625 -0.1875 0.890625 -0.515625q0.46875 -0.46875 0.71875 -1.25q0.265625 -0.78125 0.265625 -1.890625q0 -1.546875 -0.515625 -2.375q-0.5 -0.84375 -1.234375 -1.125q-0.515625 -0.203125 -1.6875 -0.203125l-2.0625 0l0 7.53125zm13.374237 -1.125l1.25 0.15625q-0.296875 1.09375 -1.09375 1.703125q-0.796875 0.59375 -2.046875 0.59375q-1.5625 0 -2.484375 -0.953125q-0.921875 -0.96875 -0.921875 -2.71875q0 -1.796875 0.921875 -2.796875q0.9375 -1.0 2.421875 -1.0q1.4375 0 2.34375 0.984375q0.90625 0.96875 0.90625 2.734375q0 0.109375 -0.015625 0.328125l-5.328125 0q0.078125 1.171875 0.671875 1.8125q0.59375 0.625 1.5 0.625q0.65625 0 1.125 -0.34375q0.484375 -0.359375 0.75 -1.125zm-3.96875 -1.96875l3.984375 0q-0.078125 -0.890625 -0.453125 -1.34375q-0.578125 -0.703125 -1.5 -0.703125q-0.84375 0 -1.40625 0.5625q-0.5625 0.5625 -0.625 1.484375zm7.0394897 4.265625l0 -6.203125l-1.078125 0l0 -0.9375l1.078125 0l0 -0.765625q0 -0.71875 0.125 -1.078125q0.171875 -0.46875 0.609375 -0.75q0.4375 -0.296875 1.234375 -0.296875q0.515625 0 1.140625 0.125l-0.1875 1.046875q-0.375 -0.0625 -0.71875 -0.0625q-0.546875 0 -0.78125 0.234375q-0.21875 0.234375 -0.21875 0.875l0 0.671875l1.390625 0l0 0.9375l-1.390625 0l0 6.203125l-1.203125 0zm8.422607 -2.296875l1.25 0.15625q-0.296875 1.09375 -1.09375 1.703125q-0.796875 0.59375 -2.046875 0.59375q-1.5625 0 -2.484375 -0.953125q-0.921875 -0.96875 -0.921875 -2.71875q0 -1.796875 0.921875 -2.796875q0.9375 -1.0 2.421875 -1.0q1.4375 0 2.34375 0.984375q0.90625 0.96875 0.90625 2.734375q0 0.109375 -0.015625 0.328125l-5.328125 0q0.078125 1.171875 0.671875 1.8125q0.59375 0.625 1.5 0.625q0.65625 0 1.125 -0.34375q0.484375 -0.359375 0.75 -1.125zm-3.96875 -1.96875l3.984375 0q-0.078125 -0.890625 -0.453125 -1.34375q-0.578125 -0.703125 -1.5 -0.703125q-0.84375 0 -1.40625 0.5625q-0.5625 0.5625 -0.625 1.484375zm6.7426147 4.265625l0 -7.140625l1.09375 0l0 1.015625q0.78125 -1.1875 2.265625 -1.1875q0.65625 0 1.1875 0.234375q0.546875 0.234375 0.8125 0.609375q0.28125 0.375 0.375 0.890625q0.078125 0.34375 0.078125 1.1875l0 4.390625l-1.21875 0l0 -4.34375q0 -0.75 -0.140625 -1.109375q-0.140625 -0.375 -0.5 -0.59375q-0.359375 -0.21875 -0.84375 -0.21875q-0.765625 0 -1.328125 0.5q-0.5625 0.484375 -0.5625 1.859375l0 3.90625l-1.21875 0zm12.336334 -2.625l1.1875 0.15625q-0.203125 1.234375 -1.015625 1.9375q-0.796875 0.6875 -1.96875 0.6875q-1.453125 0 -2.359375 -0.953125q-0.890625 -0.953125 -0.890625 -2.75q0 -1.15625 0.390625 -2.015625q0.390625 -0.875 1.171875 -1.3125q0.78125 -0.4375 1.703125 -0.4375q1.15625 0 1.890625 0.59375q0.75 0.59375 0.953125 1.671875l-1.171875 0.1875q-0.171875 -0.71875 -0.59375 -1.078125q-0.421875 -0.375 -1.03125 -0.375q-0.921875 0 -1.5 0.65625q-0.5625 0.65625 -0.5625 2.078125q0 1.4375 0.546875 2.09375q0.5625 0.65625 1.453125 0.65625q0.703125 0 1.171875 -0.4375q0.484375 -0.4375 0.625 -1.359375zm7.109375 0.328125l1.25 0.15625q-0.296875 1.09375 -1.09375 1.703125q-0.796875 0.59375 -2.046875 0.59375q-1.5625 0 -2.484375 -0.953125q-0.921875 -0.96875 -0.921875 -2.71875q0 -1.796875 0.921875 -2.796875q0.9375 -1.0 2.421875 -1.0q1.4375 0 2.34375 0.984375q0.90625 0.96875 0.90625 2.734375q0 0.109375 -0.015625 0.328125l-5.328125 0q0.078125 1.171875 0.671875 1.8125q0.59375 0.625 1.5 0.625q0.65625 0 1.125 -0.34375q0.484375 -0.359375 0.75 -1.125zm-3.96875 -1.96875l3.984375 0q-0.078125 -0.890625 -0.453125 -1.34375q-0.578125 -0.703125 -1.5 -0.703125q-0.84375 0 -1.40625 0.5625q-0.5625 0.5625 -0.625 1.484375z" fill-rule="nonzero"/><path fill="#000000" fill-opacity="0.0" d="m499.53687 160.71353l32.346436 0" fill-rule="evenodd"/><path stroke="#595959" stroke-width="0.7375328083989501" stroke-linejoin="round" stroke-linecap="butt" d="m499.53687 160.71353l27.921265 0" fill-rule="evenodd"/><path fill="#595959" stroke="#595959" stroke-width="0.7375328083989501" stroke-linecap="butt" d="m527.4581 161.93173l3.3469849 -1.2182007l-3.3469849 -1.2182007z" fill-rule="evenodd"/><path fill="#eeeeee" d="m531.878 105.44879c0 -2.867302 2.3244019 -5.191704 5.1917114 -5.191704l60.104797 0c1.3768921 0 2.6974487 0.5469818 3.6710815 1.5206146c0.9736328 0.9736328 1.5206299 2.2941666 1.5206299 3.6710892l0 20.766197c0 2.867302 -2.3244019 5.191704 -5.1917114 5.191704l-60.104797 0c-2.8673096 0 -5.1917114 -2.3244019 -5.1917114 -5.191704z" fill-rule="evenodd"/><path stroke="#595959" stroke-width="0.7375328083989501" stroke-linejoin="round" stroke-linecap="butt" d="m531.878 105.44879c0 -2.867302 2.3244019 -5.191704 5.1917114 -5.191704l60.104797 0c1.3768921 0 2.6974487 0.5469818 3.6710815 1.5206146c0.9736328 0.9736328 1.5206299 2.2941666 1.5206299 3.6710892l0 20.766197c0 2.867302 -2.3244019 5.191704 -5.1917114 5.191704l-60.104797 0c-2.8673096 0 -5.1917114 -2.3244019 -5.1917114 -5.191704z" fill-rule="evenodd"/><path fill="#000000" d="m554.73334 120.56978l0 -9.859375l1.296875 0l0 8.6875l4.859375 0l0 1.171875l-6.15625 0zm7.6644287 0l0 -9.859375l1.296875 0l0 8.6875l4.859375 0l0 1.171875l-6.15625 0zm7.6644897 0l0 -9.859375l1.96875 0l2.34375 6.984375q0.3125 0.96875 0.46875 1.453125q0.171875 -0.53125 0.515625 -1.578125l2.375 -6.859375l1.75 0l0 9.859375l-1.265625 0l0 -8.25l-2.859375 8.25l-1.171875 0l-2.859375 -8.390625l0 8.390625l-1.265625 0z" fill-rule="nonzero"/><path fill="#000000" d="m429.0545 100.25709l70.48819 0l0 31.149605l-70.48819 0z" fill-rule="evenodd"/><path stroke="#000000" stroke-width="0.7375328083989501" stroke-linejoin="round" stroke-linecap="butt" d="m429.0545 100.25709l70.48819 0l0 31.149605l-70.48819 0z" fill-rule="evenodd"/><path fill="#ffffff" d="m439.6962 120.56978l0 -9.859375l3.40625 0q1.140625 0 1.75 0.140625q0.84375 0.1875 1.453125 0.703125q0.765625 0.65625 1.15625 1.6875q0.390625 1.015625 0.390625 2.34375q0 1.125 -0.265625 2.0q-0.265625 0.859375 -0.671875 1.4375q-0.40625 0.5625 -0.90625 0.890625q-0.484375 0.3125 -1.171875 0.484375q-0.6875 0.171875 -1.578125 0.171875l-3.5625 0zm1.3125 -1.171875l2.09375 0q0.984375 0 1.53125 -0.171875q0.5625 -0.1875 0.890625 -0.515625q0.46875 -0.46875 0.71875 -1.25q0.265625 -0.78125 0.265625 -1.890625q0 -1.546875 -0.515625 -2.375q-0.5 -0.84375 -1.234375 -1.125q-0.515625 -0.203125 -1.6875 -0.203125l-2.0625 0l0 7.53125zm13.374268 -1.125l1.25 0.15625q-0.296875 1.09375 -1.09375 1.703125q-0.796875 0.59375 -2.046875 0.59375q-1.5625 0 -2.484375 -0.953125q-0.921875 -0.96875 -0.921875 -2.71875q0 -1.796875 0.921875 -2.796875q0.9375 -1.0 2.421875 -1.0q1.4375 0 2.34375 0.984375q0.90625 0.96875 0.90625 2.734375q0 0.109375 -0.015625 0.328125l-5.328125 0q0.078125 1.171875 0.671875 1.8125q0.59375 0.625 1.5 0.625q0.65625 0 1.125 -0.34375q0.484375 -0.359375 0.75 -1.125zm-3.96875 -1.96875l3.984375 0q-0.078125 -0.890625 -0.453125 -1.34375q-0.578125 -0.703125 -1.5 -0.703125q-0.84375 0 -1.40625 0.5625q-0.5625 0.5625 -0.625 1.484375zm7.039459 4.265625l0 -6.203125l-1.078125 0l0 -0.9375l1.078125 0l0 -0.765625q0 -0.71875 0.125 -1.078125q0.171875 -0.46875 0.609375 -0.75q0.4375 -0.296875 1.234375 -0.296875q0.515625 0 1.140625 0.125l-0.1875 1.046875q-0.375 -0.0625 -0.71875 -0.0625q-0.546875 0 -0.78125 0.234375q-0.21875 0.234375 -0.21875 0.875l0 0.671875l1.390625 0l0 0.9375l-1.390625 0l0 6.203125l-1.203125 0zm8.422638 -2.296875l1.25 0.15625q-0.296875 1.09375 -1.09375 1.703125q-0.796875 0.59375 -2.046875 0.59375q-1.5625 0 -2.484375 -0.953125q-0.921875 -0.96875 -0.921875 -2.71875q0 -1.796875 0.921875 -2.796875q0.9375 -1.0 2.421875 -1.0q1.4375 0 2.34375 0.984375q0.90625 0.96875 0.90625 2.734375q0 0.109375 -0.015625 0.328125l-5.328125 0q0.078125 1.171875 0.671875 1.8125q0.59375 0.625 1.5 0.625q0.65625 0 1.125 -0.34375q0.484375 -0.359375 0.75 -1.125zm-3.96875 -1.96875l3.984375 0q-0.078125 -0.890625 -0.453125 -1.34375q-0.578125 -0.703125 -1.5 -0.703125q-0.84375 0 -1.40625 0.5625q-0.5625 0.5625 -0.625 1.484375zm6.742584 4.265625l0 -7.140625l1.09375 0l0 1.015625q0.78125 -1.1875 2.265625 -1.1875q0.65625 0 1.1875 0.234375q0.546875 0.234375 0.8125 0.609375q0.28125 0.375 0.375 0.890625q0.078125 0.34375 0.078125 1.1875l0 4.390625l-1.21875 0l0 -4.34375q0 -0.75 -0.140625 -1.109375q-0.140625 -0.375 -0.5 -0.59375q-0.359375 -0.21875 -0.84375 -0.21875q-0.765625 0 -1.328125 0.5q-0.5625 0.484375 -0.5625 1.859375l0 3.90625l-1.21875 0zm12.336365 -2.625l1.1875 0.15625q-0.203125 1.234375 -1.015625 1.9375q-0.796875 0.6875 -1.96875 0.6875q-1.453125 0 -2.359375 -0.953125q-0.890625 -0.953125 -0.890625 -2.75q0 -1.15625 0.390625 -2.015625q0.390625 -0.875 1.171875 -1.3125q0.78125 -0.4375 1.703125 -0.4375q1.15625 0 1.890625 0.59375q0.75 0.59375 0.953125 1.671875l-1.171875 0.1875q-0.171875 -0.71875 -0.59375 -1.078125q-0.421875 -0.375 -1.03125 -0.375q-0.921875 0 -1.5 0.65625q-0.5625 0.65625 -0.5625 2.078125q0 1.4375 0.546875 2.09375q0.5625 0.65625 1.453125 0.65625q0.703125 0 1.171875 -0.4375q0.484375 -0.4375 0.625 -1.359375zm7.109375 0.328125l1.25 0.15625q-0.296875 1.09375 -1.09375 1.703125q-0.796875 0.59375 -2.046875 0.59375q-1.5625 0 -2.484375 -0.953125q-0.921875 -0.96875 -0.921875 -2.71875q0 -1.796875 0.921875 -2.796875q0.9375 -1.0 2.421875 -1.0q1.4375 0 2.34375 0.984375q0.90625 0.96875 0.90625 2.734375q0 0.109375 -0.015625 0.328125l-5.328125 0q0.078125 1.171875 0.671875 1.8125q0.59375 0.625 1.5 0.625q0.65625 0 1.125 -0.34375q0.484375 -0.359375 0.75 -1.125zm-3.96875 -1.96875l3.984375 0q-0.078125 -0.890625 -0.453125 -1.34375q-0.578125 -0.703125 -1.5 -0.703125q-0.84375 0 -1.40625 0.5625q-0.5625 0.5625 -0.625 1.484375z" fill-rule="nonzero"/><path fill="#000000" fill-opacity="0.0" d="m499.5427 115.83189l32.346466 0" fill-rule="evenodd"/><path stroke="#595959" stroke-width="0.7375328083989501" stroke-linejoin="round" stroke-linecap="butt" d="m499.5427 115.83189l27.921234 0" fill-rule="evenodd"/><path fill="#595959" stroke="#595959" stroke-width="0.7375328083989501" stroke-linecap="butt" d="m527.4639 117.050095l3.347046 -1.2182083l-3.347046 -1.2182083z" fill-rule="evenodd"/><path fill="#eeeeee" d="m531.878 60.567146c0 -2.8672981 2.3244019 -5.191704 5.1917114 -5.191704l60.104797 0c1.3768921 0 2.6974487 0.5469818 3.6710815 1.5206146c0.9736328 0.9736328 1.5206299 2.2941666 1.5206299 3.6710892l0 20.766197c0 2.867302 -2.3244019 5.191704 -5.1917114 5.191704l-60.104797 0c-2.8673096 0 -5.1917114 -2.3244019 -5.1917114 -5.191704z" fill-rule="evenodd"/><path stroke="#595959" stroke-width="0.7375328083989501" stroke-linejoin="round" stroke-linecap="butt" d="m531.878 60.567146c0 -2.8672981 2.3244019 -5.191704 5.1917114 -5.191704l60.104797 0c1.3768921 0 2.6974487 0.5469818 3.6710815 1.5206146c0.9736328 0.9736328 1.5206299 2.2941666 1.5206299 3.6710892l0 20.766197c0 2.867302 -2.3244019 5.191704 -5.1917114 5.191704l-60.104797 0c-2.8673096 0 -5.1917114 -2.3244019 -5.1917114 -5.191704z" fill-rule="evenodd"/><path fill="#000000" d="m554.73334 75.68813l0 -9.859375l1.296875 0l0 8.6875l4.859375 0l0 1.171875l-6.15625 0zm7.6644287 0l0 -9.859375l1.296875 0l0 8.6875l4.859375 0l0 1.171875l-6.15625 0zm7.6644897 0l0 -9.859375l1.96875 0l2.34375 6.984375q0.3125 0.96875 0.46875 1.453125q0.171875 -0.53125 0.515625 -1.578125l2.375 -6.859375l1.75 0l0 9.859375l-1.265625 0l0 -8.25l-2.859375 8.25l-1.171875 0l-2.859375 -8.390625l0 8.390625l-1.265625 0z" fill-rule="nonzero"/><path fill="#000000" d="m429.0545 55.375443l70.48819 0l0 31.149605l-70.48819 0z" fill-rule="evenodd"/><path stroke="#000000" stroke-width="0.7375328083989501" stroke-linejoin="round" stroke-linecap="butt" d="m429.0545 55.375443l70.48819 0l0 31.149605l-70.48819 0z" fill-rule="evenodd"/><path fill="#ffffff" d="m439.6962 75.68813l0 -9.859375l3.40625 0q1.140625 0 1.75 0.140625q0.84375 0.1875 1.453125 0.703125q0.765625 0.65625 1.15625 1.6875q0.390625 1.015625 0.390625 2.34375q0 1.125 -0.265625 2.0q-0.265625 0.859375 -0.671875 1.4375q-0.40625 0.5625 -0.90625 0.890625q-0.484375 0.3125 -1.171875 0.484375q-0.6875 0.171875 -1.578125 0.171875l-3.5625 0zm1.3125 -1.171875l2.09375 0q0.984375 0 1.53125 -0.171875q0.5625 -0.1875 0.890625 -0.515625q0.46875 -0.46875 0.71875 -1.25q0.265625 -0.78125 0.265625 -1.890625q0 -1.546875 -0.515625 -2.375q-0.5 -0.84375 -1.234375 -1.125q-0.515625 -0.203125 -1.6875 -0.203125l-2.0625 0l0 7.53125zm13.374268 -1.125l1.25 0.15625q-0.296875 1.09375 -1.09375 1.703125q-0.796875 0.59375 -2.046875 0.59375q-1.5625 0 -2.484375 -0.953125q-0.921875 -0.96875 -0.921875 -2.71875q0 -1.796875 0.921875 -2.796875q0.9375 -1.0 2.421875 -1.0q1.4375 0 2.34375 0.984375q0.90625 0.96875 0.90625 2.734375q0 0.109375 -0.015625 0.328125l-5.328125 0q0.078125 1.171875 0.671875 1.8125q0.59375 0.625 1.5 0.625q0.65625 0 1.125 -0.34375q0.484375 -0.359375 0.75 -1.125zm-3.96875 -1.96875l3.984375 0q-0.078125 -0.890625 -0.453125 -1.34375q-0.578125 -0.703125 -1.5 -0.703125q-0.84375 0 -1.40625 0.5625q-0.5625 0.5625 -0.625 1.484375zm7.039459 4.265625l0 -6.203125l-1.078125 0l0 -0.9375l1.078125 0l0 -0.765625q0 -0.71875 0.125 -1.078125q0.171875 -0.46875 0.609375 -0.75q0.4375 -0.296875 1.234375 -0.296875q0.515625 0 1.140625 0.125l-0.1875 1.046875q-0.375 -0.0625 -0.71875 -0.0625q-0.546875 0 -0.78125 0.234375q-0.21875 0.234375 -0.21875 0.875l0 0.671875l1.390625 0l0 0.9375l-1.390625 0l0 6.203125l-1.203125 0zm8.422638 -2.296875l1.25 0.15625q-0.296875 1.09375 -1.09375 1.703125q-0.796875 0.59375 -2.046875 0.59375q-1.5625 0 -2.484375 -0.953125q-0.921875 -0.96875 -0.921875 -2.71875q0 -1.796875 0.921875 -2.796875q0.9375 -1.0 2.421875 -1.0q1.4375 0 2.34375 0.984375q0.90625 0.96875 0.90625 2.734375q0 0.109375 -0.015625 0.328125l-5.328125 0q0.078125 1.171875 0.671875 1.8125q0.59375 0.625 1.5 0.625q0.65625 0 1.125 -0.34375q0.484375 -0.359375 0.75 -1.125zm-3.96875 -1.96875l3.984375 0q-0.078125 -0.890625 -0.453125 -1.34375q-0.578125 -0.703125 -1.5 -0.703125q-0.84375 0 -1.40625 0.5625q-0.5625 0.5625 -0.625 1.484375zm6.742584 4.265625l0 -7.140625l1.09375 0l0 1.015625q0.78125 -1.1875 2.265625 -1.1875q0.65625 0 1.1875 0.234375q0.546875 0.234375 0.8125 0.609375q0.28125 0.375 0.375 0.890625q0.078125 0.34375 0.078125 1.1875l0 4.390625l-1.21875 0l0 -4.34375q0 -0.75 -0.140625 -1.109375q-0.140625 -0.375 -0.5 -0.59375q-0.359375 -0.21875 -0.84375 -0.21875q-0.765625 0 -1.328125 0.5q-0.5625 0.484375 -0.5625 1.859375l0 3.90625l-1.21875 0zm12.336365 -2.625l1.1875 0.15625q-0.203125 1.234375 -1.015625 1.9375q-0.796875 0.6875 -1.96875 0.6875q-1.453125 0 -2.359375 -0.953125q-0.890625 -0.953125 -0.890625 -2.75q0 -1.15625 0.390625 -2.015625q0.390625 -0.875 1.171875 -1.3125q0.78125 -0.4375 1.703125 -0.4375q1.15625 0 1.890625 0.59375q0.75 0.59375 0.953125 1.671875l-1.171875 0.1875q-0.171875 -0.71875 -0.59375 -1.078125q-0.421875 -0.375 -1.03125 -0.375q-0.921875 0 -1.5 0.65625q-0.5625 0.65625 -0.5625 2.078125q0 1.4375 0.546875 2.09375q0.5625 0.65625 1.453125 0.65625q0.703125 0 1.171875 -0.4375q0.484375 -0.4375 0.625 -1.359375zm7.109375 0.328125l1.25 0.15625q-0.296875 1.09375 -1.09375 1.703125q-0.796875 0.59375 -2.046875 0.59375q-1.5625 0 -2.484375 -0.953125q-0.921875 -0.96875 -0.921875 -2.71875q0 -1.796875 0.921875 -2.796875q0.9375 -1.0 2.421875 -1.0q1.4375 0 2.34375 0.984375q0.90625 0.96875 0.90625 2.734375q0 0.109375 -0.015625 0.328125l-5.328125 0q0.078125 1.171875 0.671875 1.8125q0.59375 0.625 1.5 0.625q0.65625 0 1.125 -0.34375q0.484375 -0.359375 0.75 -1.125zm-3.96875 -1.96875l3.984375 0q-0.078125 -0.890625 -0.453125 -1.34375q-0.578125 -0.703125 -1.5 -0.703125q-0.84375 0 -1.40625 0.5625q-0.5625 0.5625 -0.625 1.484375z" fill-rule="nonzero"/><path fill="#000000" fill-opacity="0.0" d="m499.5427 70.95025l32.346466 0" fill-rule="evenodd"/><path stroke="#595959" stroke-width="0.7375328083989501" stroke-linejoin="round" stroke-linecap="butt" d="m499.5427 70.95024l27.921234 0" fill-rule="evenodd"/><path fill="#595959" stroke="#595959" stroke-width="0.7375328083989501" stroke-linecap="butt" d="m527.4639 72.16845l3.347046 -1.2182083l-3.347046 -1.2182007z" fill-rule="evenodd"/><path fill="#eeeeee" d="m531.8809 342.9562c0 -2.8673096 2.3244019 -5.1917114 5.1917114 -5.1917114l60.104797 0c1.3768921 0 2.6974487 0.5469971 3.6710815 1.5206299c0.9736328 0.9736328 1.5205688 2.294159 1.5205688 3.6710815l0 20.766205c0 2.8673096 -2.3244019 5.1917114 -5.1916504 5.1917114l-60.104797 0c-2.8673096 0 -5.1917114 -2.3244019 -5.1917114 -5.1917114z" fill-rule="evenodd"/><path stroke="#595959" stroke-width="0.7375328083989501" stroke-linejoin="round" stroke-linecap="butt" d="m531.8809 342.9562c0 -2.8673096 2.3244019 -5.1917114 5.1917114 -5.1917114l60.104797 0c1.3768921 0 2.6974487 0.5469971 3.6710815 1.5206299c0.9736328 0.9736328 1.5205688 2.294159 1.5205688 3.6710815l0 20.766205c0 2.8673096 -2.3244019 5.1917114 -5.1916504 5.1917114l-60.104797 0c-2.8673096 0 -5.1917114 -2.3244019 -5.1917114 -5.1917114z" fill-rule="evenodd"/><path fill="#000000" d="m554.7362 358.0772l0 -9.859375l1.296875 0l0 8.6875l4.859375 0l0 1.171875l-6.15625 0zm7.6644897 0l0 -9.859375l1.296875 0l0 8.6875l4.859375 0l0 1.171875l-6.15625 0zm7.6644897 0l0 -9.859375l1.96875 0l2.34375 6.984375q0.3125 0.96875 0.46875 1.453125q0.171875 -0.53125 0.515625 -1.578125l2.375 -6.859375l1.75 0l0 9.859375l-1.265625 0l0 -8.25l-2.859375 8.25l-1.171875 0l-2.859375 -8.390625l0 8.390625l-1.265625 0z" fill-rule="nonzero"/><path fill="#000000" d="m429.0574 337.7645l70.48819 0l0 31.149628l-70.48819 0z" fill-rule="evenodd"/><path stroke="#000000" stroke-width="0.7375328083989501" stroke-linejoin="round" stroke-linecap="butt" d="m429.0574 337.7645l70.48819 0l0 31.149628l-70.48819 0z" fill-rule="evenodd"/><path fill="#ffffff" d="m439.69913 358.0772l0 -9.859375l3.40625 0q1.140625 0 1.75 0.140625q0.84375 0.1875 1.453125 0.703125q0.765625 0.65625 1.15625 1.6875q0.390625 1.015625 0.390625 2.34375q0 1.125 -0.265625 2.0q-0.265625 0.859375 -0.671875 1.4375q-0.40625 0.5625 -0.90625 0.890625q-0.484375 0.3125 -1.171875 0.484375q-0.6875 0.171875 -1.578125 0.171875l-3.5625 0zm1.3125 -1.171875l2.09375 0q0.984375 0 1.53125 -0.171875q0.5625 -0.1875 0.890625 -0.515625q0.46875 -0.46875 0.71875 -1.25q0.265625 -0.78125 0.265625 -1.890625q0 -1.546875 -0.515625 -2.375q-0.5 -0.84375 -1.234375 -1.125q-0.515625 -0.203125 -1.6875 -0.203125l-2.0625 0l0 7.53125zm13.374237 -1.125l1.25 0.15625q-0.296875 1.09375 -1.09375 1.703125q-0.796875 0.59375 -2.046875 0.59375q-1.5625 0 -2.484375 -0.953125q-0.921875 -0.96875 -0.921875 -2.71875q0 -1.796875 0.921875 -2.796875q0.9375 -1.0 2.421875 -1.0q1.4375 0 2.34375 0.984375q0.90625 0.96875 0.90625 2.734375q0 0.109375 -0.015625 0.328125l-5.328125 0q0.078125 1.171875 0.671875 1.8125q0.59375 0.625 1.5 0.625q0.65625 0 1.125 -0.34375q0.484375 -0.359375 0.75 -1.125zm-3.96875 -1.96875l3.984375 0q-0.078125 -0.890625 -0.453125 -1.34375q-0.578125 -0.703125 -1.5 -0.703125q-0.84375 0 -1.40625 0.5625q-0.5625 0.5625 -0.625 1.484375zm7.0394897 4.265625l0 -6.203125l-1.078125 0l0 -0.9375l1.078125 0l0 -0.765625q0 -0.71875 0.125 -1.078125q0.171875 -0.46875 0.609375 -0.75q0.4375 -0.296875 1.234375 -0.296875q0.515625 0 1.140625 0.125l-0.1875 1.046875q-0.375 -0.0625 -0.71875 -0.0625q-0.546875 0 -0.78125 0.234375q-0.21875 0.234375 -0.21875 0.875l0 0.671875l1.390625 0l0 0.9375l-1.390625 0l0 6.203125l-1.203125 0zm8.422607 -2.296875l1.25 0.15625q-0.296875 1.09375 -1.09375 1.703125q-0.796875 0.59375 -2.046875 0.59375q-1.5625 0 -2.484375 -0.953125q-0.921875 -0.96875 -0.921875 -2.71875q0 -1.796875 0.921875 -2.796875q0.9375 -1.0 2.421875 -1.0q1.4375 0 2.34375 0.984375q0.90625 0.96875 0.90625 2.734375q0 0.109375 -0.015625 0.328125l-5.328125 0q0.078125 1.171875 0.671875 1.8125q0.59375 0.625 1.5 0.625q0.65625 0 1.125 -0.34375q0.484375 -0.359375 0.75 -1.125zm-3.96875 -1.96875l3.984375 0q-0.078125 -0.890625 -0.453125 -1.34375q-0.578125 -0.703125 -1.5 -0.703125q-0.84375 0 -1.40625 0.5625q-0.5625 0.5625 -0.625 1.484375zm6.7426147 4.265625l0 -7.140625l1.09375 0l0 1.015625q0.78125 -1.1875 2.265625 -1.1875q0.65625 0 1.1875 0.234375q0.546875 0.234375 0.8125 0.609375q0.28125 0.375 0.375 0.890625q0.078125 0.34375 0.078125 1.1875l0 4.390625l-1.21875 0l0 -4.34375q0 -0.75 -0.140625 -1.109375q-0.140625 -0.375 -0.5 -0.59375q-0.359375 -0.21875 -0.84375 -0.21875q-0.765625 0 -1.328125 0.5q-0.5625 0.484375 -0.5625 1.859375l0 3.90625l-1.21875 0zm12.336334 -2.625l1.1875 0.15625q-0.203125 1.234375 -1.015625 1.9375q-0.796875 0.6875 -1.96875 0.6875q-1.453125 0 -2.359375 -0.953125q-0.890625 -0.953125 -0.890625 -2.75q0 -1.15625 0.390625 -2.015625q0.390625 -0.875 1.171875 -1.3125q0.78125 -0.4375 1.703125 -0.4375q1.15625 0 1.890625 0.59375q0.75 0.59375 0.953125 1.671875l-1.171875 0.1875q-0.171875 -0.71875 -0.59375 -1.078125q-0.421875 -0.375 -1.03125 -0.375q-0.921875 0 -1.5 0.65625q-0.5625 0.65625 -0.5625 2.078125q0 1.4375 0.546875 2.09375q0.5625 0.65625 1.453125 0.65625q0.703125 0 1.171875 -0.4375q0.484375 -0.4375 0.625 -1.359375zm7.109375 0.328125l1.25 0.15625q-0.296875 1.09375 -1.09375 1.703125q-0.796875 0.59375 -2.046875 0.59375q-1.5625 0 -2.484375 -0.953125q-0.921875 -0.96875 -0.921875 -2.71875q0 -1.796875 0.921875 -2.796875q0.9375 -1.0 2.421875 -1.0q1.4375 0 2.34375 0.984375q0.90625 0.96875 0.90625 2.734375q0 0.109375 -0.015625 0.328125l-5.328125 0q0.078125 1.171875 0.671875 1.8125q0.59375 0.625 1.5 0.625q0.65625 0 1.125 -0.34375q0.484375 -0.359375 0.75 -1.125zm-3.96875 -1.96875l3.984375 0q-0.078125 -0.890625 -0.453125 -1.34375q-0.578125 -0.703125 -1.5 -0.703125q-0.84375 0 -1.40625 0.5625q-0.5625 0.5625 -0.625 1.484375z" fill-rule="nonzero"/><path fill="#000000" fill-opacity="0.0" d="m499.5456 353.33932l32.346436 0" fill-rule="evenodd"/><path stroke="#595959" stroke-width="0.7375328083989501" stroke-linejoin="round" stroke-linecap="butt" d="m499.5456 353.33932l27.921265 0" fill-rule="evenodd"/><path fill="#595959" stroke="#595959" stroke-width="0.7375328083989501" stroke-linecap="butt" d="m527.46686 354.55753l3.3469849 -1.2182007l-3.3469849 -1.2182007z" fill-rule="evenodd"/><path fill="#eeeeee" d="m531.8751 391.11267c0 -2.8673096 2.3244019 -5.1917114 5.1917114 -5.1917114l60.104736 0c1.3769531 0 2.6974487 0.54696655 3.6710815 1.5205994c0.9736328 0.9736328 1.5206299 2.294159 1.5206299 3.671112l0 20.766174c0 2.8673096 -2.3244019 5.1917114 -5.1917114 5.1917114l-60.104736 0c-2.8673096 0 -5.1917114 -2.3244019 -5.1917114 -5.1917114z" fill-rule="evenodd"/><path stroke="#595959" stroke-width="0.7375328083989501" stroke-linejoin="round" stroke-linecap="butt" d="m531.8751 391.11267c0 -2.8673096 2.3244019 -5.1917114 5.1917114 -5.1917114l60.104736 0c1.3769531 0 2.6974487 0.54696655 3.6710815 1.5205994c0.9736328 0.9736328 1.5206299 2.294159 1.5206299 3.671112l0 20.766174c0 2.8673096 -2.3244019 5.1917114 -5.1917114 5.1917114l-60.104736 0c-2.8673096 0 -5.1917114 -2.3244019 -5.1917114 -5.1917114z" fill-rule="evenodd"/><path fill="#000000" d="m554.7304 406.23364l0 -9.859375l1.296875 0l0 8.6875l4.859375 0l0 1.171875l-6.15625 0zm7.6644897 0l0 -9.859375l1.296875 0l0 8.6875l4.859375 0l0 1.171875l-6.15625 0zm7.6644287 0l0 -9.859375l1.96875 0l2.34375 6.984375q0.3125 0.96875 0.46875 1.453125q0.171875 -0.53125 0.515625 -1.578125l2.375 -6.859375l1.75 0l0 9.859375l-1.265625 0l0 -8.25l-2.859375 8.25l-1.171875 0l-2.859375 -8.390625l0 8.390625l-1.265625 0z" fill-rule="nonzero"/><path fill="#000000" d="m429.0516 385.92096l70.48819 0l0 31.149597l-70.48819 0z" fill-rule="evenodd"/><path stroke="#000000" stroke-width="0.7375328083989501" stroke-linejoin="round" stroke-linecap="butt" d="m429.0516 385.92096l70.48819 0l0 31.149597l-70.48819 0z" fill-rule="evenodd"/><path fill="#ffffff" d="m439.6933 406.23364l0 -9.859375l3.40625 0q1.140625 0 1.75 0.140625q0.84375 0.1875 1.453125 0.703125q0.765625 0.65625 1.15625 1.6875q0.390625 1.015625 0.390625 2.34375q0 1.125 -0.265625 2.0q-0.265625 0.859375 -0.671875 1.4375q-0.40625 0.5625 -0.90625 0.890625q-0.484375 0.3125 -1.171875 0.484375q-0.6875 0.171875 -1.578125 0.171875l-3.5625 0zm1.3125 -1.171875l2.09375 0q0.984375 0 1.53125 -0.171875q0.5625 -0.1875 0.890625 -0.515625q0.46875 -0.46875 0.71875 -1.25q0.265625 -0.78125 0.265625 -1.890625q0 -1.546875 -0.515625 -2.375q-0.5 -0.84375 -1.234375 -1.125q-0.515625 -0.203125 -1.6875 -0.203125l-2.0625 0l0 7.53125zm13.374268 -1.125l1.25 0.15625q-0.296875 1.09375 -1.09375 1.703125q-0.796875 0.59375 -2.046875 0.59375q-1.5625 0 -2.484375 -0.953125q-0.921875 -0.96875 -0.921875 -2.71875q0 -1.796875 0.921875 -2.796875q0.9375 -1.0 2.421875 -1.0q1.4375 0 2.34375 0.984375q0.90625 0.96875 0.90625 2.734375q0 0.109375 -0.015625 0.328125l-5.328125 0q0.078125 1.171875 0.671875 1.8125q0.59375 0.625 1.5 0.625q0.65625 0 1.125 -0.34375q0.484375 -0.359375 0.75 -1.125zm-3.96875 -1.96875l3.984375 0q-0.078125 -0.890625 -0.453125 -1.34375q-0.578125 -0.703125 -1.5 -0.703125q-0.84375 0 -1.40625 0.5625q-0.5625 0.5625 -0.625 1.484375zm7.039459 4.265625l0 -6.203125l-1.078125 0l0 -0.9375l1.078125 0l0 -0.765625q0 -0.71875 0.125 -1.078125q0.171875 -0.46875 0.609375 -0.75q0.4375 -0.296875 1.234375 -0.296875q0.515625 0 1.140625 0.125l-0.1875 1.046875q-0.375 -0.0625 -0.71875 -0.0625q-0.546875 0 -0.78125 0.234375q-0.21875 0.234375 -0.21875 0.875l0 0.671875l1.390625 0l0 0.9375l-1.390625 0l0 6.203125l-1.203125 0zm8.422638 -2.296875l1.25 0.15625q-0.296875 1.09375 -1.09375 1.703125q-0.796875 0.59375 -2.046875 0.59375q-1.5625 0 -2.484375 -0.953125q-0.921875 -0.96875 -0.921875 -2.71875q0 -1.796875 0.921875 -2.796875q0.9375 -1.0 2.421875 -1.0q1.4375 0 2.34375 0.984375q0.90625 0.96875 0.90625 2.734375q0 0.109375 -0.015625 0.328125l-5.328125 0q0.078125 1.171875 0.671875 1.8125q0.59375 0.625 1.5 0.625q0.65625 0 1.125 -0.34375q0.484375 -0.359375 0.75 -1.125zm-3.96875 -1.96875l3.984375 0q-0.078125 -0.890625 -0.453125 -1.34375q-0.578125 -0.703125 -1.5 -0.703125q-0.84375 0 -1.40625 0.5625q-0.5625 0.5625 -0.625 1.484375zm6.742584 4.265625l0 -7.140625l1.09375 0l0 1.015625q0.78125 -1.1875 2.265625 -1.1875q0.65625 0 1.1875 0.234375q0.546875 0.234375 0.8125 0.609375q0.28125 0.375 0.375 0.890625q0.078125 0.34375 0.078125 1.1875l0 4.390625l-1.21875 0l0 -4.34375q0 -0.75 -0.140625 -1.109375q-0.140625 -0.375 -0.5 -0.59375q-0.359375 -0.21875 -0.84375 -0.21875q-0.765625 0 -1.328125 0.5q-0.5625 0.484375 -0.5625 1.859375l0 3.90625l-1.21875 0zm12.336365 -2.625l1.1875 0.15625q-0.203125 1.234375 -1.015625 1.9375q-0.796875 0.6875 -1.96875 0.6875q-1.453125 0 -2.359375 -0.953125q-0.890625 -0.953125 -0.890625 -2.75q0 -1.15625 0.390625 -2.015625q0.390625 -0.875 1.171875 -1.3125q0.78125 -0.4375 1.703125 -0.4375q1.15625 0 1.890625 0.59375q0.75 0.59375 0.953125 1.671875l-1.171875 0.1875q-0.171875 -0.71875 -0.59375 -1.078125q-0.421875 -0.375 -1.03125 -0.375q-0.921875 0 -1.5 0.65625q-0.5625 0.65625 -0.5625 2.078125q0 1.4375 0.546875 2.09375q0.5625 0.65625 1.453125 0.65625q0.703125 0 1.171875 -0.4375q0.484375 -0.4375 0.625 -1.359375zm7.109375 0.328125l1.25 0.15625q-0.296875 1.09375 -1.09375 1.703125q-0.796875 0.59375 -2.046875 0.59375q-1.5625 0 -2.484375 -0.953125q-0.921875 -0.96875 -0.921875 -2.71875q0 -1.796875 0.921875 -2.796875q0.9375 -1.0 2.421875 -1.0q1.4375 0 2.34375 0.984375q0.90625 0.96875 0.90625 2.734375q0 0.109375 -0.015625 0.328125l-5.328125 0q0.078125 1.171875 0.671875 1.8125q0.59375 0.625 1.5 0.625q0.65625 0 1.125 -0.34375q0.484375 -0.359375 0.75 -1.125zm-3.96875 -1.96875l3.984375 0q-0.078125 -0.890625 -0.453125 -1.34375q-0.578125 -0.703125 -1.5 -0.703125q-0.84375 0 -1.40625 0.5625q-0.5625 0.5625 -0.625 1.484375z" fill-rule="nonzero"/><path fill="#000000" fill-opacity="0.0" d="m499.5398 401.49576l32.346436 0" fill-rule="evenodd"/><path stroke="#595959" stroke-width="0.7375328083989501" stroke-linejoin="round" stroke-linecap="butt" d="m499.5398 401.49573l27.921265 0" fill-rule="evenodd"/><path fill="#595959" stroke="#595959" stroke-width="0.7375328083989501" stroke-linecap="butt" d="m527.46106 402.71393l3.3469849 -1.2182007l-3.3469849 -1.2182007z" fill-rule="evenodd"/><path fill="#eeeeee" d="m531.8809 439.2691c0 -2.8673096 2.3244019 -5.1917114 5.1917114 -5.1917114l60.104797 0c1.3768921 0 2.6974487 0.5469971 3.6710815 1.5206299c0.9736328 0.9736328 1.5205688 2.294159 1.5205688 3.6710815l0 20.766205c0 2.867279 -2.3244019 5.191681 -5.1916504 5.191681l-60.104797 0c-2.8673096 0 -5.1917114 -2.3244019 -5.1917114 -5.191681z" fill-rule="evenodd"/><path stroke="#595959" stroke-width="0.7375328083989501" stroke-linejoin="round" stroke-linecap="butt" d="m531.8809 439.2691c0 -2.8673096 2.3244019 -5.1917114 5.1917114 -5.1917114l60.104797 0c1.3768921 0 2.6974487 0.5469971 3.6710815 1.5206299c0.9736328 0.9736328 1.5205688 2.294159 1.5205688 3.6710815l0 20.766205c0 2.867279 -2.3244019 5.191681 -5.1916504 5.191681l-60.104797 0c-2.8673096 0 -5.1917114 -2.3244019 -5.1917114 -5.191681z" fill-rule="evenodd"/><path fill="#000000" d="m554.7362 454.39008l0 -9.859375l1.296875 0l0 8.6875l4.859375 0l0 1.171875l-6.15625 0zm7.6644897 0l0 -9.859375l1.296875 0l0 8.6875l4.859375 0l0 1.171875l-6.15625 0zm7.6644897 0l0 -9.859375l1.96875 0l2.34375 6.984375q0.3125 0.96875 0.46875 1.453125q0.171875 -0.53125 0.515625 -1.578125l2.375 -6.859375l1.75 0l0 9.859375l-1.265625 0l0 -8.25l-2.859375 8.25l-1.171875 0l-2.859375 -8.390625l0 8.390625l-1.265625 0z" fill-rule="nonzero"/><path fill="#000000" d="m429.0574 434.0774l70.48819 0l0 31.149597l-70.48819 0z" fill-rule="evenodd"/><path stroke="#000000" stroke-width="0.7375328083989501" stroke-linejoin="round" stroke-linecap="butt" d="m429.0574 434.0774l70.48819 0l0 31.149597l-70.48819 0z" fill-rule="evenodd"/><path fill="#ffffff" d="m439.69913 454.39008l0 -9.859375l3.40625 0q1.140625 0 1.75 0.140625q0.84375 0.1875 1.453125 0.703125q0.765625 0.65625 1.15625 1.6875q0.390625 1.015625 0.390625 2.34375q0 1.125 -0.265625 2.0q-0.265625 0.859375 -0.671875 1.4375q-0.40625 0.5625 -0.90625 0.890625q-0.484375 0.3125 -1.171875 0.484375q-0.6875 0.171875 -1.578125 0.171875l-3.5625 0zm1.3125 -1.171875l2.09375 0q0.984375 0 1.53125 -0.171875q0.5625 -0.1875 0.890625 -0.515625q0.46875 -0.46875 0.71875 -1.25q0.265625 -0.78125 0.265625 -1.890625q0 -1.546875 -0.515625 -2.375q-0.5 -0.84375 -1.234375 -1.125q-0.515625 -0.203125 -1.6875 -0.203125l-2.0625 0l0 7.53125zm13.374237 -1.125l1.25 0.15625q-0.296875 1.09375 -1.09375 1.703125q-0.796875 0.59375 -2.046875 0.59375q-1.5625 0 -2.484375 -0.953125q-0.921875 -0.96875 -0.921875 -2.71875q0 -1.796875 0.921875 -2.796875q0.9375 -1.0 2.421875 -1.0q1.4375 0 2.34375 0.984375q0.90625 0.96875 0.90625 2.734375q0 0.109375 -0.015625 0.328125l-5.328125 0q0.078125 1.171875 0.671875 1.8125q0.59375 0.625 1.5 0.625q0.65625 0 1.125 -0.34375q0.484375 -0.359375 0.75 -1.125zm-3.96875 -1.96875l3.984375 0q-0.078125 -0.890625 -0.453125 -1.34375q-0.578125 -0.703125 -1.5 -0.703125q-0.84375 0 -1.40625 0.5625q-0.5625 0.5625 -0.625 1.484375zm7.0394897 4.265625l0 -6.203125l-1.078125 0l0 -0.9375l1.078125 0l0 -0.765625q0 -0.71875 0.125 -1.078125q0.171875 -0.46875 0.609375 -0.75q0.4375 -0.296875 1.234375 -0.296875q0.515625 0 1.140625 0.125l-0.1875 1.046875q-0.375 -0.0625 -0.71875 -0.0625q-0.546875 0 -0.78125 0.234375q-0.21875 0.234375 -0.21875 0.875l0 0.671875l1.390625 0l0 0.9375l-1.390625 0l0 6.203125l-1.203125 0zm8.422607 -2.296875l1.25 0.15625q-0.296875 1.09375 -1.09375 1.703125q-0.796875 0.59375 -2.046875 0.59375q-1.5625 0 -2.484375 -0.953125q-0.921875 -0.96875 -0.921875 -2.71875q0 -1.796875 0.921875 -2.796875q0.9375 -1.0 2.421875 -1.0q1.4375 0 2.34375 0.984375q0.90625 0.96875 0.90625 2.734375q0 0.109375 -0.015625 0.328125l-5.328125 0q0.078125 1.171875 0.671875 1.8125q0.59375 0.625 1.5 0.625q0.65625 0 1.125 -0.34375q0.484375 -0.359375 0.75 -1.125zm-3.96875 -1.96875l3.984375 0q-0.078125 -0.890625 -0.453125 -1.34375q-0.578125 -0.703125 -1.5 -0.703125q-0.84375 0 -1.40625 0.5625q-0.5625 0.5625 -0.625 1.484375zm6.7426147 4.265625l0 -7.140625l1.09375 0l0 1.015625q0.78125 -1.1875 2.265625 -1.1875q0.65625 0 1.1875 0.234375q0.546875 0.234375 0.8125 0.609375q0.28125 0.375 0.375 0.890625q0.078125 0.34375 0.078125 1.1875l0 4.390625l-1.21875 0l0 -4.34375q0 -0.75 -0.140625 -1.109375q-0.140625 -0.375 -0.5 -0.59375q-0.359375 -0.21875 -0.84375 -0.21875q-0.765625 0 -1.328125 0.5q-0.5625 0.484375 -0.5625 1.859375l0 3.90625l-1.21875 0zm12.336334 -2.625l1.1875 0.15625q-0.203125 1.234375 -1.015625 1.9375q-0.796875 0.6875 -1.96875 0.6875q-1.453125 0 -2.359375 -0.953125q-0.890625 -0.953125 -0.890625 -2.75q0 -1.15625 0.390625 -2.015625q0.390625 -0.875 1.171875 -1.3125q0.78125 -0.4375 1.703125 -0.4375q1.15625 0 1.890625 0.59375q0.75 0.59375 0.953125 1.671875l-1.171875 0.1875q-0.171875 -0.71875 -0.59375 -1.078125q-0.421875 -0.375 -1.03125 -0.375q-0.921875 0 -1.5 0.65625q-0.5625 0.65625 -0.5625 2.078125q0 1.4375 0.546875 2.09375q0.5625 0.65625 1.453125 0.65625q0.703125 0 1.171875 -0.4375q0.484375 -0.4375 0.625 -1.359375zm7.109375 0.328125l1.25 0.15625q-0.296875 1.09375 -1.09375 1.703125q-0.796875 0.59375 -2.046875 0.59375q-1.5625 0 -2.484375 -0.953125q-0.921875 -0.96875 -0.921875 -2.71875q0 -1.796875 0.921875 -2.796875q0.9375 -1.0 2.421875 -1.0q1.4375 0 2.34375 0.984375q0.90625 0.96875 0.90625 2.734375q0 0.109375 -0.015625 0.328125l-5.328125 0q0.078125 1.171875 0.671875 1.8125q0.59375 0.625 1.5 0.625q0.65625 0 1.125 -0.34375q0.484375 -0.359375 0.75 -1.125zm-3.96875 -1.96875l3.984375 0q-0.078125 -0.890625 -0.453125 -1.34375q-0.578125 -0.703125 -1.5 -0.703125q-0.84375 0 -1.40625 0.5625q-0.5625 0.5625 -0.625 1.484375z" fill-rule="nonzero"/><path fill="#000000" fill-opacity="0.0" d="m499.5456 449.6522l32.346436 0" fill-rule="evenodd"/><path stroke="#595959" stroke-width="0.7375328083989501" stroke-linejoin="round" stroke-linecap="butt" d="m499.5456 449.6522l27.921265 0" fill-rule="evenodd"/><path fill="#595959" stroke="#595959" stroke-width="0.7375328083989501" stroke-linecap="butt" d="m527.46686 450.8704l3.3469849 -1.2182007l-3.3469849 -1.2182007z" fill-rule="evenodd"/><path fill="#000000" fill-opacity="0.0" d="m602.3662 70.95025l32.346436 0" fill-rule="evenodd"/><path stroke="#595959" stroke-width="0.7375328083989501" stroke-linejoin="round" stroke-linecap="butt" d="m602.3662 70.95024l27.921204 0" fill-rule="evenodd"/><path fill="#595959" stroke="#595959" stroke-width="0.7375328083989501" stroke-linecap="butt" d="m630.2874 72.16845l3.347046 -1.2182083l-3.347046 -1.2182007z" fill-rule="evenodd"/><path fill="#000000" fill-opacity="0.0" d="m602.3662 70.95025l32.346436 -15.559059" fill-rule="evenodd"/><path stroke="#595959" stroke-width="0.7375328083989501" stroke-linejoin="round" stroke-linecap="butt" d="m602.3662 70.95024l28.358582 -13.640854" fill-rule="evenodd"/><path fill="#595959" stroke="#595959" stroke-width="0.7375328083989501" stroke-linecap="butt" d="m631.25287 58.407196l2.4881592 -2.5486374l-3.5443115 0.35302353z" fill-rule="evenodd"/><path fill="#000000" fill-opacity="0.0" d="m602.3662 70.95025l32.346436 15.590546" fill-rule="evenodd"/><path stroke="#595959" stroke-width="0.7375328083989501" stroke-linejoin="round" stroke-linecap="butt" d="m602.3662 70.95024l28.360107 13.669205" fill-rule="evenodd"/><path fill="#595959" stroke="#595959" stroke-width="0.7375328083989501" stroke-linecap="butt" d="m630.1974 85.716835l3.5440063 0.3558197l-2.486145 -2.5506058z" fill-rule="evenodd"/><path fill="#000000" fill-opacity="0.0" d="m602.3846 115.81639l32.346436 0" fill-rule="evenodd"/><path stroke="#595959" stroke-width="0.7375328083989501" stroke-linejoin="round" stroke-linecap="butt" d="m602.3846 115.81638l27.921204 0" fill-rule="evenodd"/><path fill="#595959" stroke="#595959" stroke-width="0.7375328083989501" stroke-linecap="butt" d="m630.3058 117.03459l3.347046 -1.2182083l-3.347046 -1.2182007z" fill-rule="evenodd"/><path fill="#000000" fill-opacity="0.0" d="m602.3846 115.81639l32.346436 -15.559059" fill-rule="evenodd"/><path stroke="#595959" stroke-width="0.7375328083989501" stroke-linejoin="round" stroke-linecap="butt" d="m602.3846 115.81638l28.358582 -13.640846" fill-rule="evenodd"/><path fill="#595959" stroke="#595959" stroke-width="0.7375328083989501" stroke-linecap="butt" d="m631.27124 103.27334l2.4881592 -2.5486374l-3.5443115 0.35302734z" fill-rule="evenodd"/><path fill="#000000" fill-opacity="0.0" d="m602.3846 115.81639l32.346436 15.590546" fill-rule="evenodd"/><path stroke="#595959" stroke-width="0.7375328083989501" stroke-linejoin="round" stroke-linecap="butt" d="m602.3846 115.81638l28.360107 13.669197" fill-rule="evenodd"/><path fill="#595959" stroke="#595959" stroke-width="0.7375328083989501" stroke-linecap="butt" d="m630.21576 130.58298l3.5440063 0.3558197l-2.486145 -2.5505981z" fill-rule="evenodd"/><path fill="#000000" fill-opacity="0.0" d="m602.36884 160.65103l32.346436 0" fill-rule="evenodd"/><path stroke="#595959" stroke-width="0.7375328083989501" stroke-linejoin="round" stroke-linecap="butt" d="m602.36884 160.65103l27.921204 0" fill-rule="evenodd"/><path fill="#595959" stroke="#595959" stroke-width="0.7375328083989501" stroke-linecap="butt" d="m630.29004 161.86923l3.347046 -1.2182007l-3.347046 -1.2182007z" fill-rule="evenodd"/><path fill="#000000" fill-opacity="0.0" d="m602.36884 160.65103l32.346436 -15.5590515" fill-rule="evenodd"/><path stroke="#595959" stroke-width="0.7375328083989501" stroke-linejoin="round" stroke-linecap="butt" d="m602.36884 160.65103l28.358582 -13.640854" fill-rule="evenodd"/><path fill="#595959" stroke="#595959" stroke-width="0.7375328083989501" stroke-linecap="butt" d="m631.2555 148.10799l2.4881592 -2.548645l-3.5443115 0.35302734z" fill-rule="evenodd"/><path fill="#000000" fill-opacity="0.0" d="m602.36884 160.65103l32.346436 15.590546" fill-rule="evenodd"/><path stroke="#595959" stroke-width="0.7375328083989501" stroke-linejoin="round" stroke-linecap="butt" d="m602.36884 160.65103l28.360107 13.669205" fill-rule="evenodd"/><path fill="#595959" stroke="#595959" stroke-width="0.7375328083989501" stroke-linecap="butt" d="m630.2 175.41763l3.5440063 0.3558197l-2.486145 -2.5505981z" fill-rule="evenodd"/><path fill="#000000" fill-opacity="0.0" d="m602.3951 208.85576l32.346436 0" fill-rule="evenodd"/><path stroke="#595959" stroke-width="0.7375328083989501" stroke-linejoin="round" stroke-linecap="butt" d="m602.3951 208.85576l27.921204 0" fill-rule="evenodd"/><path fill="#595959" stroke="#595959" stroke-width="0.7375328083989501" stroke-linecap="butt" d="m630.3163 210.07397l3.347046 -1.218216l-3.347046 -1.2182007z" fill-rule="evenodd"/><path fill="#000000" fill-opacity="0.0" d="m602.3951 208.85576l32.346436 -15.5590515" fill-rule="evenodd"/><path stroke="#595959" stroke-width="0.7375328083989501" stroke-linejoin="round" stroke-linecap="butt" d="m602.3951 208.85576l28.358582 -13.640839" fill-rule="evenodd"/><path fill="#595959" stroke="#595959" stroke-width="0.7375328083989501" stroke-linecap="butt" d="m631.28174 196.31271l2.4881592 -2.5486298l-3.5443115 0.35302734z" fill-rule="evenodd"/><path fill="#000000" fill-opacity="0.0" d="m602.3951 208.85576l32.346436 15.590546" fill-rule="evenodd"/><path stroke="#595959" stroke-width="0.7375328083989501" stroke-linejoin="round" stroke-linecap="butt" d="m602.3951 208.85576l28.360107 13.669189" fill-rule="evenodd"/><path fill="#595959" stroke="#595959" stroke-width="0.7375328083989501" stroke-linecap="butt" d="m630.22626 223.62236l3.5440063 0.3558197l-2.486145 -2.5505981z" fill-rule="evenodd"/><path fill="#000000" fill-opacity="0.0" d="m602.3846 257.029l32.346436 0" fill-rule="evenodd"/><path stroke="#595959" stroke-width="0.7375328083989501" stroke-linejoin="round" stroke-linecap="butt" d="m602.3846 257.029l27.921204 0" fill-rule="evenodd"/><path fill="#595959" stroke="#595959" stroke-width="0.7375328083989501" stroke-linecap="butt" d="m630.3058 258.2472l3.347046 -1.2182007l-3.347046 -1.2182007z" fill-rule="evenodd"/><path fill="#000000" fill-opacity="0.0" d="m602.3846 257.029l32.346436 -15.559067" fill-rule="evenodd"/><path stroke="#595959" stroke-width="0.7375328083989501" stroke-linejoin="round" stroke-linecap="butt" d="m602.3846 257.029l28.358582 -13.640854" fill-rule="evenodd"/><path fill="#595959" stroke="#595959" stroke-width="0.7375328083989501" stroke-linecap="butt" d="m631.27124 244.48595l2.4881592 -2.5486298l-3.5443115 0.35301208z" fill-rule="evenodd"/><path fill="#000000" fill-opacity="0.0" d="m602.3846 257.029l32.346436 15.590546" fill-rule="evenodd"/><path stroke="#595959" stroke-width="0.7375328083989501" stroke-linejoin="round" stroke-linecap="butt" d="m602.3846 257.029l28.360107 13.669189" fill-rule="evenodd"/><path fill="#595959" stroke="#595959" stroke-width="0.7375328083989501" stroke-linecap="butt" d="m630.21576 271.7956l3.5440063 0.35580444l-2.486145 -2.5505981z" fill-rule="evenodd"/><path fill="#000000" fill-opacity="0.0" d="m602.38983 305.17072l32.346436 0" fill-rule="evenodd"/><path stroke="#595959" stroke-width="0.7375328083989501" stroke-linejoin="round" stroke-linecap="butt" d="m602.38983 305.17072l27.921204 0" fill-rule="evenodd"/><path fill="#595959" stroke="#595959" stroke-width="0.7375328083989501" stroke-linecap="butt" d="m630.31104 306.38895l3.347046 -1.2182312l-3.347046 -1.2182007z" fill-rule="evenodd"/><path fill="#000000" fill-opacity="0.0" d="m602.38983 305.17072l32.346436 -15.5590515" fill-rule="evenodd"/><path stroke="#595959" stroke-width="0.7375328083989501" stroke-linejoin="round" stroke-linecap="butt" d="m602.38983 305.17072l28.358582 -13.640839" fill-rule="evenodd"/><path fill="#595959" stroke="#595959" stroke-width="0.7375328083989501" stroke-linecap="butt" d="m631.2765 292.6277l2.4881592 -2.548645l-3.5443115 0.35302734z" fill-rule="evenodd"/><path fill="#000000" fill-opacity="0.0" d="m602.38983 305.17072l32.346436 15.590546" fill-rule="evenodd"/><path stroke="#595959" stroke-width="0.7375328083989501" stroke-linejoin="round" stroke-linecap="butt" d="m602.38983 305.17072l28.360107 13.669189" fill-rule="evenodd"/><path fill="#595959" stroke="#595959" stroke-width="0.7375328083989501" stroke-linecap="butt" d="m630.221 319.93732l3.5440063 0.35583496l-2.486145 -2.5506287z" fill-rule="evenodd"/><path fill="#000000" fill-opacity="0.0" d="m602.38983 353.28094l32.346436 0" fill-rule="evenodd"/><path stroke="#595959" stroke-width="0.7375328083989501" stroke-linejoin="round" stroke-linecap="butt" d="m602.38983 353.28098l27.921204 0" fill-rule="evenodd"/><path fill="#595959" stroke="#595959" stroke-width="0.7375328083989501" stroke-linecap="butt" d="m630.31104 354.49918l3.347046 -1.2182007l-3.347046 -1.2182312z" fill-rule="evenodd"/><path fill="#000000" fill-opacity="0.0" d="m602.38983 353.28094l32.346436 -15.5590515" fill-rule="evenodd"/><path stroke="#595959" stroke-width="0.7375328083989501" stroke-linejoin="round" stroke-linecap="butt" d="m602.38983 353.28098l28.358582 -13.640869" fill-rule="evenodd"/><path fill="#595959" stroke="#595959" stroke-width="0.7375328083989501" stroke-linecap="butt" d="m631.2765 340.7379l2.4881592 -2.548645l-3.5443115 0.35302734z" fill-rule="evenodd"/><path fill="#000000" fill-opacity="0.0" d="m602.38983 353.28094l32.346436 15.590576" fill-rule="evenodd"/><path stroke="#595959" stroke-width="0.7375328083989501" stroke-linejoin="round" stroke-linecap="butt" d="m602.38983 353.28098l28.360107 13.669189" fill-rule="evenodd"/><path fill="#595959" stroke="#595959" stroke-width="0.7375328083989501" stroke-linecap="butt" d="m630.221 368.04755l3.5440063 0.35583496l-2.486145 -2.5505981z" fill-rule="evenodd"/><path fill="#000000" fill-opacity="0.0" d="m602.3741 401.35968l32.346436 0" fill-rule="evenodd"/><path stroke="#595959" stroke-width="0.7375328083989501" stroke-linejoin="round" stroke-linecap="butt" d="m602.3741 401.3597l27.921204 0" fill-rule="evenodd"/><path fill="#595959" stroke="#595959" stroke-width="0.7375328083989501" stroke-linecap="butt" d="m630.2953 402.5779l3.347046 -1.2182007l-3.347046 -1.2182007z" fill-rule="evenodd"/><path fill="#000000" fill-opacity="0.0" d="m602.3741 401.35968l32.346436 -15.5590515" fill-rule="evenodd"/><path stroke="#595959" stroke-width="0.7375328083989501" stroke-linejoin="round" stroke-linecap="butt" d="m602.3741 401.3597l28.358582 -13.640869" fill-rule="evenodd"/><path fill="#595959" stroke="#595959" stroke-width="0.7375328083989501" stroke-linecap="butt" d="m631.26074 388.81665l2.4881592 -2.548645l-3.5443115 0.35302734z" fill-rule="evenodd"/><path fill="#000000" fill-opacity="0.0" d="m602.3741 401.35968l32.346436 15.590576" fill-rule="evenodd"/><path stroke="#595959" stroke-width="0.7375328083989501" stroke-linejoin="round" stroke-linecap="butt" d="m602.3741 401.3597l28.360107 13.669189" fill-rule="evenodd"/><path fill="#595959" stroke="#595959" stroke-width="0.7375328083989501" stroke-linecap="butt" d="m630.20526 416.12628l3.5440063 0.35583496l-2.486145 -2.5505981z" fill-rule="evenodd"/><path fill="#000000" fill-opacity="0.0" d="m602.38983 449.40695l32.346436 0" fill-rule="evenodd"/><path stroke="#595959" stroke-width="0.7375328083989501" stroke-linejoin="round" stroke-linecap="butt" d="m602.38983 449.40695l27.921204 0" fill-rule="evenodd"/><path fill="#595959" stroke="#595959" stroke-width="0.7375328083989501" stroke-linecap="butt" d="m630.31104 450.62515l3.347046 -1.2182007l-3.347046 -1.2182007z" fill-rule="evenodd"/><path fill="#000000" fill-opacity="0.0" d="m602.38983 449.40695l32.346436 -15.559082" fill-rule="evenodd"/><path stroke="#595959" stroke-width="0.7375328083989501" stroke-linejoin="round" stroke-linecap="butt" d="m602.38983 449.40695l28.358582 -13.640869" fill-rule="evenodd"/><path fill="#595959" stroke="#595959" stroke-width="0.7375328083989501" stroke-linecap="butt" d="m631.2765 436.8639l2.4881592 -2.5486145l-3.5443115 0.35299683z" fill-rule="evenodd"/><path fill="#000000" fill-opacity="0.0" d="m602.38983 449.40695l32.346436 15.590546" fill-rule="evenodd"/><path stroke="#595959" stroke-width="0.7375328083989501" stroke-linejoin="round" stroke-linecap="butt" d="m602.38983 449.40695l28.360107 13.669189" fill-rule="evenodd"/><path fill="#595959" stroke="#595959" stroke-width="0.7375328083989501" stroke-linecap="butt" d="m630.221 464.17352l3.5440063 0.35583496l-2.486145 -2.5505981z" fill-rule="evenodd"/><path fill="#000000" fill-opacity="0.0" d="m634.7034 39.698162l51.055115 0l0 48.47244l-51.055115 0z" fill-rule="evenodd"/><path fill="#595959" d="m646.5003 71.73817l0 -2.40625l2.40625 0l0 2.40625l-2.40625 0zm8.015625 0l0 -2.40625l2.390625 0l0 2.40625l-2.390625 0zm7.984375 0l0 -2.40625l2.421875 0l0 2.40625l-2.421875 0z" fill-rule="nonzero"/><path fill="#000000" fill-opacity="0.0" d="m634.7034 83.784775l51.055115 0l0 48.472443l-51.055115 0z" fill-rule="evenodd"/><path fill="#595959" d="m646.5003 115.824776l0 -2.40625l2.40625 0l0 2.40625l-2.40625 0zm8.015625 0l0 -2.40625l2.390625 0l0 2.40625l-2.390625 0zm7.984375 0l0 -2.40625l2.421875 0l0 2.40625l-2.421875 0z" fill-rule="nonzero"/><path fill="#000000" fill-opacity="0.0" d="m634.7034 130.3202l51.055115 0l0 48.472443l-51.055115 0z" fill-rule="evenodd"/><path fill="#595959" d="m646.5003 162.36021l0 -2.40625l2.40625 0l0 2.40625l-2.40625 0zm8.015625 0l0 -2.40625l2.390625 0l0 2.40625l-2.390625 0zm7.984375 0l0 -2.40625l2.421875 0l0 2.40625l-2.421875 0z" fill-rule="nonzero"/><path fill="#000000" fill-opacity="0.0" d="m634.70605 176.82414l51.055115 0l0 48.472443l-51.055115 0z" fill-rule="evenodd"/><path fill="#595959" d="m646.5029 208.86415l0 -2.40625l2.40625 0l0 2.40625l-2.40625 0zm8.015625 0l0 -2.40625l2.390625 0l0 2.40625l-2.390625 0zm7.984375 0l0 -2.40625l2.421875 0l0 2.40625l-2.421875 0z" fill-rule="nonzero"/><path fill="#000000" fill-opacity="0.0" d="m634.7008 224.99738l51.055115 0l0 48.472443l-51.055115 0z" fill-rule="evenodd"/><path fill="#595959" d="m646.4977 257.03738l0 -2.4062653l2.40625 0l0 2.4062653l-2.40625 0zm8.015625 0l0 -2.4062653l2.390625 0l0 2.4062653l-2.390625 0zm7.984375 0l0 -2.4062653l2.421875 0l0 2.4062653l-2.421875 0z" fill-rule="nonzero"/><path fill="#000000" fill-opacity="0.0" d="m634.70605 273.1391l51.055115 0l0 48.472443l-51.055115 0z" fill-rule="evenodd"/><path fill="#595959" d="m646.5029 305.1791l0 -2.40625l2.40625 0l0 2.40625l-2.40625 0zm8.015625 0l0 -2.40625l2.390625 0l0 2.40625l-2.390625 0zm7.984375 0l0 -2.40625l2.421875 0l0 2.40625l-2.421875 0z" fill-rule="nonzero"/><path fill="#000000" fill-opacity="0.0" d="m634.70605 321.24933l51.055115 0l0 48.472443l-51.055115 0z" fill-rule="evenodd"/><path fill="#595959" d="m646.5029 353.28934l0 -2.40625l2.40625 0l0 2.40625l-2.40625 0zm8.015625 0l0 -2.40625l2.390625 0l0 2.40625l-2.390625 0zm7.984375 0l0 -2.40625l2.421875 0l0 2.40625l-2.421875 0z" fill-rule="nonzero"/><path fill="#000000" fill-opacity="0.0" d="m634.70605 369.3281l51.055115 0l0 48.472443l-51.055115 0z" fill-rule="evenodd"/><path fill="#595959" d="m646.5029 401.36807l0 -2.40625l2.40625 0l0 2.40625l-2.40625 0zm8.015625 0l0 -2.40625l2.390625 0l0 2.40625l-2.390625 0zm7.984375 0l0 -2.40625l2.421875 0l0 2.40625l-2.421875 0z" fill-rule="nonzero"/><path fill="#000000" fill-opacity="0.0" d="m634.70605 418.25723l51.055115 0l0 48.472412l-51.055115 0z" fill-rule="evenodd"/><path fill="#595959" d="m646.5029 450.2972l0 -2.40625l2.40625 0l0 2.40625l-2.40625 0zm8.015625 0l0 -2.40625l2.390625 0l0 2.40625l-2.390625 0zm7.984375 0l0 -2.40625l2.421875 0l0 2.40625l-2.421875 0z" fill-rule="nonzero"/></g></svg>