<?xml version="1.0" encoding="UTF-8" standalone="no"?>
<svg
   version="1.1"
   viewBox="0 0 750 200"
   fill="none"
   stroke="none"
   stroke-linecap="square"
   stroke-miterlimit="10"
   id="svg78"
   sodipodi:docname="SLED__.svg"
   width="750"
   height="200"
   inkscape:version="1.4.3 (0d15f75, 2025-12-25)"
   xmlns:inkscape="http://www.inkscape.org/namespaces/inkscape"
   xmlns:sodipodi="http://sodipodi.sourceforge.net/DTD/sodipodi-0.dtd"
   xmlns="http://www.w3.org/2000/svg"
   xmlns:svg="http://www.w3.org/2000/svg">
  <defs
     id="defs78" />
  <sodipodi:namedview
     id="namedview78"
     pagecolor="#ffffff"
     bordercolor="#000000"
     borderopacity="0.25"
     inkscape:showpageshadow="2"
     inkscape:pageopacity="0.0"
     inkscape:pagecheckerboard="false"
     inkscape:deskcolor="#d1d1d1"
     inkscape:zoom="1.6826522"
     inkscape:cx="580.63097"
     inkscape:cy="366.98017"
     inkscape:window-width="2560"
     inkscape:window-height="1566"
     inkscape:window-x="-11"
     inkscape:window-y="-11"
     inkscape:window-maximized="1"
     inkscape:current-layer="svg78" />
  <clipPath
     id="g3e2bc892ae2_0_102.0">
    <path
       d="M 0,0 H 960 V 540 H 0 Z"
       clip-rule="nonzero"
       id="path1" />
  </clipPath>
  <g
     clip-path="url(#g3e2bc892ae2_0_102.0)"
     id="g78"
     transform="translate(-76.664682,-159.27236)">
    <path
       id="path2"
       d="m 0,0 v 540 h 116.25781 c 0.75923,-4.22094 1.63308,-8.42177 2.57617,-12.60742 -5.54049,-9.34666 -11.9409,-18.14437 -18.851558,-26.52539 -4.176238,-5.06481 -7.011251,-8.11148 -11.378906,-12.96485 -3.754184,-4.066 -7.563168,-8.07779 -11.394532,-12.07031 0.657602,2.25675 1.332663,4.50822 2.027344,6.75391 1.787076,5.77707 3.676407,11.11309 5.644531,16.82031 l 3.113282,8.04297 c 2.123836,5.48654 -3.421698,7.63206 -5.542969,2.14453 l -3.1875,-8.25 c -2.024238,-5.87167 -3.890517,-11.13544 -5.730469,-17.08594 -1.784406,-5.77085 -3.445532,-11.57946 -4.994141,-17.41797 -3.324825,-3.44369 -6.644591,-6.89088 -9.939453,-10.36328 -4.700772,-5.41398 -10.181924,-10.42885 -13.529297,-16.8789 -0.715291,-1.3783 -1.440872,-2.78688 -1.794921,-4.29883 -0.389126,-1.66174 -0.270764,-3.40221 -0.40625,-5.10352 0.951518,-2.1259 1.447181,-4.52375 2.855468,-6.3789 2.784637,-3.66823 7.348997,-6.98391 11.708985,-9.60157 -0.187064,-1.184 -0.382877,-2.45111 -0.591797,-3.82226 -3.331018,-21.86164 -5.311075,-43.90558 -6.601563,-65.97461 -0.295499,-5.60673 -0.626222,-11.21184 -0.886718,-16.82031 -0.985408,-21.21582 -1.247284,-42.47364 -2.990235,-63.64844 -0.707194,-6.43768 -0.697424,-7.0051 -1.609375,-13.05469 -0.81197,-5.38635 -1.886966,-10.75228 -2.140625,-16.20703 -0.01853,-1.08009 -0.07062,-2.16007 -0.05664,-3.24023 0.07542,-5.82587 1.05731,-11.59337 2.134765,-17.30274 2.169338,-10.27564 4.905205,-20.41628 7.591797,-30.56641 3.652946,-13.67815 7.496545,-27.34867 13.001953,-40.41992 3.420926,-7.72889 6.646113,-15.33002 13.810547,-20.37109 1.079689,-0.75969 2.27262,-1.34624 3.408203,-2.01953 1.227044,-0.43158 2.419303,-0.97347 3.679688,-1.29492 1.194445,-0.30464 2.429115,-0.44042 3.654297,-0.57618 6.288096,-0.6968 12.622239,-0.1352 18.841799,0.87696 14.84927,2.51064 29.52653,5.9067 44.33008,8.66601 6.32889,1.1534 11.71168,2.19084 18.07421,3.12891 12.42381,1.83171 24.97944,2.92254 37.54688,2.5293 3.33403,-0.20887 6.67656,-0.32997 10.00391,-0.62696 21.74946,-1.94129 43.03046,-7.10944 64.13085,-12.51172 5.6251,-1.53045 11.26201,-3.01764 16.875,-4.59179 33.17194,-9.30298 65.95266,-19.937694 98.84376,-30.169924 20.46573,-6.38995 40.96115,-12.69014 61.39257,-19.189454 10.25269,-3.261418 24.26308,-7.764611 34.56446,-11.28125 4.53038,-1.546557 9.02865,-3.1865 13.54297,-4.779296 2.99325,-1.148099 5.99894,-2.260182 8.97851,-3.44336 8.07042,-3.204737 15.94656,-6.855103 23.72852,-10.701172 8.15306,-4.216373 15.98417,-9.004748 24.09179,-13.30664 C 580.17826,15.553584 596.0319,8.6533516 612.69727,3.7929688 619.05388,2.0475026 622.58982,1.0105911 626.66797,0 Z m 658.98633,0 c -6.81107,0.94388171 -13.59445,2.0897808 -20.33985,3.4472656 -11.13544,2.2409648 -13.67364,3.1316365 -24.375,6.0761719 -16.24513,4.7456595 -31.75509,11.5041935 -46.76367,19.2539065 -8.09957,4.312684 -15.93587,9.084514 -24.08593,13.302734 -7.93092,3.923219 -15.95806,7.645499 -24.1836,10.914063 -3.02783,1.203161 -6.08322,2.334504 -9.125,3.501953 -4.56468,1.61134 -9.11434,3.269524 -13.69531,4.833984 -10.34662,3.533507 -24.42028,8.058586 -34.72266,11.335938 -20.44709,6.504546 -40.95794,12.808245 -61.43945,19.203125 -32.93249,10.246009 -65.75506,20.893379 -98.96875,30.208979 -5.6415,1.58232 -11.30732,3.0768 -16.96094,4.61524 -21.39029,5.48295 -42.96972,10.70298 -65.01758,12.68164 -3.42775,0.30762 -6.86811,0.43652 -10.30273,0.6543 -12.94957,0.42156 -25.89047,-0.68554 -38.69336,-2.56836 -6.51383,-0.95794 -11.89284,-1.99425 -18.36914,-3.17383 -14.77996,-2.74671 -29.42917,-6.15166 -44.25391,-8.6543 -5.75423,-0.93521 -11.616514,-1.48011 -17.433591,-0.80859 -1.049849,0.12119 -2.105797,0.24339 -3.126953,0.51562 -0.890064,0.23729 -1.716161,0.66887 -2.574218,1.00391 -7.436172,4.25293 -10.533788,11.70372 -13.832032,19.21094 -5.374299,12.79377 -9.124467,26.17369 -12.697265,39.55664 -2.655579,10.0495 -5.375211,20.08623 -7.519532,30.25976 -1.330576,6.33102 -2.08471,12.73584 -1.951171,19.20313 0.469173,7.19268 2.024527,14.25424 2.908203,21.39844 0.301588,2.43823 0.539459,4.88415 0.808593,7.32617 1.76919,21.31143 2.027653,42.70884 3.019532,64.0625 0.259338,5.58315 0.588485,11.16273 0.882812,16.74414 1.281291,21.90178 3.245948,43.779 6.554688,65.47461 0.08277,0.54276 0.163184,1.06904 0.242187,1.58008 7.277393,-3.68577 19.549504,-8.56747 26.953125,-10.39063 6.831716,-1.68234 13.850522,-2.4899 20.775392,-3.73437 20.02284,-1.91093 28.22893,-3.18486 48.57812,-3.08204 5.08704,0.0257 10.17308,0.17448 15.25586,0.4043 5.41225,-7.50443 11.78701,-14.22687 18.76172,-20.29101 1.2487,-1.08568 2.45548,-1.5104 3.44531,-1.47461 2.52958,0.0915 3.64588,3.19057 0.45118,5.96093 -5.65883,4.90721 -10.89393,10.28024 -15.50391,16.17774 1.68637,0.0986 3.3713,0.20371 5.05664,0.31445 18.57729,1.22067 38.4823,3.57191 56.88281,6.3457 9.72823,1.46649 19.40263,3.27643 29.10352,4.91407 39.56943,7.26124 78.79783,16.32265 118.50586,22.84375 26.73065,4.38988 35.162,5.14775 62.03906,8.44726 40.07654,4.5574 80.48003,5.64864 120.76758,4.0586 24.3933,-0.96274 32.91259,-1.9544 57.25391,-4.00196 35.66127,-3.40419 71.19062,-8.00438 106.75585,-12.25976 25.46781,-3.04722 25.03584,-2.96641 49.88086,-5.8086 26.28043,-3.12297 52.64827,-5.52726 78.89453,-8.9414 13.08778,-1.70247 15.47982,-2.17331 28.0586,-4.18164 15.25423,-2.71336 30.63101,-5.86753 44.92578,-12.04102 2.0916,-0.9033 4.11361,-1.96238 6.16992,-2.94336 5.20722,-2.60408 9.84229,-6.00861 14.01758,-9.95703 V 227.23242 c -0.30491,-1.38306 -0.61115,-2.76606 -0.91992,-4.14844 -2.01127,-9.00457 -4.10429,-18.45077 -6.49805,-27.35937 -2.4167,-8.99395 -5.61651,-19.39354 -8.60742,-28.2168 -1.51685,-4.47473 -3.17549,-8.8997 -4.76367,-13.34961 -7.74964,-20.80806 -16.92357,-41.12525 -28.70508,-59.986325 -2.33307,-3.73501 -4.85416,-7.348834 -7.28125,-11.023437 -2.62205,-3.552999 -4.98178,-7.31582 -7.86523,-10.660157 -7.08904,-8.222091 -16.4462,-16.483135 -24.99024,-23.039062 -9.44958,-7.25076 -21.9227,-15.381736 -32.39258,-21.023438 -5.88492,-3.17109 -12.03499,-5.821254 -18.05273,-8.732422 C 801.54746,11.878507 782.5439,5.4884857 762.91211,1.671875 759.68488,1.0444719 756.44282,0.49274119 753.19141,0 Z m 122.84179,0 c 13.88201,3.7809972 27.44446,8.6971211 40.68555,14.34375 6.17171,2.99435 12.47977,5.724869 18.51563,8.984375 10.72801,5.793368 23.49274,14.129042 33.16601,21.574219 9.09076,6.996834 18.43188,15.320031 25.94727,24.058594 2.94648,3.426029 5.36194,7.274604 8.04297,10.912109 2.48074,3.760585 5.05654,7.461089 7.4414,11.283203 11.97092,19.18532 21.30216,39.84298 29.17969,61.00391 1.60815,4.5088 3.29022,8.99343 4.82617,13.52734 3.04258,8.98129 6.26036,19.44976 8.71875,28.60352 0.56526,2.10472 1.11377,4.23895 1.64844,6.39062 V 0 Z M 960,389.4043 c -3.52939,2.86552 -7.33847,5.37957 -11.46484,7.43945 -2.1869,1.03744 -4.33713,2.15465 -6.56055,3.11133 -14.69235,6.32175 -30.47618,9.59702 -46.15039,12.375 -12.6891,2.02483 -15.08226,2.49457 -28.2793,4.21094 -26.26015,3.41531 -52.64119,5.82544 -78.93554,8.94921 -24.82363,2.83969 -24.39468,2.75776 -49.84376,5.80274 -35.63695,4.26396 -71.23917,8.87471 -106.97265,12.2832 -24.48861,2.0579 -33.06468,3.0539 -57.60938,4.01953 -40.57655,1.59634 -81.2693,0.49017 -121.63281,-4.10156 -27.04974,-3.32251 -35.45789,-4.07644 -62.36328,-8.49609 -39.68792,-6.51938 -78.8989,-15.56965 -118.44727,-22.83399 -9.63097,-1.62711 -19.23448,-3.42334 -28.89257,-4.88086 -18.25208,-2.75444 -37.91201,-5.08089 -56.33985,-6.30078 -2.99543,-0.19829 -5.99337,-0.37941 -8.99219,-0.53515 -0.81461,1.16023 -1.63094,2.31879 -2.4082,3.5039 -5.40806,8.24583 -9.83463,17.08533 -14.29101,25.8711 1.53752,0.79343 3.04773,1.63918 4.52148,2.56445 0.54775,0.4066 1.15862,0.73994 1.64258,1.2207 3.53576,3.51234 4.85364,9.40843 5.00195,14.2168 0.0688,2.23105 -0.16745,4.46092 -0.25195,6.6914 -0.38348,3.09979 -0.86885,6.18088 -1.4375,9.24415 5.36573,-7.62172 11.22884,-15.89076 17.16797,-22.47266 3.9885,-4.42016 9.76129,-13.27343 17.44336,-7.58008 3.46255,2.56617 -5.86188,11.85263 -3.29492,12.50195 -1.47345,3.14096 -2.90497,6.30269 -4.41993,9.42383 -6.09767,12.56256 -12.57558,24.96767 -19.46289,37.11524 -2.5572,4.5103 -5.12989,9.01232 -7.84765,13.42773 -2.43848,3.96169 -5.07864,7.79698 -7.61719,11.69531 -2.37592,2.52969 -4.00546,6.07306 -7.12695,7.58985 -5.28642,2.56877 -7.53691,-1.07719 -7.28125,-4.82617 0.11189,-1.64068 0.89582,-3.1656 1.38281,-4.73633 0.53735,-1.73319 3.6536,-11.19406 4.13672,-12.66406 -4.93165,9.59562 -9.35335,19.44953 -13.17383,29.55273 -0.90055,2.38148 -1.71197,4.79599 -2.51563,7.21289 H 960 Z m -800.52734,10.48828 c -19.96588,-0.11093 -28.10569,1.13764 -47.73243,2.99414 -6.63859,1.1711 -13.364837,1.91681 -19.914058,3.51367 -7.346521,1.79126 -19.444024,6.63014 -26.410156,10.16797 -0.482088,0.24483 -0.968157,0.4967 -1.457032,0.75586 1.17927,7.06319 2.10609,11.43564 3.923828,20.74609 1.784422,8.63331 3.775227,17.22576 6.007813,25.75586 6.426106,6.65359 12.857334,13.30286 19.130859,20.10156 4.487482,4.98863 7.320296,8.02917 11.615236,13.24219 5.79111,7.02902 11.22864,14.3458 16.125,22.01953 0.92037,-3.78686 1.87281,-7.56453 2.82226,-11.33984 3.82054,-14.40024 8.67144,-28.49701 14.34961,-42.26367 4.5462,-11.18206 9.52802,-22.16672 14.84571,-32.99805 -0.34326,-0.15274 -0.68696,-0.30544 -1.03125,-0.45703 -3.23291,-1.46037 -6.50772,-2.82597 -9.73243,-4.30469 -4.64259,-2.15152 -9.17535,-4.52457 -13.57617,-7.13867 -4.43539,-2.6559 -8.89472,-5.34036 -12.90625,-8.61719 -3.27489,-2.6751 -2.18937,-5.72147 0.38282,-5.85351 1.0065,-0.0517 2.24011,0.34358 3.52929,1.38086 3.75756,3.02333 7.91459,5.51931 12.04688,7.99023 4.22179,2.50651 8.56769,4.78336 13.02148,6.8457 3.20848,1.46782 6.46377,2.83004 9.67969,4.28125 0.41878,0.18279 0.83709,0.36719 1.25391,0.55274 4.55582,-8.98455 9.09014,-18.01861 14.61328,-26.45508 0.14857,-0.22695 0.29817,-0.45241 0.44922,-0.67773 -3.67815,-0.13515 -7.35733,-0.22175 -11.03711,-0.24219 z M 58.474609,420.52734 c -2.72378,1.76792 -5.319995,3.7721 -7.474609,6.02344 -0.92693,0.96855 -1.461725,2.24576 -2.193359,3.36914 -0.0087,1.04553 -0.233742,2.11172 -0.02734,3.13672 0.44522,2.21101 2.355747,5.3005 3.572265,7.04492 3.095654,4.43901 7.001662,8.23276 10.558594,12.28321 0.899167,0.94765 1.800495,1.89354 2.703125,2.83789 -1.271703,-5.31977 -2.457879,-10.66023 -3.564453,-16.01563 -1.633426,-8.37316 -2.553628,-12.78856 -3.574219,-18.67969 z m 140.585941,12.95118 -0.002,0.002 h -0.002 -0.002 c -0.0262,0.0225 -0.0589,0.10777 -0.0918,0.25586 -0.69219,3.1188 -0.49834,4.14396 -0.19141,4.39453 0.17945,-0.12478 0.30802,-0.19517 0.39649,-0.22852 0.0721,-2.426 0.0434,-4.31236 -0.0898,-4.41992 h -0.002 l -0.002,-0.002 -0.002,-0.002 h -0.002 -0.002 -0.002 -0.002 -0.002 z m 0.10742,4.42382 c -0.002,0.0768 -0.005,0.15473 -0.008,0.23243 0.12105,-0.0764 0.19823,-0.19964 0.1582,-0.24219 -0.0212,-0.0181 -0.0707,-0.0208 -0.15039,0.01 z m -0.008,0.23243 c -0.11162,0.0704 -0.25963,0.10125 -0.38868,-0.004 -0.85962,0.59789 -2.8789,2.43969 -7.15039,7.39844 -8.28886,9.62249 -12.93018,16.7077 -20.36914,27.17382 -1.59777,2.42819 -3.1662,4.87654 -4.70312,7.34376 -2.24659,8.38684 -4.87862,16.68155 -7.4961,24.94335 -0.40893,1.24491 -3.47425,10.54701 -4.12109,12.60547 0.70051,-0.83501 1.62261,-1.99159 2.81836,-3.58984 2.38082,-3.68731 4.85126,-7.31893 7.14258,-11.0625 11.66652,-19.06076 21.85482,-39.03729 31.33594,-59.25781 1.71526,11.97089 2.71351,1.27856 2.93164,-5.55078 z m -41.00977,-3.00391 c -5.2755,10.73984 -10.21462,21.63385 -14.72266,32.72266 -5.57458,13.49868 -10.3254,27.32735 -14.08007,41.44726 -1.43261,5.69489 -2.87279,11.39765 -4.19727,17.125 0.0686,0.11922 0.1368,0.23803 0.20508,0.35742 2.22962,3.8764 4.4171,7.77614 6.57812,11.68946 0.88511,-2.65668 1.77175,-5.3134 2.76368,-7.93164 6.99202,-18.45592 15.94868,-36.10108 26.33398,-52.86719 2.038,-7.70778 3.7328,-15.49636 4.76172,-23.41602 0.0962,-1.91235 0.32076,-3.82378 0.28906,-5.73828 -0.0414,-2.50566 -0.50546,-4.73358 -1.22461,-7.09765 -0.2393,-0.78664 -0.77617,-2.35805 -1.4414,-3.06055 -0.35833,-0.37842 -0.83111,-0.63006 -1.2461,-0.94531 -1.30852,-0.82687 -2.65236,-1.57977 -4.01953,-2.28516 z m -4.19922,85.43945 c -0.16869,0.56787 -0.31016,1.14239 -0.39258,1.72852 -0.0317,0.22545 0.68053,0.36219 0.66993,0.13476 -0.04,-0.85557 -0.14406,-1.45119 -0.27735,-1.86328 z m -30.69922,14.53321 c -0.33304,1.62951 -0.65135,3.26111 -0.95312,4.89648 h 3.68945 c -0.90636,-1.63526 -1.81874,-3.26721 -2.73633,-4.89648 z" />
    <path
       fill="#b6d7a8"
       d="m 386.24045,187.35712 h 130.28836 v 45.78976 l -65.14416,11.44744 -65.1442,-11.44744 z"
       fill-rule="evenodd"
       id="path3" />
    <path
       stroke="#595959"
       stroke-width="1.01575"
       stroke-linejoin="round"
       stroke-linecap="butt"
       d="m 386.24045,187.35712 h 130.28836 v 45.78976 l -65.14416,11.44744 -65.1442,-11.44744 z"
       fill-rule="evenodd"
       id="path4" />
    <path
       fill="#000000"
       d="m 400.1405,216.9961 v -13.59375 h 9.17187 v 1.59375 h -7.375 v 4.21875 h 6.375 v 1.60938 h -6.375 v 6.17187 z m 17.74658,0 v -1.45312 q -1.14062,1.67187 -3.125,1.67187 -0.85937,0 -1.625,-0.32812 -0.75,-0.34375 -1.125,-0.84375 -0.35937,-0.5 -0.51562,-1.23438 -0.0937,-0.5 -0.0937,-1.5625 v -6.10937 h 1.67187 v 5.46875 q 0,1.3125 0.0937,1.76562 0.15625,0.65625 0.67188,1.03125 0.51562,0.375 1.26562,0.375 0.75,0 1.40625,-0.375 0.65625,-0.39062 0.92188,-1.04687 0.28125,-0.67188 0.28125,-1.9375 v -5.28125 h 1.67187 v 9.85937 z m 7.77002,-1.5 0.23438,1.48438 q -0.70313,0.14062 -1.26563,0.14062 -0.90625,0 -1.40625,-0.28125 -0.5,-0.29687 -0.70312,-0.75 -0.20313,-0.46875 -0.20313,-1.98437 v -5.65625 h -1.23437 v -1.3125 h 1.23437 v -2.4375 l 1.65625,-1 v 3.4375 h 1.6875 v 1.3125 h -1.6875 v 5.75 q 0,0.71875 0.0781,0.92187 0.0937,0.20313 0.29687,0.32813 0.20313,0.125 0.57813,0.125 0.26562,0 0.73437,-0.0781 z m 8.07569,1.5 v -1.45312 q -1.14063,1.67187 -3.125,1.67187 -0.85938,0 -1.625,-0.32812 -0.75,-0.34375 -1.125,-0.84375 -0.35938,-0.5 -0.51563,-1.23438 -0.0937,-0.5 -0.0937,-1.5625 v -6.10937 h 1.67188 v 5.46875 q 0,1.3125 0.0937,1.76562 0.15625,0.65625 0.67187,1.03125 0.51563,0.375 1.26563,0.375 0.75,0 1.40625,-0.375 0.65625,-0.39062 0.92187,-1.04687 0.28125,-0.67188 0.28125,-1.9375 v -5.28125 h 1.67188 v 9.85937 z m 4.09814,0 v -9.85937 h 1.5 v 1.5 q 0.57812,-1.04688 1.0625,-1.375 0.48437,-0.34375 1.07812,-0.34375 0.84375,0 1.71875,0.54687 l -0.57812,1.54688 q -0.60938,-0.35938 -1.23438,-0.35938 -0.54687,0 -0.98437,0.32813 -0.42188,0.32812 -0.60938,0.90625 -0.28125,0.89062 -0.28125,1.95312 v 5.15625 z m 13.09277,-3.17187 1.71875,0.21875 q -0.40625,1.5 -1.51562,2.34375 -1.09375,0.82812 -2.8125,0.82812 -2.15625,0 -3.42188,-1.32812 -1.26562,-1.32813 -1.26562,-3.73438 0,-2.48437 1.26562,-3.85937 1.28125,-1.375 3.32813,-1.375 1.98437,0 3.23437,1.34375 1.25,1.34375 1.25,3.79687 0,0.14063 -0.0156,0.4375 h -7.34375 q 0.0937,1.625 0.92187,2.48438 0.82813,0.85937 2.0625,0.85937 0.90625,0 1.54688,-0.46875 0.65625,-0.48437 1.04687,-1.54687 z m -5.48437,-2.70313 h 5.5 q -0.10938,-1.23437 -0.625,-1.85937 -0.79688,-0.96875 -2.07813,-0.96875 -1.14062,0 -1.9375,0.78125 -0.78125,0.76562 -0.85937,2.04687 z m 14.7207,5.875 v -13.59375 h 1.79688 v 11.98438 h 6.70312 v 1.60937 z m 9.80127,-4.92187 q 0,-2.73438 1.53125,-4.0625 1.26563,-1.09375 3.09375,-1.09375 2.03125,0 3.3125,1.34375 1.29688,1.32812 1.29688,3.67187 0,1.90625 -0.57813,3 -0.5625,1.07813 -1.65625,1.6875 -1.07812,0.59375 -2.375,0.59375 -2.0625,0 -3.34375,-1.32812 -1.28125,-1.32813 -1.28125,-3.8125 z m 1.71875,0 q 0,1.89062 0.82813,2.82812 0.82812,0.9375 2.07812,0.9375 1.25,0 2.0625,-0.9375 0.82813,-0.95312 0.82813,-2.89062 0,-1.82813 -0.82813,-2.76563 -0.82812,-0.9375 -2.0625,-0.9375 -1.25,0 -2.07812,0.9375 -0.82813,0.9375 -0.82813,2.82813 z m 9.17627,5.73437 1.60938,0.25 q 0.10937,0.75 0.57812,1.09375 0.60938,0.45313 1.6875,0.45313 1.17188,0 1.79688,-0.46875 0.625,-0.45313 0.85937,-1.28125 0.125,-0.51563 0.10938,-2.15625 -1.09375,1.29687 -2.71875,1.29687 -2.03125,0 -3.15625,-1.46875 -1.10938,-1.46875 -1.10938,-3.51562 0,-1.40625 0.51563,-2.59375 0.51562,-1.20313 1.48437,-1.84375 0.96875,-0.65625 2.26563,-0.65625 1.75,0 2.875,1.40625 v -1.1875 h 1.54687 v 8.51562 q 0,2.3125 -0.46875,3.26563 -0.46875,0.96875 -1.48437,1.51562 -1.01563,0.5625 -2.5,0.5625 -1.76563,0 -2.85938,-0.79687 -1.07812,-0.79688 -1.03125,-2.39063 z m 1.375,-5.92187 q 0,1.95312 0.76563,2.84375 0.78125,0.89062 1.9375,0.89062 1.14062,0 1.92187,-0.89062 0.78125,-0.89063 0.78125,-2.78125 0,-1.8125 -0.8125,-2.71875 -0.79687,-0.92188 -1.92187,-0.92188 -1.10938,0 -1.89063,0.90625 -0.78125,0.89063 -0.78125,2.67188 z m 9.5044,-6.57813 v -1.90625 h 1.67187 v 1.90625 z m 0,11.6875 v -9.85937 h 1.67187 v 9.85937 z m 10.64306,-3.60937 1.64063,0.21875 q -0.26563,1.6875 -1.375,2.65625 -1.10938,0.95312 -2.73438,0.95312 -2.01562,0 -3.25,-1.3125 -1.21875,-1.32812 -1.21875,-3.79687 0,-1.59375 0.51563,-2.78125 0.53125,-1.20313 1.60937,-1.79688 1.09375,-0.60937 2.35938,-0.60937 1.60937,0 2.625,0.8125 1.01562,0.8125 1.3125,2.3125 l -1.625,0.25 q -0.23438,-1 -0.82813,-1.5 -0.59375,-0.5 -1.42187,-0.5 -1.26563,0 -2.0625,0.90625 -0.78125,0.90625 -0.78125,2.85937 0,1.98438 0.76562,2.89063 0.76563,0.89062 1.98438,0.89062 0.98437,0 1.64062,-0.59375 0.65625,-0.60937 0.84375,-1.85937 z"
       fill-rule="nonzero"
       id="path5" />
    <path
       fill="#b6d7a8"
       d="m 233.80002,187.35712 h 130.26773 v 57.22835 H 233.80002 Z"
       fill-rule="evenodd"
       id="path6" />
    <path
       stroke="#000000"
       stroke-width="1.01575"
       stroke-linejoin="round"
       stroke-linecap="butt"
       d="m 233.80002,187.35712 h 130.26773 v 57.22835 H 233.80002 Z"
       fill-rule="evenodd"
       id="path7" />
    <path
       fill="#000000"
       d="m 272.4993,222.7154 5.23437,-13.59375 h 1.9375 l 5.5625,13.59375 h -2.04687 l -1.59375,-4.125 h -5.6875 l -1.48438,4.125 z m 3.92187,-5.57813 h 4.60938 l -1.40625,-3.78125 q -0.65625,-1.70312 -0.96875,-2.8125 -0.26563,1.3125 -0.73438,2.59375 z m 16.46973,1.96875 1.64063,0.21875 q -0.26563,1.6875 -1.375,2.65625 -1.10938,0.95313 -2.73438,0.95313 -2.01562,0 -3.25,-1.3125 -1.21875,-1.32813 -1.21875,-3.79688 0,-1.59375 0.51563,-2.78125 0.53125,-1.20312 1.60937,-1.79687 1.09375,-0.60938 2.35938,-0.60938 1.60937,0 2.625,0.8125 1.01562,0.8125 1.3125,2.3125 l -1.625,0.25 q -0.23438,-1 -0.82813,-1.5 -0.59375,-0.5 -1.42187,-0.5 -1.26563,0 -2.0625,0.90625 -0.78125,0.90625 -0.78125,2.85938 0,1.98437 0.76562,2.89062 0.76563,0.89063 1.98438,0.89063 0.98437,0 1.64062,-0.59375 0.65625,-0.60938 0.84375,-1.85938 z m 6.71875,2.10938 0.23438,1.48437 q -0.70313,0.14063 -1.26563,0.14063 -0.90625,0 -1.40625,-0.28125 -0.5,-0.29688 -0.70312,-0.75 -0.20313,-0.46875 -0.20313,-1.98438 v -5.65625 h -1.23437 v -1.3125 h 1.23437 v -2.4375 l 1.65625,-1 v 3.4375 h 1.6875 v 1.3125 h -1.6875 v 5.75 q 0,0.71875 0.0781,0.92188 0.0937,0.20312 0.29687,0.32812 0.20313,0.125 0.57813,0.125 0.26562,0 0.73437,-0.0781 z m 1.63819,-10.1875 v -1.90625 h 1.67187 v 1.90625 z m 0,11.6875 v -9.85938 h 1.67187 v 9.85938 z m 3.58056,-4.92188 q 0,-2.73437 1.53125,-4.0625 1.26563,-1.09375 3.09375,-1.09375 2.03125,0 3.3125,1.34375 1.29688,1.32813 1.29688,3.67188 0,1.90625 -0.57813,3 -0.5625,1.07812 -1.65625,1.6875 -1.07812,0.59375 -2.375,0.59375 -2.0625,0 -3.34375,-1.32813 -1.28125,-1.32812 -1.28125,-3.8125 z m 1.71875,0 q 0,1.89063 0.82813,2.82813 0.82812,0.9375 2.07812,0.9375 1.25,0 2.0625,-0.9375 0.82813,-0.95313 0.82813,-2.89063 0,-1.82812 -0.82813,-2.76562 -0.82812,-0.9375 -2.0625,-0.9375 -1.25,0 -2.07812,0.9375 -0.82813,0.9375 -0.82813,2.82812 z m 9.47315,4.92188 v -9.85938 h 1.5 v 1.40625 q 1.09375,-1.625 3.14062,-1.625 0.89063,0 1.64063,0.32813 0.75,0.3125 1.10937,0.84375 0.375,0.51562 0.53125,1.21875 0.0937,0.46875 0.0937,1.625 v 6.0625 H 322.364 v -6 q 0,-1.01563 -0.20313,-1.51563 -0.1875,-0.51562 -0.6875,-0.8125 -0.5,-0.29687 -1.17187,-0.29687 -1.0625,0 -1.84375,0.67187 -0.76563,0.67188 -0.76563,2.57813 v 5.375 z"
       fill-rule="nonzero"
       id="path8" />
    <path
       fill="#eeeeee"
       d="m 81.35958,196.89537 c 0,-5.26784 4.270416,-9.53825 9.538246,-9.53825 H 202.08905 c 2.52969,0 4.95579,1.00492 6.74455,2.79368 1.78877,1.78877 2.7937,4.21486 2.7937,6.74457 v 38.15184 c 0,5.26784 -4.27043,9.53825 -9.53825,9.53825 H 90.897826 c -5.26783,0 -9.538246,-4.27041 -9.538246,-9.53825 z"
       fill-rule="evenodd"
       id="path9" />
    <path
       stroke="#595959"
       stroke-width="1.01575"
       stroke-linejoin="round"
       stroke-linecap="butt"
       d="m 81.35958,196.89537 c 0,-5.26784 4.270416,-9.53825 9.538246,-9.53825 H 202.08905 c 2.52969,0 4.95579,1.00492 6.74455,2.79368 1.78877,1.78877 2.7937,4.21486 2.7937,6.74457 v 38.15184 c 0,5.26784 -4.27043,9.53825 -9.53825,9.53825 H 90.897826 c -5.26783,0 -9.538246,-4.27041 -9.538246,-9.53825 z"
       fill-rule="evenodd"
       id="path10" />
    <path
       fill="#000000"
       d="m 112.50955,222.7154 v -13.59375 h 1.79688 v 11.98437 h 6.70312 v 1.60938 z m 10.5669,0 v -13.59375 h 1.79687 v 11.98437 h 6.70312 v 1.60938 z m 10.58251,0 v -13.59375 h 2.71875 l 3.21875,9.625 q 0.4375,1.34375 0.64063,2.01562 0.23437,-0.75 0.73437,-2.1875 l 3.25,-9.45312 h 2.42188 v 13.59375 h -1.73438 v -11.39063 l -3.95312,11.39063 h -1.625 l -3.9375,-11.57813 v 11.57813 z m 27.38721,-3.60938 1.64063,0.21875 q -0.26563,1.6875 -1.375,2.65625 -1.10938,0.95313 -2.73438,0.95313 -2.01562,0 -3.25,-1.3125 -1.21875,-1.32813 -1.21875,-3.79688 0,-1.59375 0.51563,-2.78125 0.53125,-1.20312 1.60937,-1.79687 1.09375,-0.60938 2.35938,-0.60938 1.60937,0 2.625,0.8125 1.01562,0.8125 1.3125,2.3125 l -1.625,0.25 q -0.23438,-1 -0.82813,-1.5 -0.59375,-0.5 -1.42187,-0.5 -1.26563,0 -2.0625,0.90625 -0.78125,0.90625 -0.78125,2.85938 0,1.98437 0.76562,2.89062 0.76563,0.89063 1.98438,0.89063 0.98437,0 1.64062,-0.59375 0.65625,-0.60938 0.84375,-1.85938 z m 9.5,2.39063 q -0.9375,0.79687 -1.79687,1.125 -0.85938,0.3125 -1.84375,0.3125 -1.60938,0 -2.48438,-0.78125 -0.875,-0.79688 -0.875,-2.03125 0,-0.73438 0.32813,-1.32813 0.32812,-0.59375 0.85937,-0.95312 0.53125,-0.35938 1.20313,-0.54688 0.5,-0.14062 1.48437,-0.25 2.03125,-0.25 2.98438,-0.57812 0,-0.34375 0,-0.4375 0,-1.01563 -0.46875,-1.4375 -0.64063,-0.5625 -1.90625,-0.5625 -1.17188,0 -1.73438,0.40625 -0.5625,0.40625 -0.82812,1.46875 l -1.64063,-0.23438 q 0.23438,-1.04687 0.73438,-1.6875 0.51562,-0.64062 1.46875,-0.98437 0.96875,-0.35938 2.25,-0.35938 1.26562,0 2.04687,0.29688 0.78125,0.29687 1.15625,0.75 0.375,0.45312 0.51563,1.14062 0.0937,0.42188 0.0937,1.53125 v 2.23438 q 0,2.32812 0.0937,2.95312 0.10937,0.60938 0.4375,1.17188 h -1.75 q -0.26563,-0.51563 -0.32813,-1.21875 z m -0.14062,-3.71875 q -0.90625,0.35937 -2.73438,0.625 -1.03125,0.14062 -1.45312,0.32812 -0.42188,0.1875 -0.65625,0.54688 -0.23438,0.35937 -0.23438,0.79687 0,0.67188 0.5,1.125 0.51563,0.4375 1.48438,0.4375 0.96875,0 1.71875,-0.42187 0.75,-0.4375 1.10937,-1.15625 0.26563,-0.57813 0.26563,-1.67188 z m 4.23877,4.9375 v -13.59375 h 1.67187 v 13.59375 z m 4.22119,0 v -13.59375 h 1.67187 v 13.59375 z"
       fill-rule="nonzero"
       id="path11" />
    <path
       fill="#000000"
       fill-opacity="0"
       d="m 451.38464,244.59431 0.50394,74.14174"
       fill-rule="evenodd"
       id="path12" />
    <path
       stroke="#595959"
       stroke-width="1.12073"
       stroke-linejoin="round"
       stroke-linecap="butt"
       d="m 451.38464,244.59431 0.50394,74.14174"
       fill-rule="evenodd"
       id="path13" />
    <path
       fill="#000000"
       fill-opacity="0"
       d="m 451.8887,318.7526 86.70865,-0.40942"
       fill-rule="evenodd"
       id="path14" />
    <path
       stroke="#595959"
       stroke-width="1.12073"
       stroke-linejoin="round"
       stroke-linecap="butt"
       d="m 451.8887,318.7526 79.98434,-0.37769"
       fill-rule="evenodd"
       id="path15" />
    <path
       fill="#595959"
       stroke="#595959"
       stroke-width="1.12073"
       stroke-linecap="butt"
       d="m 531.8818,320.22604 5.07721,-1.87515 -5.09473,-1.82712 z"
       fill-rule="evenodd"
       id="path16" />
    <path
       fill="#b6d7a8"
       d="m 691.1376,187.36153 h 130.2677 v 57.22835 H 691.1376 Z"
       fill-rule="evenodd"
       id="path17" />
    <path
       stroke="#000000"
       stroke-width="1.01575"
       stroke-linejoin="round"
       stroke-linecap="butt"
       d="m 691.1376,187.36153 h 130.2677 v 57.22835 H 691.1376 Z"
       fill-rule="evenodd"
       id="path18" />
    <path
       fill="#000000"
       d="m 729.83685,222.7198 5.23438,-13.59375 h 1.9375 l 5.5625,13.59375 h -2.04688 l -1.59375,-4.125 h -5.6875 l -1.48437,4.125 z m 3.92188,-5.57813 h 4.60937 l -1.40625,-3.78125 q -0.65625,-1.70312 -0.96875,-2.8125 -0.26562,1.3125 -0.73437,2.59375 z m 16.46972,1.96875 1.64063,0.21875 q -0.26563,1.6875 -1.375,2.65625 -1.10938,0.95313 -2.73438,0.95313 -2.01562,0 -3.25,-1.3125 -1.21875,-1.32813 -1.21875,-3.79688 0,-1.59375 0.51563,-2.78125 0.53125,-1.20312 1.60937,-1.79687 1.09375,-0.60938 2.35938,-0.60938 1.60937,0 2.625,0.8125 1.01562,0.8125 1.3125,2.3125 l -1.625,0.25 q -0.23438,-1 -0.82813,-1.5 -0.59375,-0.5 -1.42187,-0.5 -1.26563,0 -2.0625,0.90625 -0.78125,0.90625 -0.78125,2.85938 0,1.98437 0.76562,2.89062 0.76563,0.89063 1.98438,0.89063 0.98437,0 1.64062,-0.59375 0.65625,-0.60938 0.84375,-1.85938 z m 6.71875,2.10938 0.23438,1.48437 q -0.70313,0.14063 -1.26563,0.14063 -0.90625,0 -1.40625,-0.28125 -0.5,-0.29688 -0.70312,-0.75 -0.20313,-0.46875 -0.20313,-1.98438 v -5.65625 h -1.23437 v -1.3125 h 1.23437 v -2.4375 l 1.65625,-1 v 3.4375 h 1.6875 v 1.3125 h -1.6875 v 5.75 q 0,0.71875 0.0781,0.92188 0.0937,0.20312 0.29687,0.32812 0.20313,0.125 0.57813,0.125 0.26562,0 0.73437,-0.0781 z m 1.63819,-10.1875 v -1.90625 h 1.67187 v 1.90625 z m 0,11.6875 v -9.85938 h 1.67187 v 9.85938 z m 3.58056,-4.92188 q 0,-2.73437 1.53125,-4.0625 1.26563,-1.09375 3.09375,-1.09375 2.03125,0 3.3125,1.34375 1.29688,1.32813 1.29688,3.67188 0,1.90625 -0.57813,3 -0.5625,1.07812 -1.65625,1.6875 -1.07812,0.59375 -2.375,0.59375 -2.0625,0 -3.34375,-1.32813 -1.28125,-1.32812 -1.28125,-3.8125 z m 1.71875,0 q 0,1.89063 0.82813,2.82813 0.82812,0.9375 2.07812,0.9375 1.25,0 2.0625,-0.9375 0.82813,-0.95313 0.82813,-2.89063 0,-1.82812 -0.82813,-2.76562 -0.82812,-0.9375 -2.0625,-0.9375 -1.25,0 -2.07812,0.9375 -0.82813,0.9375 -0.82813,2.82812 z m 9.47315,4.92188 v -9.85938 h 1.5 v 1.40625 q 1.09375,-1.625 3.14062,-1.625 0.89063,0 1.64063,0.32813 0.75,0.3125 1.10937,0.84375 0.375,0.51562 0.53125,1.21875 0.0937,0.46875 0.0937,1.625 v 6.0625 h -1.67187 v -6 q 0,-1.01563 -0.20313,-1.51563 -0.1875,-0.51562 -0.6875,-0.8125 -0.5,-0.29687 -1.17187,-0.29687 -1.0625,0 -1.84375,0.67187 -0.76563,0.67188 -0.76563,2.57813 v 5.375 z"
       fill-rule="nonzero"
       id="path19" />
    <path
       fill="#eeeeee"
       d="m 538.6971,196.89978 c 0,-5.26782 4.27045,-9.53825 9.53827,-9.53825 h 111.19122 c 2.52972,0 4.95581,1.00492 6.74457,2.79368 1.78875,1.78877 2.7937,4.21488 2.7937,6.74457 v 38.15185 c 0,5.26783 -4.27045,9.53824 -9.53827,9.53824 H 548.23537 c -5.26782,0 -9.53827,-4.27041 -9.53827,-9.53824 z"
       fill-rule="evenodd"
       id="path20" />
    <path
       stroke="#595959"
       stroke-width="1.01575"
       stroke-linejoin="round"
       stroke-linecap="butt"
       d="m 538.6971,196.89978 c 0,-5.26782 4.27045,-9.53825 9.53827,-9.53825 h 111.19122 c 2.52972,0 4.95581,1.00492 6.74457,2.79368 1.78875,1.78877 2.7937,4.21488 2.7937,6.74457 v 38.15185 c 0,5.26783 -4.27045,9.53824 -9.53827,9.53824 H 548.23537 c -5.26782,0 -9.53827,-4.27041 -9.53827,-9.53824 z"
       fill-rule="evenodd"
       id="path21" />
    <path
       fill="#000000"
       d="m 569.8471,222.7198 v -13.59375 h 1.79687 v 11.98437 h 6.70313 v 1.60938 z m 10.56689,0 v -13.59375 h 1.79688 v 11.98437 h 6.70312 v 1.60938 z m 10.58253,0 v -13.59375 h 2.71875 l 3.21875,9.625 q 0.4375,1.34375 0.64062,2.01562 0.23438,-0.75 0.73438,-2.1875 l 3.25,-9.45312 h 2.42187 v 13.59375 h -1.73437 v -11.39063 l -3.95313,11.39063 h -1.625 l -3.9375,-11.57813 v 11.57813 z m 27.3872,-3.60938 1.64063,0.21875 q -0.26563,1.6875 -1.375,2.65625 -1.10938,0.95313 -2.73438,0.95313 -2.01562,0 -3.25,-1.3125 -1.21875,-1.32813 -1.21875,-3.79688 0,-1.59375 0.51563,-2.78125 0.53125,-1.20312 1.60937,-1.79687 1.09375,-0.60938 2.35938,-0.60938 1.60937,0 2.625,0.8125 1.01562,0.8125 1.3125,2.3125 l -1.625,0.25 q -0.23438,-1 -0.82813,-1.5 -0.59375,-0.5 -1.42187,-0.5 -1.26563,0 -2.0625,0.90625 -0.78125,0.90625 -0.78125,2.85938 0,1.98437 0.76562,2.89062 0.76563,0.89063 1.98438,0.89063 0.98437,0 1.64062,-0.59375 0.65625,-0.60938 0.84375,-1.85938 z m 9.5,2.39063 q -0.9375,0.79687 -1.79687,1.125 -0.85938,0.3125 -1.84375,0.3125 -1.60938,0 -2.48438,-0.78125 -0.875,-0.79688 -0.875,-2.03125 0,-0.73438 0.32813,-1.32813 0.32812,-0.59375 0.85937,-0.95312 0.53125,-0.35938 1.20313,-0.54688 0.5,-0.14062 1.48437,-0.25 2.03125,-0.25 2.98438,-0.57812 0,-0.34375 0,-0.4375 0,-1.01563 -0.46875,-1.4375 -0.64063,-0.5625 -1.90625,-0.5625 -1.17188,0 -1.73438,0.40625 -0.5625,0.40625 -0.82812,1.46875 l -1.64063,-0.23438 q 0.23438,-1.04687 0.73438,-1.6875 0.51562,-0.64062 1.46875,-0.98437 0.96875,-0.35938 2.25,-0.35938 1.26562,0 2.04687,0.29688 0.78125,0.29687 1.15625,0.75 0.375,0.45312 0.51563,1.14062 0.0937,0.42188 0.0937,1.53125 v 2.23438 q 0,2.32812 0.0937,2.95312 0.10937,0.60938 0.4375,1.17188 h -1.75 q -0.26563,-0.51563 -0.32813,-1.21875 z m -0.14062,-3.71875 q -0.90625,0.35937 -2.73438,0.625 -1.03125,0.14062 -1.45312,0.32812 -0.42188,0.1875 -0.65625,0.54688 -0.23438,0.35937 -0.23438,0.79687 0,0.67188 0.5,1.125 0.51563,0.4375 1.48438,0.4375 0.96875,0 1.71875,-0.42187 0.75,-0.4375 1.10937,-1.15625 0.26563,-0.57813 0.26563,-1.67188 z m 4.23877,4.9375 v -13.59375 h 1.67187 v 13.59375 z m 4.22119,0 v -13.59375 h 1.67187 v 13.59375 z"
       fill-rule="nonzero"
       id="path22" />
    <path
       fill="#b6d7a8"
       d="m 691.1376,289.7295 h 130.2677 v 57.22833 H 691.1376 Z"
       fill-rule="evenodd"
       id="path23" />
    <path
       stroke="#000000"
       stroke-width="1.01575"
       stroke-linejoin="round"
       stroke-linecap="butt"
       d="m 691.1376,289.7295 h 130.2677 v 57.22833 H 691.1376 Z"
       fill-rule="evenodd"
       id="path24" />
    <path
       fill="#000000"
       d="m 729.83685,325.08774 5.23438,-13.59375 h 1.9375 l 5.5625,13.59375 h -2.04688 l -1.59375,-4.125 h -5.6875 l -1.48437,4.125 z m 3.92188,-5.57813 h 4.60937 l -1.40625,-3.78125 q -0.65625,-1.70312 -0.96875,-2.8125 -0.26562,1.3125 -0.73437,2.59375 z m 16.46972,1.96875 1.64063,0.21875 q -0.26563,1.6875 -1.375,2.65625 -1.10938,0.95313 -2.73438,0.95313 -2.01562,0 -3.25,-1.3125 -1.21875,-1.32813 -1.21875,-3.79688 0,-1.59375 0.51563,-2.78125 0.53125,-1.20312 1.60937,-1.79687 1.09375,-0.60938 2.35938,-0.60938 1.60937,0 2.625,0.8125 1.01562,0.8125 1.3125,2.3125 l -1.625,0.25 q -0.23438,-1 -0.82813,-1.5 -0.59375,-0.5 -1.42187,-0.5 -1.26563,0 -2.0625,0.90625 -0.78125,0.90625 -0.78125,2.85938 0,1.98437 0.76562,2.89062 0.76563,0.89063 1.98438,0.89063 0.98437,0 1.64062,-0.59375 0.65625,-0.60938 0.84375,-1.85938 z m 6.71875,2.10938 0.23438,1.48437 q -0.70313,0.14063 -1.26563,0.14063 -0.90625,0 -1.40625,-0.28125 -0.5,-0.29688 -0.70312,-0.75 -0.20313,-0.46875 -0.20313,-1.98438 v -5.65625 h -1.23437 v -1.3125 h 1.23437 v -2.4375 l 1.65625,-1 v 3.4375 h 1.6875 v 1.3125 h -1.6875 v 5.75 q 0,0.71875 0.0781,0.92188 0.0937,0.20312 0.29687,0.32812 0.20313,0.125 0.57813,0.125 0.26562,0 0.73437,-0.0781 z m 1.63819,-10.1875 v -1.90625 h 1.67187 v 1.90625 z m 0,11.6875 v -9.85938 h 1.67187 v 9.85938 z m 3.58056,-4.92188 q 0,-2.73437 1.53125,-4.0625 1.26563,-1.09375 3.09375,-1.09375 2.03125,0 3.3125,1.34375 1.29688,1.32813 1.29688,3.67188 0,1.90625 -0.57813,3 -0.5625,1.07812 -1.65625,1.6875 -1.07812,0.59375 -2.375,0.59375 -2.0625,0 -3.34375,-1.32813 -1.28125,-1.32812 -1.28125,-3.8125 z m 1.71875,0 q 0,1.89063 0.82813,2.82813 0.82812,0.9375 2.07812,0.9375 1.25,0 2.0625,-0.9375 0.82813,-0.95313 0.82813,-2.89063 0,-1.82812 -0.82813,-2.76562 -0.82812,-0.9375 -2.0625,-0.9375 -1.25,0 -2.07812,0.9375 -0.82813,0.9375 -0.82813,2.82812 z m 9.47315,4.92188 v -9.85938 h 1.5 v 1.40625 q 1.09375,-1.625 3.14062,-1.625 0.89063,0 1.64063,0.32813 0.75,0.3125 1.10937,0.84375 0.375,0.51562 0.53125,1.21875 0.0937,0.46875 0.0937,1.625 v 6.0625 h -1.67187 v -6 q 0,-1.01563 -0.20313,-1.51563 -0.1875,-0.51562 -0.6875,-0.8125 -0.5,-0.29687 -1.17187,-0.29687 -1.0625,0 -1.84375,0.67187 -0.76563,0.67188 -0.76563,2.57813 v 5.375 z"
       fill-rule="nonzero"
       id="path25" />
    <path
       fill="#000000"
       fill-opacity="0"
       d="m 211.6273,215.9713 h 22.17322"
       fill-rule="evenodd"
       id="path26" />
    <path
       stroke="#595959"
       stroke-width="1.12073"
       stroke-linejoin="round"
       stroke-linecap="butt"
       d="m 211.6273,215.9713 h 15.44881"
       fill-rule="evenodd"
       id="path27" />
    <path
       fill="#595959"
       stroke="#595959"
       stroke-width="1.12073"
       stroke-linecap="butt"
       d="m 227.07611,217.82245 5.08601,-1.85115 -5.08601,-1.85117 z"
       fill-rule="evenodd"
       id="path28" />
    <path
       fill="#000000"
       fill-opacity="0"
       d="m 364.06775,215.9713 h 22.17322"
       fill-rule="evenodd"
       id="path29" />
    <path
       stroke="#595959"
       stroke-width="1.12073"
       stroke-linejoin="round"
       stroke-linecap="butt"
       d="m 364.06775,215.9713 h 15.44882"
       fill-rule="evenodd"
       id="path30" />
    <path
       fill="#595959"
       stroke="#595959"
       stroke-width="1.12073"
       stroke-linecap="butt"
       d="m 379.51657,217.82245 5.086,-1.85115 -5.086,-1.85117 z"
       fill-rule="evenodd"
       id="path31" />
    <path
       fill="#000000"
       fill-opacity="0"
       d="m 516.5288,215.97572 h 22.17322"
       fill-rule="evenodd"
       id="path32" />
    <path
       stroke="#595959"
       stroke-width="1.12073"
       stroke-linejoin="round"
       stroke-linecap="butt"
       d="m 516.5288,215.97572 h 15.44885"
       fill-rule="evenodd"
       id="path33" />
    <path
       fill="#595959"
       stroke="#595959"
       stroke-width="1.12073"
       stroke-linecap="butt"
       d="m 531.97766,217.82687 5.086,-1.85115 -5.086,-1.85115 z"
       fill-rule="evenodd"
       id="path34" />
    <path
       fill="#000000"
       fill-opacity="0"
       d="m 668.96484,215.97571 h 22.17322"
       fill-rule="evenodd"
       id="path35" />
    <path
       stroke="#595959"
       stroke-width="1.12073"
       stroke-linejoin="round"
       stroke-linecap="butt"
       d="m 668.9648,215.97571 h 15.44885"
       fill-rule="evenodd"
       id="path36" />
    <path
       fill="#595959"
       stroke="#595959"
       stroke-width="1.12073"
       stroke-linecap="butt"
       d="m 684.41364,217.82686 5.086,-1.85115 -5.086,-1.85117 z"
       fill-rule="evenodd"
       id="path37" />
    <path
       fill="#000000"
       fill-opacity="0"
       d="m 668.8651,318.34317 h 22.2677"
       fill-rule="evenodd"
       id="path38" />
    <path
       stroke="#595959"
       stroke-width="1.12073"
       stroke-linejoin="round"
       stroke-linecap="butt"
       d="m 668.86505,318.34317 h 15.54333"
       fill-rule="evenodd"
       id="path39" />
    <path
       fill="#595959"
       stroke="#595959"
       stroke-width="1.12073"
       stroke-linecap="butt"
       d="m 684.4084,320.1943 5.086,-1.85114 -5.086,-1.85116 z"
       fill-rule="evenodd"
       id="path40" />
    <path
       fill="#000000"
       fill-opacity="0"
       d="M 81.358284,325.22327 H 120.63387"
       fill-rule="evenodd"
       id="path41" />
    <path
       stroke="#595959"
       stroke-width="1.12073"
       stroke-linejoin="round"
       stroke-linecap="butt"
       d="M 81.358284,325.22327 H 113.90946"
       fill-rule="evenodd"
       id="path42" />
    <path
       fill="#595959"
       stroke="#595959"
       stroke-width="1.12073"
       stroke-linecap="butt"
       d="m 113.90946,327.07443 5.086,-1.85117 -5.086,-1.85113 z"
       fill-rule="evenodd"
       id="path43" />
    <path
       fill="#000000"
       fill-opacity="0"
       d="m 115.67453,303.49344 h 216.6929 v 43.46457 h -216.6929 z"
       fill-rule="evenodd"
       id="path44" />
    <path
       fill="#595959"
       d="m 127.04953,330.71072 v -12.82813 h 4.42187 q 1.5,0 2.28125,0.1875 1.10938,0.25 1.89063,0.92188 1.01562,0.84375 1.51562,2.1875 0.5,1.32812 0.5,3.04687 0,1.46875 -0.34375,2.59375 -0.32812,1.125 -0.875,1.875 -0.53125,0.73438 -1.17187,1.15625 -0.625,0.42188 -1.53125,0.64063 -0.89063,0.21875 -2.04688,0.21875 z m 1.70312,-1.51563 h 2.73438 q 1.28125,0 2,-0.23437 0.71875,-0.23438 1.15625,-0.67188 0.59375,-0.59375 0.92187,-1.60937 0.34375,-1.03125 0.34375,-2.48438 0,-2 -0.65625,-3.07812 -0.65625,-1.09375 -1.60937,-1.45313 -0.67188,-0.26562 -2.1875,-0.26562 h -2.70313 z m 11.05199,-9.5 v -1.8125 h 1.57813 v 1.8125 z m 0,11.01563 v -9.29688 h 1.57813 v 9.29688 z m 3.95043,0 v -9.29688 h 1.42187 v 1.40625 q 0.54688,-0.98437 1,-1.29687 0.46875,-0.3125 1.01563,-0.3125 0.79687,0 1.625,0.5 l -0.54688,1.46875 q -0.57812,-0.34375 -1.15625,-0.34375 -0.51562,0 -0.9375,0.3125 -0.40625,0.3125 -0.57812,0.85937 -0.26563,0.84375 -0.26563,1.84375 v 4.85938 z m 12.35875,-3 1.625,0.20312 q -0.39063,1.4375 -1.4375,2.21875 -1.03125,0.78125 -2.65625,0.78125 -2.03125,0 -3.23438,-1.25 -1.1875,-1.25 -1.1875,-3.51562 0,-2.34375 1.20313,-3.64063 1.21875,-1.29687 3.14062,-1.29687 1.85938,0 3.03125,1.26562 1.1875,1.26563 1.1875,3.5625 0,0.14063 0,0.42188 h -6.9375 q 0.0937,1.53125 0.85938,2.35937 0.78125,0.8125 1.95312,0.8125 0.85938,0 1.46875,-0.45312 0.625,-0.46875 0.98438,-1.46875 z m -5.17188,-2.54688 h 5.1875 q -0.10937,-1.17187 -0.59375,-1.75 -0.75,-0.90625 -1.95312,-0.90625 -1.09375,0 -1.82813,0.73438 -0.73437,0.71875 -0.8125,1.92187 z m 14.8423,2.14063 1.54688,0.20312 q -0.25,1.60938 -1.29688,2.51563 -1.04687,0.89062 -2.57812,0.89062 -1.90625,0 -3.0625,-1.23437 -1.15625,-1.25 -1.15625,-3.57813 0,-1.5 0.5,-2.625 0.5,-1.14062 1.51562,-1.70312 1.01563,-0.5625 2.21875,-0.5625 1.51563,0 2.46875,0.76562 0.96875,0.76563 1.23438,2.17188 l -1.53125,0.23437 q -0.21875,-0.9375 -0.78125,-1.40625 -0.54688,-0.46875 -1.32813,-0.46875 -1.1875,0 -1.9375,0.85938 -0.75,0.84375 -0.75,2.6875 0,1.875 0.71875,2.73437 0.71875,0.84375 1.875,0.84375 0.9375,0 1.54688,-0.5625 0.625,-0.57812 0.79687,-1.76562 z m 6.33594,2 0.21875,1.39062 q -0.65625,0.14063 -1.1875,0.14063 -0.85938,0 -1.32813,-0.26563 -0.46875,-0.28125 -0.67187,-0.71875 -0.1875,-0.4375 -0.1875,-1.85937 v -5.34375 h -1.15625 v -1.23438 h 1.15625 v -2.29687 l 1.5625,-0.95313 v 3.25 h 1.59375 v 1.23438 h -1.59375 v 5.42187 q 0,0.6875 0.0781,0.875 0.0937,0.1875 0.28125,0.3125 0.1875,0.10938 0.53125,0.10938 0.26563,0 0.70313,-0.0625 z m 1.54178,-9.60938 v -1.8125 h 1.57812 v 1.8125 z m 0,11.01563 v -9.29688 h 1.57812 v 9.29688 z m 3.38792,-4.64063 q 0,-2.59375 1.4375,-3.82812 1.20313,-1.03125 2.92188,-1.03125 1.92187,0 3.125,1.26562 1.21875,1.25 1.21875,3.45313 0,1.79687 -0.54688,2.82812 -0.53125,1.03125 -1.5625,1.59375 -1.01562,0.5625 -2.23437,0.5625 -1.95313,0 -3.15625,-1.25 -1.20313,-1.25 -1.20313,-3.59375 z m 1.625,0 q 0,1.78125 0.76563,2.67188 0.78125,0.89062 1.96875,0.89062 1.17187,0 1.95312,-0.89062 0.78125,-0.90625 0.78125,-2.73438 0,-1.71875 -0.79687,-2.60937 -0.78125,-0.89063 -1.9375,-0.89063 -1.1875,0 -1.96875,0.89063 -0.76563,0.875 -0.76563,2.67187 z m 8.93605,4.64063 v -9.29688 h 1.40625 v 1.32813 q 1.03125,-1.53125 2.96875,-1.53125 0.82813,0 1.53125,0.29687 0.71875,0.29688 1.0625,0.79688 0.34375,0.48437 0.48438,1.15625 0.0937,0.4375 0.0937,1.53125 v 5.71875 h -1.57813 v -5.65625 q 0,-0.95313 -0.1875,-1.42188 -0.17187,-0.48437 -0.64062,-0.76562 -0.46875,-0.29688 -1.10938,-0.29688 -1,0 -1.73437,0.64063 -0.73438,0.64062 -0.73438,2.42187 v 5.07813 z m 14.35283,-4.64063 q 0,-2.59375 1.4375,-3.82812 1.20312,-1.03125 2.92187,-1.03125 1.92188,0 3.125,1.26562 1.21875,1.25 1.21875,3.45313 0,1.79687 -0.54687,2.82812 -0.53125,1.03125 -1.5625,1.59375 -1.01563,0.5625 -2.23438,0.5625 -1.95312,0 -3.15625,-1.25 -1.20312,-1.25 -1.20312,-3.59375 z m 1.625,0 q 0,1.78125 0.76562,2.67188 0.78125,0.89062 1.96875,0.89062 1.17188,0 1.95313,-0.89062 0.78125,-0.90625 0.78125,-2.73438 0,-1.71875 -0.79688,-2.60937 -0.78125,-0.89063 -1.9375,-0.89063 -1.1875,0 -1.96875,0.89063 -0.76562,0.875 -0.76562,2.67187 z m 9.31105,4.64063 v -8.0625 h -1.39063 v -1.23438 h 1.39063 v -0.98437 q 0,-0.9375 0.15625,-1.39063 0.23437,-0.60937 0.79687,-0.98437 0.57813,-0.39063 1.60938,-0.39063 0.67187,0 1.46875,0.15625 l -0.23438,1.375 q -0.48437,-0.0937 -0.92187,-0.0937 -0.71875,0 -1.01563,0.3125 -0.29687,0.3125 -0.29687,1.14063 v 0.85937 h 1.8125 v 1.23438 h -1.8125 v 8.0625 z m 9.58356,-11.01563 v -1.8125 h 1.57812 v 1.8125 z m 0,11.01563 v -9.29688 h 1.57812 v 9.29688 z m 3.98167,0 v -9.29688 h 1.40625 v 1.32813 q 1.03125,-1.53125 2.96875,-1.53125 0.82813,0 1.53125,0.29687 0.71875,0.29688 1.0625,0.79688 0.34375,0.48437 0.48438,1.15625 0.0937,0.4375 0.0937,1.53125 v 5.71875 h -1.57813 v -5.65625 q 0,-0.95313 -0.1875,-1.42188 -0.17187,-0.48437 -0.64062,-0.76562 -0.46875,-0.29688 -1.10938,-0.29688 -1,0 -1.73437,0.64063 -0.73438,0.64062 -0.73438,2.42187 v 5.07813 z m 10.3423,0 v -8.0625 h -1.39062 v -1.23438 h 1.39062 v -0.98437 q 0,-0.9375 0.15625,-1.39063 0.23438,-0.60937 0.79688,-0.98437 0.57812,-0.39063 1.60937,-0.39063 0.67188,0 1.46875,0.15625 l -0.23437,1.375 q -0.48438,-0.0937 -0.92188,-0.0937 -0.71875,0 -1.01562,0.3125 -0.29688,0.3125 -0.29688,1.14063 v 0.85937 h 1.8125 v 1.23438 h -1.8125 v 8.0625 z m 4.5574,0 v -12.82813 h 1.57813 v 12.82813 z m 10.10668,0 v -1.35938 q -1.07813,1.5625 -2.9375,1.5625 -0.82813,0 -1.54688,-0.3125 -0.70312,-0.3125 -1.0625,-0.78125 -0.34375,-0.48437 -0.46875,-1.17187 -0.10937,-0.46875 -0.10937,-1.46875 v -5.76563 h 1.57812 v 5.15625 q 0,1.23438 0.0937,1.67188 0.15625,0.60937 0.625,0.96875 0.48438,0.35937 1.20313,0.35937 0.70312,0 1.32812,-0.35937 0.625,-0.375 0.875,-1 0.26563,-0.625 0.26563,-1.8125 v -4.98438 h 1.57812 v 9.29688 z m 10.24855,-3 1.625,0.20312 q -0.39063,1.4375 -1.4375,2.21875 -1.03125,0.78125 -2.65625,0.78125 -2.03125,0 -3.23438,-1.25 -1.1875,-1.25 -1.1875,-3.51562 0,-2.34375 1.20313,-3.64063 1.21875,-1.29687 3.14062,-1.29687 1.85938,0 3.03125,1.26562 1.1875,1.26563 1.1875,3.5625 0,0.14063 0,0.42188 h -6.9375 q 0.0937,1.53125 0.85938,2.35937 0.78125,0.8125 1.95312,0.8125 0.85938,0 1.46875,-0.45312 0.625,-0.46875 0.98438,-1.46875 z m -5.17188,-2.54688 h 5.1875 q -0.10937,-1.17187 -0.59375,-1.75 -0.75,-0.90625 -1.95312,-0.90625 -1.09375,0 -1.82813,0.73438 -0.73437,0.71875 -0.8125,1.92187 z m 8.77982,5.54688 v -9.29688 h 1.40625 v 1.32813 q 1.03125,-1.53125 2.96875,-1.53125 0.82812,0 1.53125,0.29687 0.71875,0.29688 1.0625,0.79688 0.34375,0.48437 0.48437,1.15625 0.0937,0.4375 0.0937,1.53125 v 5.71875 h -1.57812 v -5.65625 q 0,-0.95313 -0.1875,-1.42188 -0.17188,-0.48437 -0.64063,-0.76562 -0.46875,-0.29688 -1.10937,-0.29688 -1,0 -1.73438,0.64063 -0.73437,0.64062 -0.73437,2.42187 v 5.07813 z m 16.02978,-3.40625 1.54688,0.20312 q -0.25,1.60938 -1.29688,2.51563 -1.04687,0.89062 -2.57812,0.89062 -1.90625,0 -3.0625,-1.23437 -1.15625,-1.25 -1.15625,-3.57813 0,-1.5 0.5,-2.625 0.5,-1.14062 1.51562,-1.70312 1.01563,-0.5625 2.21875,-0.5625 1.51563,0 2.46875,0.76562 0.96875,0.76563 1.23438,2.17188 l -1.53125,0.23437 q -0.21875,-0.9375 -0.78125,-1.40625 -0.54688,-0.46875 -1.32813,-0.46875 -1.1875,0 -1.9375,0.85938 -0.75,0.84375 -0.75,2.6875 0,1.875 0.71875,2.73437 0.71875,0.84375 1.875,0.84375 0.9375,0 1.54688,-0.5625 0.625,-0.57812 0.79687,-1.76562 z m 9.25782,0.40625 1.625,0.20312 q -0.39063,1.4375 -1.4375,2.21875 -1.03125,0.78125 -2.65625,0.78125 -2.03125,0 -3.23438,-1.25 -1.1875,-1.25 -1.1875,-3.51562 0,-2.34375 1.20313,-3.64063 1.21875,-1.29687 3.14062,-1.29687 1.85938,0 3.03125,1.26562 1.1875,1.26563 1.1875,3.5625 0,0.14063 0,0.42188 h -6.9375 q 0.0937,1.53125 0.85938,2.35937 0.78125,0.8125 1.95312,0.8125 0.85938,0 1.46875,-0.45312 0.625,-0.46875 0.98438,-1.46875 z m -5.17188,-2.54688 h 5.1875 q -0.10937,-1.17187 -0.59375,-1.75 -0.75,-0.90625 -1.95312,-0.90625 -1.09375,0 -1.82813,0.73438 -0.73437,0.71875 -0.8125,1.92187 z"
       fill-rule="nonzero"
       id="path45" />
    <path
       fill="#c9daf8"
       d="m 81.480316,165.88715 h 59.653554 v 16.94487 H 81.480316 Z"
       fill-rule="evenodd"
       id="path46" />
    <path
       stroke="#595959"
       stroke-width="1"
       stroke-linejoin="round"
       stroke-linecap="butt"
       d="m 81.480316,165.88715 h 59.653554 v 16.94487 H 81.480316 Z"
       fill-rule="evenodd"
       id="path47" />
    <path
       fill="#000000"
       d="m 94.40335,179.15958 v -9.54688 h 1.25 v 9.54688 z m 3.327988,0 v -6.90625 h 1.0625 v 0.98437 q 0.75,-1.14062 2.187502,-1.14062 0.625,0 1.15625,0.21875 0.53125,0.21875 0.78125,0.59375 0.26562,0.35937 0.375,0.85937 0.0625,0.32813 0.0625,1.14063 v 4.25 h -1.17188 v -4.20313 q 0,-0.71875 -0.14062,-1.0625 -0.14063,-0.35937 -0.48438,-0.5625 -0.34375,-0.21875 -0.8125,-0.21875 -0.749997,0 -1.296872,0.46875 -0.546875,0.46875 -0.546875,1.79688 v 3.78125 z m 7.412472,2.65625 v -9.5625 h 1.07813 v 0.89062 q 0.375,-0.53125 0.84375,-0.78125 0.48437,-0.26562 1.15625,-0.26562 0.875,0 1.54687,0.45312 0.6875,0.45313 1.03125,1.28125 0.34375,0.82813 0.34375,1.82813 0,1.04687 -0.375,1.90625 -0.375,0.84375 -1.10937,1.29687 -0.71875,0.45313 -1.53125,0.45313 -0.57813,0 -1.04688,-0.25 -0.46875,-0.25 -0.76562,-0.625 v 3.375 z m 1.0625,-6.07813 q 0,1.34375 0.53125,1.98438 0.54688,0.625 1.3125,0.625 0.78125,0 1.34375,-0.65625 0.5625,-0.65625 0.5625,-2.04688 0,-1.3125 -0.54687,-1.96875 -0.54688,-0.67187 -1.29688,-0.67187 -0.75,0 -1.32812,0.70312 -0.57813,0.70313 -0.57813,2.03125 z m 10.88123,3.42188 v -1.01563 q -0.8125,1.17188 -2.1875,1.17188 -0.60938,0 -1.14063,-0.23438 -0.53125,-0.23437 -0.79687,-0.57812 -0.25,-0.35938 -0.35938,-0.875 -0.0625,-0.34375 -0.0625,-1.09375 v -4.28125 h 1.17188 v 3.82812 q 0,0.92188 0.0625,1.23438 0.10937,0.46875 0.46875,0.73437 0.35937,0.25 0.89062,0.25 0.51563,0 0.98438,-0.26562 0.46875,-0.26563 0.65625,-0.73438 0.1875,-0.46875 0.1875,-1.34375 v -3.70312 h 1.17187 v 6.90625 z m 5.44372,-1.04688 0.17188,1.03125 q -0.5,0.10938 -0.89063,0.10938 -0.64062,0 -1,-0.20313 -0.34375,-0.20312 -0.48437,-0.53125 -0.14063,-0.32812 -0.14063,-1.39062 v -3.96875 h -0.85937 v -0.90625 h 0.85937 v -1.71875 l 1.17188,-0.70313 v 2.42188 h 1.17187 v 0.90625 h -1.17187 v 4.04687 q 0,0.5 0.0469,0.64063 0.0625,0.14062 0.20313,0.23437 0.14062,0.0781 0.40625,0.0781 0.20312,0 0.51562,-0.0469 z m 0.67174,-1.01562 1.15625,-0.1875 q 0.10938,0.70312 0.54688,1.07812 0.45312,0.35938 1.25,0.35938 0.8125,0 1.20312,-0.32813 0.39063,-0.32812 0.39063,-0.76562 0,-0.39063 -0.35938,-0.625 -0.23437,-0.15625 -1.1875,-0.39063 -1.29687,-0.32812 -1.79687,-0.5625 -0.48438,-0.25 -0.75,-0.65625 -0.25,-0.42187 -0.25,-0.9375 0,-0.45312 0.20312,-0.84375 0.21875,-0.40625 0.57813,-0.67187 0.28125,-0.1875 0.75,-0.32813 0.46875,-0.14062 1.01562,-0.14062 0.8125,0 1.42188,0.23437 0.60937,0.23438 0.90625,0.64063 0.29687,0.39062 0.40625,1.0625 l -1.14063,0.15625 q -0.0781,-0.53125 -0.45312,-0.82813 -0.375,-0.3125 -1.0625,-0.3125 -0.8125,0 -1.15625,0.26563 -0.34375,0.26562 -0.34375,0.625 0,0.23437 0.14062,0.42187 0.15625,0.1875 0.45313,0.3125 0.17187,0.0625 1.03125,0.29688 1.25,0.32812 1.73437,0.54687 0.5,0.20313 0.78125,0.60938 0.28125,0.40625 0.28125,1 0,0.59375 -0.34375,1.10937 -0.34375,0.51563 -1,0.79688 -0.64062,0.28125 -1.45312,0.28125 -1.34375,0 -2.04688,-0.5625 -0.70312,-0.5625 -0.90625,-1.65625 z"
       fill-rule="nonzero"
       id="path48" />
    <path
       fill="#d9ead3"
       d="m 141.13387,165.88715 h 70.45668 v 16.94487 h -70.45668 z"
       fill-rule="evenodd"
       id="path49" />
    <path
       stroke="#595959"
       stroke-width="1"
       stroke-linejoin="round"
       stroke-linecap="butt"
       d="m 141.13387,165.88715 h 70.45668 v 16.94487 h -70.45668 z"
       fill-rule="evenodd"
       id="path50" />
    <path
       fill="#000000"
       d="m 153.66557,174.51895 q 0,-2.375 1.28125,-3.71875 1.28125,-1.34375 3.29687,-1.34375 1.3125,0 2.375,0.625 1.0625,0.625 1.60938,1.76562 0.5625,1.125 0.5625,2.5625 0,1.4375 -0.59375,2.59375 -0.57813,1.14063 -1.65625,1.73438 -1.0625,0.57812 -2.3125,0.57812 -1.34375,0 -2.40625,-0.64062 -1.0625,-0.65625 -1.60938,-1.78125 -0.54687,-1.125 -0.54687,-2.375 z m 1.3125,0.0156 q 0,1.71875 0.92187,2.71875 0.92188,0.98438 2.32813,0.98438 1.42187,0 2.34375,-1 0.92187,-1 0.92187,-2.84375 0,-1.15625 -0.40625,-2.03125 -0.39062,-0.875 -1.15625,-1.34375 -0.75,-0.48438 -1.6875,-0.48438 -1.34375,0 -2.3125,0.92188 -0.95312,0.92187 -0.95312,3.07812 z m 13.82017,4.625 v -1.01562 q -0.8125,1.17187 -2.1875,1.17187 -0.60937,0 -1.14062,-0.23437 -0.53125,-0.23438 -0.79688,-0.57813 -0.25,-0.35937 -0.35937,-0.875 -0.0625,-0.34375 -0.0625,-1.09375 v -4.28125 h 1.17187 v 3.82813 q 0,0.92187 0.0625,1.23437 0.10938,0.46875 0.46875,0.73438 0.35938,0.25 0.89063,0.25 0.51562,0 0.98437,-0.26563 0.46875,-0.26562 0.65625,-0.73437 0.1875,-0.46875 0.1875,-1.34375 v -3.70313 h 1.17188 v 6.90625 z m 5.44373,-1.04687 0.17188,1.03125 q -0.5,0.10937 -0.89063,0.10937 -0.64062,0 -1,-0.20312 -0.34375,-0.20313 -0.48437,-0.53125 -0.14063,-0.32813 -0.14063,-1.39063 v -3.96875 h -0.85937 v -0.90625 h 0.85937 v -1.71875 l 1.17188,-0.70312 v 2.42187 h 1.17187 v 0.90625 h -1.17187 v 4.04688 q 0,0.5 0.0469,0.64062 0.0625,0.14063 0.20313,0.23438 0.14062,0.0781 0.40625,0.0781 0.20312,0 0.51562,-0.0469 z m 1.14049,3.70312 v -9.5625 h 1.07812 v 0.89063 q 0.375,-0.53125 0.84375,-0.78125 0.48438,-0.26563 1.15625,-0.26563 0.875,0 1.54688,0.45313 0.6875,0.45312 1.03125,1.28125 0.34375,0.82812 0.34375,1.82812 0,1.04688 -0.375,1.90625 -0.375,0.84375 -1.10938,1.29688 -0.71875,0.45312 -1.53125,0.45312 -0.57812,0 -1.04687,-0.25 -0.46875,-0.25 -0.76563,-0.625 v 3.375 z m 1.0625,-6.07812 q 0,1.34375 0.53125,1.98437 0.54687,0.625 1.3125,0.625 0.78125,0 1.34375,-0.65625 0.5625,-0.65625 0.5625,-2.04687 0,-1.3125 -0.54688,-1.96875 -0.54687,-0.67188 -1.29687,-0.67188 -0.75,0 -1.32813,0.70313 -0.57812,0.70312 -0.57812,2.03125 z m 10.88122,3.42187 v -1.01562 q -0.8125,1.17187 -2.1875,1.17187 -0.60937,0 -1.14062,-0.23437 -0.53125,-0.23438 -0.79688,-0.57813 -0.25,-0.35937 -0.35937,-0.875 -0.0625,-0.34375 -0.0625,-1.09375 v -4.28125 h 1.17187 v 3.82813 q 0,0.92187 0.0625,1.23437 0.10938,0.46875 0.46875,0.73438 0.35938,0.25 0.89063,0.25 0.51562,0 0.98437,-0.26563 0.46875,-0.26562 0.65625,-0.73437 0.1875,-0.46875 0.1875,-1.34375 v -3.70313 h 1.17188 v 6.90625 z m 5.44373,-1.04687 0.17187,1.03125 q -0.5,0.10937 -0.89062,0.10937 -0.64063,0 -1,-0.20312 -0.34375,-0.20313 -0.48438,-0.53125 -0.14062,-0.32813 -0.14062,-1.39063 v -3.96875 h -0.85938 v -0.90625 h 0.85938 v -1.71875 l 1.17187,-0.70312 v 2.42187 h 1.17188 v 0.90625 h -1.17188 v 4.04688 q 0,0.5 0.0469,0.64062 0.0625,0.14063 0.20312,0.23438 0.14063,0.0781 0.40625,0.0781 0.20313,0 0.51563,-0.0469 z m 0.67174,-1.01563 1.15625,-0.1875 q 0.10937,0.70313 0.54687,1.07813 0.45313,0.35937 1.25,0.35937 0.8125,0 1.20313,-0.32812 0.39062,-0.32813 0.39062,-0.76563 0,-0.39062 -0.35937,-0.625 -0.23438,-0.15625 -1.1875,-0.39062 -1.29688,-0.32813 -1.79688,-0.5625 -0.48437,-0.25 -0.75,-0.65625 -0.25,-0.42188 -0.25,-0.9375 0,-0.45313 0.20313,-0.84375 0.21875,-0.40625 0.57812,-0.67188 0.28125,-0.1875 0.75,-0.32812 0.46875,-0.14063 1.01563,-0.14063 0.8125,0 1.42187,0.23438 0.60938,0.23437 0.90625,0.64062 0.29688,0.39063 0.40625,1.0625 l -1.14062,0.15625 q -0.0781,-0.53125 -0.45313,-0.82812 -0.375,-0.3125 -1.0625,-0.3125 -0.8125,0 -1.15625,0.26562 -0.34375,0.26563 -0.34375,0.625 0,0.23438 0.14063,0.42188 0.15625,0.1875 0.45312,0.3125 0.17188,0.0625 1.03125,0.29687 1.25,0.32813 1.73438,0.54688 0.5,0.20312 0.78125,0.60937 0.28125,0.40625 0.28125,1 0,0.59375 -0.34375,1.10938 -0.34375,0.51562 -1,0.79687 -0.64063,0.28125 -1.45313,0.28125 -1.34375,0 -2.04687,-0.5625 -0.70313,-0.5625 -0.90625,-1.65625 z"
       fill-rule="nonzero"
       id="path51" />
    <path
       fill="#a4c2f4"
       d="m 233.87927,165.88715 h 130.2992 v 16.94487 h -130.2992 z"
       fill-rule="evenodd"
       id="path52" />
    <path
       stroke="#595959"
       stroke-width="1"
       stroke-linejoin="round"
       stroke-linecap="butt"
       d="m 233.87927,165.88715 h 130.2992 v 16.94487 h -130.2992 z"
       fill-rule="evenodd"
       id="path53" />
    <path
       fill="#000000"
       d="m 267.6809,179.15958 v -9.54688 h 1.25 v 9.54688 z m 3.32797,0 v -6.90625 h 1.0625 v 0.98437 q 0.75,-1.14062 2.1875,-1.14062 0.625,0 1.15625,0.21875 0.53125,0.21875 0.78125,0.59375 0.26563,0.35937 0.375,0.85937 0.0625,0.32813 0.0625,1.14063 v 4.25 H 275.462 v -4.20313 q 0,-0.71875 -0.14063,-1.0625 -0.14062,-0.35937 -0.48437,-0.5625 -0.34375,-0.21875 -0.8125,-0.21875 -0.75,0 -1.29688,0.46875 -0.54687,0.46875 -0.54687,1.79688 v 3.78125 z m 7.69373,0 v -6 h -1.03125 v -0.90625 h 1.03125 v -0.73438 q 0,-0.70312 0.125,-1.04687 0.17187,-0.45313 0.59375,-0.73438 0.42187,-0.28125 1.20312,-0.28125 0.48438,0 1.09375,0.10938 l -0.1875,1.03125 q -0.35937,-0.0625 -0.6875,-0.0625 -0.53125,0 -0.75,0.23437 -0.21875,0.21875 -0.21875,0.84375 v 0.64063 h 1.34375 v 0.90625 h -1.34375 v 6 z m 3.40613,0 v -9.54688 h 1.17187 v 9.54688 z m 7.50796,0 v -1.01563 q -0.8125,1.17188 -2.1875,1.17188 -0.60937,0 -1.14062,-0.23438 -0.53125,-0.23437 -0.79688,-0.57812 -0.25,-0.35938 -0.35937,-0.875 -0.0625,-0.34375 -0.0625,-1.09375 v -4.28125 h 1.17187 v 3.82812 q 0,0.92188 0.0625,1.23438 0.10938,0.46875 0.46875,0.73437 0.35938,0.25 0.89063,0.25 0.51562,0 0.98437,-0.26562 0.46875,-0.26563 0.65625,-0.73438 0.1875,-0.46875 0.1875,-1.34375 v -3.70312 h 1.17188 v 6.90625 z m 7.6156,-2.21875 1.20313,0.14062 q -0.28125,1.0625 -1.0625,1.65625 -0.76563,0.57813 -1.96875,0.57813 -1.51563,0 -2.40625,-0.9375 -0.89063,-0.9375 -0.89063,-2.60938 0,-1.75 0.89063,-2.70312 0.90625,-0.96875 2.34375,-0.96875 1.39062,0 2.26562,0.9375 0.875,0.9375 0.875,2.65625 0,0.10937 0,0.3125 h -5.15625 q 0.0625,1.14062 0.64063,1.75 0.57812,0.59375 1.4375,0.59375 0.65625,0 1.10937,-0.32813 0.45313,-0.34375 0.71875,-1.07812 z m -3.84375,-1.90625 h 3.85938 q -0.0781,-0.85938 -0.4375,-1.29688 -0.5625,-0.6875 -1.45313,-0.6875 -0.8125,0 -1.35937,0.54688 -0.54688,0.53125 -0.60938,1.4375 z m 6.52185,4.125 v -6.90625 h 1.0625 v 0.98437 q 0.75,-1.14062 2.1875,-1.14062 0.625,0 1.15625,0.21875 0.53125,0.21875 0.78125,0.59375 0.26563,0.35937 0.375,0.85937 0.0625,0.32813 0.0625,1.14063 v 4.25 h -1.17187 v -4.20313 q 0,-0.71875 -0.14063,-1.0625 -0.14062,-0.35937 -0.48437,-0.5625 -0.34375,-0.21875 -0.8125,-0.21875 -0.75,0 -1.29688,0.46875 -0.54687,0.46875 -0.54687,1.79688 v 3.78125 z m 11.9281,-2.53125 1.15625,0.15625 q -0.1875,1.1875 -0.96875,1.85937 -0.78125,0.67188 -1.92187,0.67188 -1.40625,0 -2.28125,-0.92188 -0.85938,-0.9375 -0.85938,-2.65625 0,-1.125 0.375,-1.96875 0.375,-0.84375 1.125,-1.25 0.76563,-0.42187 1.65625,-0.42187 1.125,0 1.84375,0.57812 0.71875,0.5625 0.92188,1.60938 l -1.14063,0.17187 q -0.17187,-0.70312 -0.59375,-1.04687 -0.40625,-0.35938 -0.98437,-0.35938 -0.89063,0 -1.45313,0.64063 -0.54687,0.64062 -0.54687,2 0,1.40625 0.53125,2.03125 0.54687,0.625 1.40625,0.625 0.6875,0 1.14062,-0.42188 0.46875,-0.42187 0.59375,-1.29687 z m 6.88282,0.3125 1.20312,0.14062 q -0.28125,1.0625 -1.0625,1.65625 -0.76562,0.57813 -1.96875,0.57813 -1.51562,0 -2.40625,-0.9375 -0.89062,-0.9375 -0.89062,-2.60938 0,-1.75 0.89062,-2.70312 0.90625,-0.96875 2.34375,-0.96875 1.39063,0 2.26563,0.9375 0.875,0.9375 0.875,2.65625 0,0.10937 0,0.3125 h -5.15625 q 0.0625,1.14062 0.64062,1.75 0.57813,0.59375 1.4375,0.59375 0.65625,0 1.10938,-0.32813 0.45312,-0.34375 0.71875,-1.07812 z m -3.84375,-1.90625 h 3.85937 q -0.0781,-0.85938 -0.4375,-1.29688 -0.5625,-0.6875 -1.45312,-0.6875 -0.8125,0 -1.35938,0.54688 -0.54687,0.53125 -0.60937,1.4375 z m 6.50622,4.125 v -6.90625 h 1.0625 v 1.04687 q 0.40625,-0.73437 0.73438,-0.96875 0.34375,-0.23437 0.76562,-0.23437 0.59375,0 1.20313,0.375 l -0.40625,1.07812 q -0.4375,-0.25 -0.85938,-0.25 -0.39062,0 -0.70312,0.23438 -0.29688,0.23437 -0.42188,0.64062 -0.20312,0.625 -0.20312,1.35938 v 3.625 z m 3.98523,-2.0625 1.15625,-0.1875 q 0.10938,0.70312 0.54688,1.07812 0.45312,0.35938 1.25,0.35938 0.8125,0 1.20312,-0.32813 0.39063,-0.32812 0.39063,-0.76562 0,-0.39063 -0.35938,-0.625 -0.23437,-0.15625 -1.1875,-0.39063 -1.29687,-0.32812 -1.79687,-0.5625 -0.48438,-0.25 -0.75,-0.65625 -0.25,-0.42187 -0.25,-0.9375 0,-0.45312 0.20312,-0.84375 0.21875,-0.40625 0.57813,-0.67187 0.28125,-0.1875 0.75,-0.32813 0.46875,-0.14062 1.01562,-0.14062 0.8125,0 1.42188,0.23437 0.60937,0.23438 0.90625,0.64063 0.29687,0.39062 0.40625,1.0625 l -1.14063,0.15625 q -0.0781,-0.53125 -0.45312,-0.82813 -0.375,-0.3125 -1.0625,-0.3125 -0.8125,0 -1.15625,0.26563 -0.34375,0.26562 -0.34375,0.625 0,0.23437 0.14062,0.42187 0.15625,0.1875 0.45313,0.3125 0.17187,0.0625 1.03125,0.29688 1.25,0.32812 1.73437,0.54687 0.5,0.20313 0.78125,0.60938 0.28125,0.40625 0.28125,1 0,0.59375 -0.34375,1.10937 -0.34375,0.51563 -1,0.79688 -0.64062,0.28125 -1.45312,0.28125 -1.34375,0 -2.04688,-0.5625 -0.70312,-0.5625 -0.90625,-1.65625 z"
       fill-rule="nonzero"
       id="path54" />
    <path
       fill="#a4c2f4"
       d="m 386.4672,165.88715 h 130.29922 v 16.94487 H 386.4672 Z"
       fill-rule="evenodd"
       id="path55" />
    <path
       stroke="#595959"
       stroke-width="1"
       stroke-linejoin="round"
       stroke-linecap="butt"
       d="m 386.4672,165.88715 h 130.29922 v 16.94487 H 386.4672 Z"
       fill-rule="evenodd"
       id="path56" />
    <path
       fill="#000000"
       d="m 420.26883,179.15958 v -9.54688 h 1.25 v 9.54688 z m 3.32797,0 v -6.90625 h 1.0625 v 0.98437 q 0.75,-1.14062 2.1875,-1.14062 0.625,0 1.15625,0.21875 0.53125,0.21875 0.78125,0.59375 0.26563,0.35937 0.375,0.85937 0.0625,0.32813 0.0625,1.14063 v 4.25 h -1.17187 v -4.20313 q 0,-0.71875 -0.14063,-1.0625 -0.14062,-0.35937 -0.48437,-0.5625 -0.34375,-0.21875 -0.8125,-0.21875 -0.75,0 -1.29688,0.46875 -0.54687,0.46875 -0.54687,1.79688 v 3.78125 z m 7.69373,0 v -6 h -1.03125 v -0.90625 h 1.03125 v -0.73438 q 0,-0.70312 0.125,-1.04687 0.17187,-0.45313 0.59375,-0.73438 0.42187,-0.28125 1.20312,-0.28125 0.48438,0 1.09375,0.10938 l -0.1875,1.03125 q -0.35937,-0.0625 -0.6875,-0.0625 -0.53125,0 -0.75,0.23437 -0.21875,0.21875 -0.21875,0.84375 v 0.64063 h 1.34375 v 0.90625 h -1.34375 v 6 z m 3.40613,0 v -9.54688 h 1.17187 v 9.54688 z m 7.50796,0 v -1.01563 q -0.8125,1.17188 -2.1875,1.17188 -0.60937,0 -1.14062,-0.23438 -0.53125,-0.23437 -0.79688,-0.57812 -0.25,-0.35938 -0.35937,-0.875 -0.0625,-0.34375 -0.0625,-1.09375 v -4.28125 h 1.17187 v 3.82812 q 0,0.92188 0.0625,1.23438 0.10938,0.46875 0.46875,0.73437 0.35938,0.25 0.89063,0.25 0.51562,0 0.98437,-0.26562 0.46875,-0.26563 0.65625,-0.73438 0.1875,-0.46875 0.1875,-1.34375 v -3.70312 h 1.17188 v 6.90625 z m 7.6156,-2.21875 1.20313,0.14062 q -0.28125,1.0625 -1.0625,1.65625 -0.76563,0.57813 -1.96875,0.57813 -1.51563,0 -2.40625,-0.9375 -0.89063,-0.9375 -0.89063,-2.60938 0,-1.75 0.89063,-2.70312 0.90625,-0.96875 2.34375,-0.96875 1.39062,0 2.26562,0.9375 0.875,0.9375 0.875,2.65625 0,0.10937 0,0.3125 h -5.15625 q 0.0625,1.14062 0.64063,1.75 0.57812,0.59375 1.4375,0.59375 0.65625,0 1.10937,-0.32813 0.45313,-0.34375 0.71875,-1.07812 z m -3.84375,-1.90625 h 3.85938 q -0.0781,-0.85938 -0.4375,-1.29688 -0.5625,-0.6875 -1.45313,-0.6875 -0.8125,0 -1.35937,0.54688 -0.54688,0.53125 -0.60938,1.4375 z m 6.52185,4.125 v -6.90625 h 1.0625 v 0.98437 q 0.75,-1.14062 2.1875,-1.14062 0.625,0 1.15625,0.21875 0.53125,0.21875 0.78125,0.59375 0.26563,0.35937 0.375,0.85937 0.0625,0.32813 0.0625,1.14063 v 4.25 h -1.17187 v -4.20313 q 0,-0.71875 -0.14063,-1.0625 -0.14062,-0.35937 -0.48437,-0.5625 -0.34375,-0.21875 -0.8125,-0.21875 -0.75,0 -1.29688,0.46875 -0.54687,0.46875 -0.54687,1.79688 v 3.78125 z m 11.9281,-2.53125 1.15625,0.15625 q -0.1875,1.1875 -0.96875,1.85937 -0.78125,0.67188 -1.92187,0.67188 -1.40625,0 -2.28125,-0.92188 -0.85938,-0.9375 -0.85938,-2.65625 0,-1.125 0.375,-1.96875 0.375,-0.84375 1.125,-1.25 0.76563,-0.42187 1.65625,-0.42187 1.125,0 1.84375,0.57812 0.71875,0.5625 0.92188,1.60938 l -1.14063,0.17187 q -0.17187,-0.70312 -0.59375,-1.04687 -0.40625,-0.35938 -0.98437,-0.35938 -0.89063,0 -1.45313,0.64063 -0.54687,0.64062 -0.54687,2 0,1.40625 0.53125,2.03125 0.54687,0.625 1.40625,0.625 0.6875,0 1.14062,-0.42188 0.46875,-0.42187 0.59375,-1.29687 z m 6.88282,0.3125 1.20312,0.14062 q -0.28125,1.0625 -1.0625,1.65625 -0.76562,0.57813 -1.96875,0.57813 -1.51562,0 -2.40625,-0.9375 -0.89062,-0.9375 -0.89062,-2.60938 0,-1.75 0.89062,-2.70312 0.90625,-0.96875 2.34375,-0.96875 1.39063,0 2.26563,0.9375 0.875,0.9375 0.875,2.65625 0,0.10937 0,0.3125 h -5.15625 q 0.0625,1.14062 0.64062,1.75 0.57813,0.59375 1.4375,0.59375 0.65625,0 1.10938,-0.32813 0.45312,-0.34375 0.71875,-1.07812 z m -3.84375,-1.90625 h 3.85937 q -0.0781,-0.85938 -0.4375,-1.29688 -0.5625,-0.6875 -1.45312,-0.6875 -0.8125,0 -1.35938,0.54688 -0.54687,0.53125 -0.60937,1.4375 z m 6.50622,4.125 v -6.90625 h 1.0625 v 1.04687 q 0.40625,-0.73437 0.73438,-0.96875 0.34375,-0.23437 0.76562,-0.23437 0.59375,0 1.20313,0.375 l -0.40625,1.07812 q -0.4375,-0.25 -0.85938,-0.25 -0.39062,0 -0.70312,0.23438 -0.29688,0.23437 -0.42188,0.64062 -0.20312,0.625 -0.20312,1.35938 v 3.625 z m 3.98523,-2.0625 1.15625,-0.1875 q 0.10938,0.70312 0.54688,1.07812 0.45312,0.35938 1.25,0.35938 0.8125,0 1.20312,-0.32813 0.39063,-0.32812 0.39063,-0.76562 0,-0.39063 -0.35938,-0.625 -0.23437,-0.15625 -1.1875,-0.39063 -1.29687,-0.32812 -1.79687,-0.5625 -0.48438,-0.25 -0.75,-0.65625 -0.25,-0.42187 -0.25,-0.9375 0,-0.45312 0.20312,-0.84375 0.21875,-0.40625 0.57813,-0.67187 0.28125,-0.1875 0.75,-0.32813 0.46875,-0.14062 1.01562,-0.14062 0.8125,0 1.42188,0.23437 0.60937,0.23438 0.90625,0.64063 0.29687,0.39062 0.40625,1.0625 l -1.14063,0.15625 q -0.0781,-0.53125 -0.45312,-0.82813 -0.375,-0.3125 -1.0625,-0.3125 -0.8125,0 -1.15625,0.26563 -0.34375,0.26562 -0.34375,0.625 0,0.23437 0.14062,0.42187 0.15625,0.1875 0.45313,0.3125 0.17187,0.0625 1.03125,0.29688 1.25,0.32812 1.73437,0.54687 0.5,0.20313 0.78125,0.60938 0.28125,0.40625 0.28125,1 0,0.59375 -0.34375,1.10937 -0.34375,0.51563 -1,0.79688 -0.64062,0.28125 -1.45312,0.28125 -1.34375,0 -2.04688,-0.5625 -0.70312,-0.5625 -0.90625,-1.65625 z"
       fill-rule="nonzero"
       id="path57" />
    <path
       fill="#c9daf8"
       d="m 539.0551,165.88715 h 59.65356 v 16.94487 H 539.0551 Z"
       fill-rule="evenodd"
       id="path58" />
    <path
       stroke="#595959"
       stroke-width="1"
       stroke-linejoin="round"
       stroke-linecap="butt"
       d="m 539.0551,165.88715 h 59.65356 v 16.94487 H 539.0551 Z"
       fill-rule="evenodd"
       id="path59" />
    <path
       fill="#000000"
       d="m 551.97815,179.15958 v -9.54688 h 1.25 v 9.54688 z m 3.328,0 v -6.90625 h 1.0625 v 0.98437 q 0.75,-1.14062 2.1875,-1.14062 0.625,0 1.15625,0.21875 0.53125,0.21875 0.78125,0.59375 0.26563,0.35937 0.375,0.85937 0.0625,0.32813 0.0625,1.14063 v 4.25 h -1.17187 v -4.20313 q 0,-0.71875 -0.14063,-1.0625 -0.14062,-0.35937 -0.48437,-0.5625 -0.34375,-0.21875 -0.8125,-0.21875 -0.75,0 -1.29688,0.46875 -0.54687,0.46875 -0.54687,1.79688 v 3.78125 z m 7.41248,2.65625 v -9.5625 h 1.07812 v 0.89062 q 0.375,-0.53125 0.84375,-0.78125 0.48438,-0.26562 1.15625,-0.26562 0.875,0 1.54688,0.45312 0.6875,0.45313 1.03125,1.28125 0.34375,0.82813 0.34375,1.82813 0,1.04687 -0.375,1.90625 -0.375,0.84375 -1.10938,1.29687 -0.71875,0.45313 -1.53125,0.45313 -0.57812,0 -1.04687,-0.25 -0.46875,-0.25 -0.76563,-0.625 v 3.375 z m 1.0625,-6.07813 q 0,1.34375 0.53125,1.98438 0.54687,0.625 1.3125,0.625 0.78125,0 1.34375,-0.65625 0.5625,-0.65625 0.5625,-2.04688 0,-1.3125 -0.54688,-1.96875 -0.54687,-0.67187 -1.29687,-0.67187 -0.75,0 -1.32813,0.70312 -0.57812,0.70313 -0.57812,2.03125 z m 10.88122,3.42188 v -1.01563 q -0.8125,1.17188 -2.1875,1.17188 -0.60937,0 -1.14062,-0.23438 -0.53125,-0.23437 -0.79688,-0.57812 -0.25,-0.35938 -0.35937,-0.875 -0.0625,-0.34375 -0.0625,-1.09375 v -4.28125 h 1.17187 v 3.82812 q 0,0.92188 0.0625,1.23438 0.10938,0.46875 0.46875,0.73437 0.35938,0.25 0.89063,0.25 0.51562,0 0.98437,-0.26562 0.46875,-0.26563 0.65625,-0.73438 0.1875,-0.46875 0.1875,-1.34375 v -3.70312 h 1.17188 v 6.90625 z m 5.44373,-1.04688 0.17188,1.03125 q -0.5,0.10938 -0.89063,0.10938 -0.64062,0 -1,-0.20313 -0.34375,-0.20312 -0.48437,-0.53125 -0.14063,-0.32812 -0.14063,-1.39062 v -3.96875 h -0.85937 v -0.90625 h 0.85937 v -1.71875 l 1.17188,-0.70313 v 2.42188 h 1.17187 v 0.90625 h -1.17187 v 4.04687 q 0,0.5 0.0469,0.64063 0.0625,0.14062 0.20313,0.23437 0.14062,0.0781 0.40625,0.0781 0.20312,0 0.51562,-0.0469 z m 0.67175,-1.01562 1.15625,-0.1875 q 0.10938,0.70312 0.54688,1.07812 0.45312,0.35938 1.25,0.35938 0.8125,0 1.20312,-0.32813 0.39063,-0.32812 0.39063,-0.76562 0,-0.39063 -0.35938,-0.625 -0.23437,-0.15625 -1.1875,-0.39063 -1.29687,-0.32812 -1.79687,-0.5625 -0.48438,-0.25 -0.75,-0.65625 -0.25,-0.42187 -0.25,-0.9375 0,-0.45312 0.20312,-0.84375 0.21875,-0.40625 0.57813,-0.67187 0.28125,-0.1875 0.75,-0.32813 0.46875,-0.14062 1.01562,-0.14062 0.8125,0 1.42188,0.23437 0.60937,0.23438 0.90625,0.64063 0.29687,0.39062 0.40625,1.0625 l -1.14063,0.15625 q -0.0781,-0.53125 -0.45312,-0.82813 -0.375,-0.3125 -1.0625,-0.3125 -0.8125,0 -1.15625,0.26563 -0.34375,0.26562 -0.34375,0.625 0,0.23437 0.14062,0.42187 0.15625,0.1875 0.45313,0.3125 0.17187,0.0625 1.03125,0.29688 1.25,0.32812 1.73437,0.54687 0.5,0.20313 0.78125,0.60938 0.28125,0.40625 0.28125,1 0,0.59375 -0.34375,1.10937 -0.34375,0.51563 -1,0.79688 -0.64062,0.28125 -1.45312,0.28125 -1.34375,0 -2.04688,-0.5625 -0.70312,-0.5625 -0.90625,-1.65625 z"
       fill-rule="nonzero"
       id="path60" />
    <path
       fill="#d9ead3"
       d="m 598.7087,165.88715 h 70.45667 v 16.94487 H 598.7087 Z"
       fill-rule="evenodd"
       id="path61" />
    <path
       stroke="#595959"
       stroke-width="1"
       stroke-linejoin="round"
       stroke-linecap="butt"
       d="m 598.7087,165.88715 h 70.45667 v 16.94487 H 598.7087 Z"
       fill-rule="evenodd"
       id="path62" />
    <path
       fill="#000000"
       d="m 611.24036,174.51895 q 0,-2.375 1.28125,-3.71875 1.28125,-1.34375 3.29687,-1.34375 1.3125,0 2.375,0.625 1.0625,0.625 1.60938,1.76562 0.5625,1.125 0.5625,2.5625 0,1.4375 -0.59375,2.59375 -0.57813,1.14063 -1.65625,1.73438 -1.0625,0.57812 -2.3125,0.57812 -1.34375,0 -2.40625,-0.64062 -1.0625,-0.65625 -1.60938,-1.78125 -0.54687,-1.125 -0.54687,-2.375 z m 1.3125,0.0156 q 0,1.71875 0.92187,2.71875 0.92188,0.98438 2.32813,0.98438 1.42187,0 2.34375,-1 0.92187,-1 0.92187,-2.84375 0,-1.15625 -0.40625,-2.03125 -0.39062,-0.875 -1.15625,-1.34375 -0.75,-0.48438 -1.6875,-0.48438 -1.34375,0 -2.3125,0.92188 -0.95312,0.92187 -0.95312,3.07812 z m 13.82019,4.625 v -1.01562 q -0.8125,1.17187 -2.1875,1.17187 -0.60937,0 -1.14062,-0.23437 -0.53125,-0.23438 -0.79688,-0.57813 -0.25,-0.35937 -0.35937,-0.875 -0.0625,-0.34375 -0.0625,-1.09375 v -4.28125 h 1.17187 v 3.82813 q 0,0.92187 0.0625,1.23437 0.10938,0.46875 0.46875,0.73438 0.35938,0.25 0.89063,0.25 0.51562,0 0.98437,-0.26563 0.46875,-0.26562 0.65625,-0.73437 0.1875,-0.46875 0.1875,-1.34375 v -3.70313 h 1.17188 v 6.90625 z m 5.44373,-1.04687 0.17187,1.03125 q -0.5,0.10937 -0.89062,0.10937 -0.64063,0 -1,-0.20312 -0.34375,-0.20313 -0.48438,-0.53125 -0.14062,-0.32813 -0.14062,-1.39063 v -3.96875 h -0.85938 v -0.90625 h 0.85938 v -1.71875 l 1.17187,-0.70312 v 2.42187 h 1.17188 v 0.90625 h -1.17188 v 4.04688 q 0,0.5 0.0469,0.64062 0.0625,0.14063 0.20312,0.23438 0.14063,0.0781 0.40625,0.0781 0.20313,0 0.51563,-0.0469 z m 1.1405,3.70312 v -9.5625 h 1.07812 v 0.89063 q 0.375,-0.53125 0.84375,-0.78125 0.48438,-0.26563 1.15625,-0.26563 0.875,0 1.54688,0.45313 0.6875,0.45312 1.03125,1.28125 0.34375,0.82812 0.34375,1.82812 0,1.04688 -0.375,1.90625 -0.375,0.84375 -1.10938,1.29688 -0.71875,0.45312 -1.53125,0.45312 -0.57812,0 -1.04687,-0.25 -0.46875,-0.25 -0.76563,-0.625 v 3.375 z m 1.0625,-6.07812 q 0,1.34375 0.53125,1.98437 0.54687,0.625 1.3125,0.625 0.78125,0 1.34375,-0.65625 0.5625,-0.65625 0.5625,-2.04687 0,-1.3125 -0.54688,-1.96875 -0.54687,-0.67188 -1.29687,-0.67188 -0.75,0 -1.32813,0.70313 -0.57812,0.70312 -0.57812,2.03125 z m 10.88122,3.42187 v -1.01562 q -0.8125,1.17187 -2.1875,1.17187 -0.60937,0 -1.14062,-0.23437 -0.53125,-0.23438 -0.79688,-0.57813 -0.25,-0.35937 -0.35937,-0.875 -0.0625,-0.34375 -0.0625,-1.09375 v -4.28125 h 1.17187 v 3.82813 q 0,0.92187 0.0625,1.23437 0.10938,0.46875 0.46875,0.73438 0.35938,0.25 0.89063,0.25 0.51562,0 0.98437,-0.26563 0.46875,-0.26562 0.65625,-0.73437 0.1875,-0.46875 0.1875,-1.34375 v -3.70313 h 1.17188 v 6.90625 z m 5.44373,-1.04687 0.17188,1.03125 q -0.5,0.10937 -0.89063,0.10937 -0.64062,0 -1,-0.20312 -0.34375,-0.20313 -0.48437,-0.53125 -0.14063,-0.32813 -0.14063,-1.39063 v -3.96875 h -0.85937 v -0.90625 h 0.85937 v -1.71875 l 1.17188,-0.70312 v 2.42187 h 1.17187 v 0.90625 h -1.17187 v 4.04688 q 0,0.5 0.0469,0.64062 0.0625,0.14063 0.20313,0.23438 0.14062,0.0781 0.40625,0.0781 0.20312,0 0.51562,-0.0469 z m 0.67175,-1.01563 1.15625,-0.1875 q 0.10938,0.70313 0.54688,1.07813 0.45312,0.35937 1.25,0.35937 0.8125,0 1.20312,-0.32812 0.39063,-0.32813 0.39063,-0.76563 0,-0.39062 -0.35938,-0.625 -0.23437,-0.15625 -1.1875,-0.39062 -1.29687,-0.32813 -1.79687,-0.5625 -0.48438,-0.25 -0.75,-0.65625 -0.25,-0.42188 -0.25,-0.9375 0,-0.45313 0.20312,-0.84375 0.21875,-0.40625 0.57813,-0.67188 0.28125,-0.1875 0.75,-0.32812 0.46875,-0.14063 1.01562,-0.14063 0.8125,0 1.42188,0.23438 0.60937,0.23437 0.90625,0.64062 0.29687,0.39063 0.40625,1.0625 l -1.14063,0.15625 q -0.0781,-0.53125 -0.45312,-0.82812 -0.375,-0.3125 -1.0625,-0.3125 -0.8125,0 -1.15625,0.26562 -0.34375,0.26563 -0.34375,0.625 0,0.23438 0.14062,0.42188 0.15625,0.1875 0.45313,0.3125 0.17187,0.0625 1.03125,0.29687 1.25,0.32813 1.73437,0.54688 0.5,0.20312 0.78125,0.60937 0.28125,0.40625 0.28125,1 0,0.59375 -0.34375,1.10938 -0.34375,0.51562 -1,0.79687 -0.64062,0.28125 -1.45312,0.28125 -1.34375,0 -2.04688,-0.5625 -0.70312,-0.5625 -0.90625,-1.65625 z"
       fill-rule="nonzero"
       id="path63" />
    <path
       fill="#eeeeee"
       d="m 538.59735,299.26724 c 0,-5.26785 4.27045,-9.53827 9.53827,-9.53827 h 111.19122 c 2.52972,0 4.95581,1.00494 6.74457,2.7937 1.78875,1.78876 2.7937,4.21485 2.7937,6.74457 v 38.15186 c 0,5.26782 -4.27045,9.53823 -9.53827,9.53823 H 548.13562 c -5.26782,0 -9.53827,-4.27041 -9.53827,-9.53823 z"
       fill-rule="evenodd"
       id="path64" />
    <path
       stroke="#595959"
       stroke-width="1.01575"
       stroke-linejoin="round"
       stroke-linecap="butt"
       d="m 538.59735,299.26724 c 0,-5.26785 4.27045,-9.53827 9.53827,-9.53827 h 111.19122 c 2.52972,0 4.95581,1.00494 6.74457,2.7937 1.78875,1.78876 2.7937,4.21485 2.7937,6.74457 v 38.15186 c 0,5.26782 -4.27045,9.53823 -9.53827,9.53823 H 548.13562 c -5.26782,0 -9.53827,-4.27041 -9.53827,-9.53823 z"
       fill-rule="evenodd"
       id="path65" />
    <path
       fill="#000000"
       d="M 569.7474,325.08725 V 311.4935 h 1.79687 v 11.98437 h 6.70313 v 1.60938 z m 10.5669,0 V 311.4935 h 1.79687 v 11.98437 h 6.70313 v 1.60938 z m 10.58252,0 V 311.4935 h 2.71875 l 3.21875,9.625 q 0.4375,1.34375 0.64062,2.01562 0.23438,-0.75 0.73438,-2.1875 l 3.25,-9.45312 h 2.42187 v 13.59375 h -1.73437 v -11.39063 l -3.95313,11.39063 h -1.625 l -3.9375,-11.57813 v 11.57813 z m 27.3872,-3.60938 1.64063,0.21875 q -0.26563,1.6875 -1.375,2.65625 -1.10938,0.95313 -2.73438,0.95313 -2.01562,0 -3.25,-1.3125 -1.21875,-1.32813 -1.21875,-3.79688 0,-1.59375 0.51563,-2.78125 0.53125,-1.20312 1.60937,-1.79687 1.09375,-0.60938 2.35938,-0.60938 1.60937,0 2.625,0.8125 1.01562,0.8125 1.3125,2.3125 l -1.625,0.25 q -0.23438,-1 -0.82813,-1.5 -0.59375,-0.5 -1.42187,-0.5 -1.26563,0 -2.0625,0.90625 -0.78125,0.90625 -0.78125,2.85938 0,1.98437 0.76562,2.89062 0.76563,0.89063 1.98438,0.89063 0.98437,0 1.64062,-0.59375 0.65625,-0.60938 0.84375,-1.85938 z m 9.5,2.39063 q -0.9375,0.79687 -1.79687,1.125 -0.85938,0.3125 -1.84375,0.3125 -1.60938,0 -2.48438,-0.78125 -0.875,-0.79688 -0.875,-2.03125 0,-0.73438 0.32813,-1.32813 0.32812,-0.59375 0.85937,-0.95312 0.53125,-0.35938 1.20313,-0.54688 0.5,-0.14062 1.48437,-0.25 2.03125,-0.25 2.98438,-0.57812 0,-0.34375 0,-0.4375 0,-1.01563 -0.46875,-1.4375 -0.64063,-0.5625 -1.90625,-0.5625 -1.17188,0 -1.73438,0.40625 -0.5625,0.40625 -0.82812,1.46875 l -1.64063,-0.23438 q 0.23438,-1.04687 0.73438,-1.6875 0.51562,-0.64062 1.46875,-0.98437 0.96875,-0.35938 2.25,-0.35938 1.26562,0 2.04687,0.29688 0.78125,0.29687 1.15625,0.75 0.375,0.45312 0.51563,1.14062 0.0937,0.42188 0.0937,1.53125 v 2.23438 q 0,2.32812 0.0937,2.95312 0.10937,0.60938 0.4375,1.17188 h -1.75 q -0.26563,-0.51563 -0.32813,-1.21875 z m -0.14062,-3.71875 q -0.90625,0.35937 -2.73438,0.625 -1.03125,0.14062 -1.45312,0.32812 -0.42188,0.1875 -0.65625,0.54688 -0.23438,0.35937 -0.23438,0.79687 0,0.67188 0.5,1.125 0.51563,0.4375 1.48438,0.4375 0.96875,0 1.71875,-0.42187 0.75,-0.4375 1.10937,-1.15625 0.26563,-0.57813 0.26563,-1.67188 z m 4.23877,4.9375 V 311.4935 h 1.67187 v 13.59375 z m 4.22119,0 V 311.4935 h 1.67187 v 13.59375 z"
       fill-rule="nonzero"
       id="path66" />
    <path
       fill="#c9daf8"
       d="m 538.9554,268.2546 h 59.65356 v 16.94485 H 538.9554 Z"
       fill-rule="evenodd"
       id="path67" />
    <path
       stroke="#595959"
       stroke-width="1"
       stroke-linejoin="round"
       stroke-linecap="butt"
       d="m 538.9554,268.2546 h 59.65356 v 16.94485 H 538.9554 Z"
       fill-rule="evenodd"
       id="path68" />
    <path
       fill="#000000"
       d="m 551.8784,281.52704 v -9.54688 h 1.25 v 9.54688 z m 3.328,0 v -6.90625 h 1.0625 v 0.98437 q 0.75,-1.14062 2.1875,-1.14062 0.625,0 1.15625,0.21875 0.53125,0.21875 0.78125,0.59375 0.26563,0.35937 0.375,0.85937 0.0625,0.32813 0.0625,1.14063 v 4.25 h -1.17187 v -4.20313 q 0,-0.71875 -0.14063,-1.0625 -0.14062,-0.35937 -0.48437,-0.5625 -0.34375,-0.21875 -0.8125,-0.21875 -0.75,0 -1.29688,0.46875 -0.54687,0.46875 -0.54687,1.79688 v 3.78125 z m 7.41248,2.65625 v -9.5625 h 1.07812 v 0.89062 q 0.375,-0.53125 0.84375,-0.78125 0.48438,-0.26562 1.15625,-0.26562 0.875,0 1.54688,0.45312 0.6875,0.45313 1.03125,1.28125 0.34375,0.82813 0.34375,1.82813 0,1.04687 -0.375,1.90625 -0.375,0.84375 -1.10938,1.29687 -0.71875,0.45313 -1.53125,0.45313 -0.57812,0 -1.04687,-0.25 -0.46875,-0.25 -0.76563,-0.625 v 3.375 z m 1.0625,-6.07813 q 0,1.34375 0.53125,1.98438 0.54687,0.625 1.3125,0.625 0.78125,0 1.34375,-0.65625 0.5625,-0.65625 0.5625,-2.04688 0,-1.3125 -0.54688,-1.96875 -0.54687,-0.67187 -1.29687,-0.67187 -0.75,0 -1.32813,0.70312 -0.57812,0.70313 -0.57812,2.03125 z m 10.88122,3.42188 v -1.01563 q -0.8125,1.17188 -2.1875,1.17188 -0.60937,0 -1.14062,-0.23438 -0.53125,-0.23437 -0.79688,-0.57812 -0.25,-0.35938 -0.35937,-0.875 -0.0625,-0.34375 -0.0625,-1.09375 v -4.28125 h 1.17187 v 3.82812 q 0,0.92188 0.0625,1.23438 0.10938,0.46875 0.46875,0.73437 0.35938,0.25 0.89063,0.25 0.51562,0 0.98437,-0.26562 0.46875,-0.26563 0.65625,-0.73438 0.1875,-0.46875 0.1875,-1.34375 v -3.70312 h 1.17188 v 6.90625 z m 5.44373,-1.04688 0.17188,1.03125 q -0.5,0.10938 -0.89063,0.10938 -0.64062,0 -1,-0.20313 -0.34375,-0.20312 -0.48437,-0.53125 -0.14063,-0.32812 -0.14063,-1.39062 v -3.96875 h -0.85937 v -0.90625 h 0.85937 v -1.71875 l 1.17188,-0.70313 v 2.42188 h 1.17187 v 0.90625 h -1.17187 v 4.04687 q 0,0.5 0.0469,0.64063 0.0625,0.14062 0.20313,0.23437 0.14062,0.0781 0.40625,0.0781 0.20312,0 0.51562,-0.0469 z m 0.67175,-1.01562 1.15625,-0.1875 q 0.10938,0.70312 0.54688,1.07812 0.45312,0.35938 1.25,0.35938 0.8125,0 1.20312,-0.32813 0.39063,-0.32812 0.39063,-0.76562 0,-0.39063 -0.35938,-0.625 -0.23437,-0.15625 -1.1875,-0.39063 -1.29687,-0.32812 -1.79687,-0.5625 -0.48438,-0.25 -0.75,-0.65625 -0.25,-0.42187 -0.25,-0.9375 0,-0.45312 0.20312,-0.84375 0.21875,-0.40625 0.57813,-0.67187 0.28125,-0.1875 0.75,-0.32813 0.46875,-0.14062 1.01562,-0.14062 0.8125,0 1.42188,0.23437 0.60937,0.23438 0.90625,0.64063 0.29687,0.39062 0.40625,1.0625 l -1.14063,0.15625 q -0.0781,-0.53125 -0.45312,-0.82813 -0.375,-0.3125 -1.0625,-0.3125 -0.8125,0 -1.15625,0.26563 -0.34375,0.26562 -0.34375,0.625 0,0.23437 0.14062,0.42187 0.15625,0.1875 0.45313,0.3125 0.17187,0.0625 1.03125,0.29688 1.25,0.32812 1.73437,0.54687 0.5,0.20313 0.78125,0.60938 0.28125,0.40625 0.28125,1 0,0.59375 -0.34375,1.10937 -0.34375,0.51563 -1,0.79688 -0.64062,0.28125 -1.45312,0.28125 -1.34375,0 -2.04688,-0.5625 -0.70312,-0.5625 -0.90625,-1.65625 z"
       fill-rule="nonzero"
       id="path69" />
    <path
       fill="#d9ead3"
       d="m 598.60895,268.2546 h 70.45667 v 16.94485 h -70.45667 z"
       fill-rule="evenodd"
       id="path70" />
    <path
       stroke="#595959"
       stroke-width="1"
       stroke-linejoin="round"
       stroke-linecap="butt"
       d="m 598.60895,268.2546 h 70.45667 v 16.94485 h -70.45667 z"
       fill-rule="evenodd"
       id="path71" />
    <path
       fill="#000000"
       d="m 611.1406,276.8864 q 0,-2.375 1.28125,-3.71875 1.28125,-1.34375 3.29687,-1.34375 1.3125,0 2.375,0.625 1.0625,0.625 1.60938,1.76562 0.5625,1.125 0.5625,2.5625 0,1.4375 -0.59375,2.59375 -0.57813,1.14063 -1.65625,1.73438 -1.0625,0.57812 -2.3125,0.57812 -1.34375,0 -2.40625,-0.64062 -1.0625,-0.65625 -1.60938,-1.78125 -0.54687,-1.125 -0.54687,-2.375 z m 1.3125,0.0156 q 0,1.71875 0.92187,2.71875 0.92188,0.98438 2.32813,0.98438 1.42187,0 2.34375,-1 0.92187,-1 0.92187,-2.84375 0,-1.15625 -0.40625,-2.03125 -0.39062,-0.875 -1.15625,-1.34375 -0.75,-0.48438 -1.6875,-0.48438 -1.34375,0 -2.3125,0.92188 -0.95312,0.92187 -0.95312,3.07812 z m 13.82019,4.625 v -1.01562 q -0.8125,1.17187 -2.1875,1.17187 -0.60938,0 -1.14063,-0.23437 -0.53125,-0.23438 -0.79687,-0.57813 -0.25,-0.35937 -0.35938,-0.875 -0.0625,-0.34375 -0.0625,-1.09375 v -4.28125 h 1.17188 v 3.82813 q 0,0.92187 0.0625,1.23437 0.10937,0.46875 0.46875,0.73438 0.35937,0.25 0.89062,0.25 0.51563,0 0.98438,-0.26563 0.46875,-0.26562 0.65625,-0.73437 0.1875,-0.46875 0.1875,-1.34375 v -3.70313 h 1.17187 v 6.90625 z m 5.44373,-1.04687 0.17187,1.03125 q -0.5,0.10937 -0.89062,0.10937 -0.64063,0 -1,-0.20312 -0.34375,-0.20313 -0.48438,-0.53125 -0.14062,-0.32813 -0.14062,-1.39063 V 275.527 h -0.85938 v -0.90625 h 0.85938 V 272.902 l 1.17187,-0.70312 v 2.42187 h 1.17188 v 0.90625 h -1.17188 v 4.04688 q 0,0.5 0.0469,0.64062 0.0625,0.14063 0.20312,0.23438 0.14063,0.0781 0.40625,0.0781 0.20313,0 0.51563,-0.0469 z m 1.1405,3.70312 v -9.5625 h 1.07812 v 0.89063 q 0.375,-0.53125 0.84375,-0.78125 0.48438,-0.26563 1.15625,-0.26563 0.875,0 1.54688,0.45313 0.6875,0.45312 1.03125,1.28125 0.34375,0.82812 0.34375,1.82812 0,1.04688 -0.375,1.90625 -0.375,0.84375 -1.10938,1.29688 -0.71875,0.45312 -1.53125,0.45312 -0.57812,0 -1.04687,-0.25 -0.46875,-0.25 -0.76563,-0.625 v 3.375 z m 1.0625,-6.07812 q 0,1.34375 0.53125,1.98437 0.54687,0.625 1.3125,0.625 0.78125,0 1.34375,-0.65625 0.5625,-0.65625 0.5625,-2.04687 0,-1.3125 -0.54688,-1.96875 -0.54687,-0.67188 -1.29687,-0.67188 -0.75,0 -1.32813,0.70313 -0.57812,0.70312 -0.57812,2.03125 z m 10.88122,3.42187 v -1.01562 q -0.8125,1.17187 -2.1875,1.17187 -0.60937,0 -1.14062,-0.23437 -0.53125,-0.23438 -0.79688,-0.57813 -0.25,-0.35937 -0.35937,-0.875 -0.0625,-0.34375 -0.0625,-1.09375 v -4.28125 h 1.17187 v 3.82813 q 0,0.92187 0.0625,1.23437 0.10938,0.46875 0.46875,0.73438 0.35938,0.25 0.89063,0.25 0.51562,0 0.98437,-0.26563 0.46875,-0.26562 0.65625,-0.73437 0.1875,-0.46875 0.1875,-1.34375 v -3.70313 h 1.17188 v 6.90625 z m 5.44373,-1.04687 0.17188,1.03125 q -0.5,0.10937 -0.89063,0.10937 -0.64062,0 -1,-0.20312 -0.34375,-0.20313 -0.48437,-0.53125 -0.14063,-0.32813 -0.14063,-1.39063 V 275.527 h -0.85937 v -0.90625 h 0.85937 V 272.902 l 1.17188,-0.70312 v 2.42187 h 1.17187 v 0.90625 h -1.17187 v 4.04688 q 0,0.5 0.0469,0.64062 0.0625,0.14063 0.20313,0.23438 0.14062,0.0781 0.40625,0.0781 0.20312,0 0.51562,-0.0469 z m 0.67169,-1.01563 1.15625,-0.1875 q 0.10938,0.70313 0.54688,1.07813 0.45312,0.35937 1.25,0.35937 0.8125,0 1.20312,-0.32812 0.39063,-0.32813 0.39063,-0.76563 0,-0.39062 -0.35938,-0.625 -0.23437,-0.15625 -1.1875,-0.39062 -1.29687,-0.32813 -1.79687,-0.5625 -0.48438,-0.25 -0.75,-0.65625 -0.25,-0.42188 -0.25,-0.9375 0,-0.45313 0.20312,-0.84375 0.21875,-0.40625 0.57813,-0.67188 0.28125,-0.1875 0.75,-0.32812 0.46875,-0.14063 1.01562,-0.14063 0.8125,0 1.42188,0.23438 0.60937,0.23437 0.90625,0.64062 0.29687,0.39063 0.40625,1.0625 l -1.14063,0.15625 q -0.0781,-0.53125 -0.45312,-0.82812 -0.375,-0.3125 -1.0625,-0.3125 -0.8125,0 -1.15625,0.26562 -0.34375,0.26563 -0.34375,0.625 0,0.23438 0.14062,0.42188 0.15625,0.1875 0.45313,0.3125 0.17187,0.0625 1.03125,0.29687 1.25,0.32813 1.73437,0.54688 0.5,0.20312 0.78125,0.60937 0.28125,0.40625 0.28125,1 0,0.59375 -0.34375,1.10938 -0.34375,0.51562 -1,0.79687 -0.64062,0.28125 -1.45312,0.28125 -1.34375,0 -2.04688,-0.5625 -0.70312,-0.5625 -0.90625,-1.65625 z"
       fill-rule="nonzero"
       id="path72" />
    <path
       fill="#a4c2f4"
       d="m 691.64307,165.88715 h 130.2992 v 16.94487 h -130.2992 z"
       fill-rule="evenodd"
       id="path73" />
    <path
       stroke="#595959"
       stroke-width="1"
       stroke-linejoin="round"
       stroke-linecap="butt"
       d="m 691.64307,165.88715 h 130.2992 v 16.94487 h -130.2992 z"
       fill-rule="evenodd"
       id="path74" />
    <path
       fill="#000000"
       d="m 725.4447,179.15958 v -9.54688 h 1.25 v 9.54688 z m 3.32794,0 v -6.90625 h 1.0625 v 0.98437 q 0.75,-1.14062 2.1875,-1.14062 0.625,0 1.15625,0.21875 0.53125,0.21875 0.78125,0.59375 0.26563,0.35937 0.375,0.85937 0.0625,0.32813 0.0625,1.14063 v 4.25 h -1.17187 v -4.20313 q 0,-0.71875 -0.14063,-1.0625 -0.14062,-0.35937 -0.48437,-0.5625 -0.34375,-0.21875 -0.8125,-0.21875 -0.75,0 -1.29688,0.46875 -0.54687,0.46875 -0.54687,1.79688 v 3.78125 z m 7.69373,0 v -6 h -1.03125 v -0.90625 h 1.03125 v -0.73438 q 0,-0.70312 0.125,-1.04687 0.17187,-0.45313 0.59375,-0.73438 0.42187,-0.28125 1.20312,-0.28125 0.48438,0 1.09375,0.10938 l -0.1875,1.03125 q -0.35937,-0.0625 -0.6875,-0.0625 -0.53125,0 -0.75,0.23437 -0.21875,0.21875 -0.21875,0.84375 v 0.64063 h 1.34375 v 0.90625 h -1.34375 v 6 z m 3.40613,0 v -9.54688 h 1.17187 v 9.54688 z m 7.50799,0 v -1.01563 q -0.8125,1.17188 -2.1875,1.17188 -0.60937,0 -1.14062,-0.23438 -0.53125,-0.23437 -0.79688,-0.57812 -0.25,-0.35938 -0.35937,-0.875 -0.0625,-0.34375 -0.0625,-1.09375 v -4.28125 h 1.17187 v 3.82812 q 0,0.92188 0.0625,1.23438 0.10938,0.46875 0.46875,0.73437 0.35938,0.25 0.89063,0.25 0.51562,0 0.98437,-0.26562 0.46875,-0.26563 0.65625,-0.73438 0.1875,-0.46875 0.1875,-1.34375 v -3.70312 h 1.17188 v 6.90625 z m 7.6156,-2.21875 1.20313,0.14062 q -0.28125,1.0625 -1.0625,1.65625 -0.76563,0.57813 -1.96875,0.57813 -1.51563,0 -2.40625,-0.9375 -0.89063,-0.9375 -0.89063,-2.60938 0,-1.75 0.89063,-2.70312 0.90625,-0.96875 2.34375,-0.96875 1.39062,0 2.26562,0.9375 0.875,0.9375 0.875,2.65625 0,0.10937 0,0.3125 h -5.15625 q 0.0625,1.14062 0.64063,1.75 0.57812,0.59375 1.4375,0.59375 0.65625,0 1.10937,-0.32813 0.45313,-0.34375 0.71875,-1.07812 z m -3.84375,-1.90625 h 3.85938 q -0.0781,-0.85938 -0.4375,-1.29688 -0.5625,-0.6875 -1.45313,-0.6875 -0.8125,0 -1.35937,0.54688 -0.54688,0.53125 -0.60938,1.4375 z m 6.52185,4.125 v -6.90625 h 1.0625 v 0.98437 q 0.75,-1.14062 2.1875,-1.14062 0.625,0 1.15625,0.21875 0.53125,0.21875 0.78125,0.59375 0.26563,0.35937 0.375,0.85937 0.0625,0.32813 0.0625,1.14063 v 4.25 h -1.17187 v -4.20313 q 0,-0.71875 -0.14063,-1.0625 -0.14062,-0.35937 -0.48437,-0.5625 -0.34375,-0.21875 -0.8125,-0.21875 -0.75,0 -1.29688,0.46875 -0.54687,0.46875 -0.54687,1.79688 v 3.78125 z m 11.9281,-2.53125 1.15625,0.15625 q -0.1875,1.1875 -0.96875,1.85937 -0.78125,0.67188 -1.92187,0.67188 -1.40625,0 -2.28125,-0.92188 -0.85938,-0.9375 -0.85938,-2.65625 0,-1.125 0.375,-1.96875 0.375,-0.84375 1.125,-1.25 0.76563,-0.42187 1.65625,-0.42187 1.125,0 1.84375,0.57812 0.71875,0.5625 0.92188,1.60938 l -1.14063,0.17187 q -0.17187,-0.70312 -0.59375,-1.04687 -0.40625,-0.35938 -0.98437,-0.35938 -0.89063,0 -1.45313,0.64063 -0.54687,0.64062 -0.54687,2 0,1.40625 0.53125,2.03125 0.54687,0.625 1.40625,0.625 0.6875,0 1.14062,-0.42188 0.46875,-0.42187 0.59375,-1.29687 z m 6.88282,0.3125 1.20312,0.14062 q -0.28125,1.0625 -1.0625,1.65625 -0.76562,0.57813 -1.96875,0.57813 -1.51562,0 -2.40625,-0.9375 -0.89062,-0.9375 -0.89062,-2.60938 0,-1.75 0.89062,-2.70312 0.90625,-0.96875 2.34375,-0.96875 1.39063,0 2.26563,0.9375 0.875,0.9375 0.875,2.65625 0,0.10937 0,0.3125 h -5.15625 q 0.0625,1.14062 0.64062,1.75 0.57813,0.59375 1.4375,0.59375 0.65625,0 1.10938,-0.32813 0.45312,-0.34375 0.71875,-1.07812 z m -3.84375,-1.90625 h 3.85937 q -0.0781,-0.85938 -0.4375,-1.29688 -0.5625,-0.6875 -1.45312,-0.6875 -0.8125,0 -1.35938,0.54688 -0.54687,0.53125 -0.60937,1.4375 z m 6.50622,4.125 v -6.90625 h 1.0625 v 1.04687 q 0.40625,-0.73437 0.73438,-0.96875 0.34375,-0.23437 0.76562,-0.23437 0.59375,0 1.20313,0.375 l -0.40625,1.07812 q -0.4375,-0.25 -0.85938,-0.25 -0.39062,0 -0.70312,0.23438 -0.29688,0.23437 -0.42188,0.64062 -0.20312,0.625 -0.20312,1.35938 v 3.625 z m 3.98523,-2.0625 1.15625,-0.1875 q 0.10938,0.70312 0.54688,1.07812 0.45312,0.35938 1.25,0.35938 0.8125,0 1.20312,-0.32813 0.39063,-0.32812 0.39063,-0.76562 0,-0.39063 -0.35938,-0.625 -0.23437,-0.15625 -1.1875,-0.39063 -1.29687,-0.32812 -1.79687,-0.5625 -0.48438,-0.25 -0.75,-0.65625 -0.25,-0.42187 -0.25,-0.9375 0,-0.45312 0.20312,-0.84375 0.21875,-0.40625 0.57813,-0.67187 0.28125,-0.1875 0.75,-0.32813 0.46875,-0.14062 1.01562,-0.14062 0.8125,0 1.42188,0.23437 0.60937,0.23438 0.90625,0.64063 0.29687,0.39062 0.40625,1.0625 l -1.14063,0.15625 q -0.0781,-0.53125 -0.45312,-0.82813 -0.375,-0.3125 -1.0625,-0.3125 -0.8125,0 -1.15625,0.26563 -0.34375,0.26562 -0.34375,0.625 0,0.23437 0.14062,0.42187 0.15625,0.1875 0.45313,0.3125 0.17187,0.0625 1.03125,0.29688 1.25,0.32812 1.73437,0.54687 0.5,0.20313 0.78125,0.60938 0.28125,0.40625 0.28125,1 0,0.59375 -0.34375,1.10937 -0.34375,0.51563 -1,0.79688 -0.64062,0.28125 -1.45312,0.28125 -1.34375,0 -2.04688,-0.5625 -0.70312,-0.5625 -0.90625,-1.65625 z"
       fill-rule="nonzero"
       id="path75" />
    <path
       fill="#a4c2f4"
       d="m 691.1207,268.2546 h 130.2992 v 16.94485 H 691.1207 Z"
       fill-rule="evenodd"
       id="path76" />
    <path
       stroke="#595959"
       stroke-width="1"
       stroke-linejoin="round"
       stroke-linecap="butt"
       d="m 691.1207,268.2546 h 130.2992 v 16.94485 H 691.1207 Z"
       fill-rule="evenodd"
       id="path77" />
    <path
       fill="#000000"
       d="m 724.92236,281.52704 v -9.54688 h 1.25 v 9.54688 z m 3.328,0 v -6.90625 h 1.0625 v 0.98437 q 0.75,-1.14062 2.1875,-1.14062 0.625,0 1.15625,0.21875 0.53125,0.21875 0.78125,0.59375 0.26563,0.35937 0.375,0.85937 0.0625,0.32813 0.0625,1.14063 v 4.25 h -1.17187 v -4.20313 q 0,-0.71875 -0.14063,-1.0625 -0.14062,-0.35937 -0.48437,-0.5625 -0.34375,-0.21875 -0.8125,-0.21875 -0.75,0 -1.29688,0.46875 -0.54687,0.46875 -0.54687,1.79688 v 3.78125 z m 7.69373,0 v -6 h -1.03125 v -0.90625 h 1.03125 v -0.73438 q 0,-0.70312 0.125,-1.04687 0.17187,-0.45313 0.59375,-0.73438 0.42187,-0.28125 1.20312,-0.28125 0.48438,0 1.09375,0.10938 l -0.1875,1.03125 q -0.35937,-0.0625 -0.6875,-0.0625 -0.53125,0 -0.75,0.23437 -0.21875,0.21875 -0.21875,0.84375 v 0.64063 h 1.34375 v 0.90625 h -1.34375 v 6 z m 3.40613,0 v -9.54688 h 1.17187 v 9.54688 z m 7.50793,0 v -1.01563 q -0.8125,1.17188 -2.1875,1.17188 -0.60937,0 -1.14062,-0.23438 -0.53125,-0.23437 -0.79688,-0.57812 -0.25,-0.35938 -0.35937,-0.875 -0.0625,-0.34375 -0.0625,-1.09375 v -4.28125 h 1.17187 v 3.82812 q 0,0.92188 0.0625,1.23438 0.10938,0.46875 0.46875,0.73437 0.35938,0.25 0.89063,0.25 0.51562,0 0.98437,-0.26562 0.46875,-0.26563 0.65625,-0.73438 0.1875,-0.46875 0.1875,-1.34375 v -3.70312 h 1.17188 v 6.90625 z m 7.6156,-2.21875 1.20313,0.14062 q -0.28125,1.0625 -1.0625,1.65625 -0.76563,0.57813 -1.96875,0.57813 -1.51563,0 -2.40625,-0.9375 -0.89063,-0.9375 -0.89063,-2.60938 0,-1.75 0.89063,-2.70312 0.90625,-0.96875 2.34375,-0.96875 1.39062,0 2.26562,0.9375 0.875,0.9375 0.875,2.65625 0,0.10937 0,0.3125 h -5.15625 q 0.0625,1.14062 0.64063,1.75 0.57812,0.59375 1.4375,0.59375 0.65625,0 1.10937,-0.32813 0.45313,-0.34375 0.71875,-1.07812 z M 750.63,277.40204 h 3.85938 q -0.0781,-0.85938 -0.4375,-1.29688 -0.5625,-0.6875 -1.45313,-0.6875 -0.8125,0 -1.35937,0.54688 -0.54688,0.53125 -0.60938,1.4375 z m 6.52185,4.125 v -6.90625 h 1.0625 v 0.98437 q 0.75,-1.14062 2.1875,-1.14062 0.625,0 1.15625,0.21875 0.53125,0.21875 0.78125,0.59375 0.26563,0.35937 0.375,0.85937 0.0625,0.32813 0.0625,1.14063 v 4.25 h -1.17187 v -4.20313 q 0,-0.71875 -0.14063,-1.0625 -0.14062,-0.35937 -0.48437,-0.5625 -0.34375,-0.21875 -0.8125,-0.21875 -0.75,0 -1.29688,0.46875 -0.54687,0.46875 -0.54687,1.79688 v 3.78125 z m 11.9281,-2.53125 1.15625,0.15625 q -0.1875,1.1875 -0.96875,1.85937 -0.78125,0.67188 -1.92187,0.67188 -1.40625,0 -2.28125,-0.92188 -0.85938,-0.9375 -0.85938,-2.65625 0,-1.125 0.375,-1.96875 0.375,-0.84375 1.125,-1.25 0.76563,-0.42187 1.65625,-0.42187 1.125,0 1.84375,0.57812 0.71875,0.5625 0.92188,1.60938 l -1.14063,0.17187 q -0.17187,-0.70312 -0.59375,-1.04687 -0.40625,-0.35938 -0.98437,-0.35938 -0.89063,0 -1.45313,0.64063 -0.54687,0.64062 -0.54687,2 0,1.40625 0.53125,2.03125 0.54687,0.625 1.40625,0.625 0.6875,0 1.14062,-0.42188 0.46875,-0.42187 0.59375,-1.29687 z m 6.88282,0.3125 1.20312,0.14062 q -0.28125,1.0625 -1.0625,1.65625 -0.76562,0.57813 -1.96875,0.57813 -1.51562,0 -2.40625,-0.9375 -0.89062,-0.9375 -0.89062,-2.60938 0,-1.75 0.89062,-2.70312 0.90625,-0.96875 2.34375,-0.96875 1.39063,0 2.26563,0.9375 0.875,0.9375 0.875,2.65625 0,0.10937 0,0.3125 h -5.15625 q 0.0625,1.14062 0.64062,1.75 0.57813,0.59375 1.4375,0.59375 0.65625,0 1.10938,-0.32813 0.45312,-0.34375 0.71875,-1.07812 z m -3.84375,-1.90625 h 3.85937 q -0.0781,-0.85938 -0.4375,-1.29688 -0.5625,-0.6875 -1.45312,-0.6875 -0.8125,0 -1.35938,0.54688 -0.54687,0.53125 -0.60937,1.4375 z m 6.50622,4.125 v -6.90625 h 1.0625 v 1.04687 q 0.40625,-0.73437 0.73438,-0.96875 0.34375,-0.23437 0.76562,-0.23437 0.59375,0 1.20313,0.375 l -0.40625,1.07812 q -0.4375,-0.25 -0.85938,-0.25 -0.39062,0 -0.70312,0.23438 -0.29688,0.23437 -0.42188,0.64062 -0.20312,0.625 -0.20312,1.35938 v 3.625 z m 3.98523,-2.0625 1.15625,-0.1875 q 0.10938,0.70312 0.54688,1.07812 0.45312,0.35938 1.25,0.35938 0.8125,0 1.20312,-0.32813 0.39063,-0.32812 0.39063,-0.76562 0,-0.39063 -0.35938,-0.625 -0.23437,-0.15625 -1.1875,-0.39063 -1.29687,-0.32812 -1.79687,-0.5625 -0.48438,-0.25 -0.75,-0.65625 -0.25,-0.42187 -0.25,-0.9375 0,-0.45312 0.20312,-0.84375 0.21875,-0.40625 0.57813,-0.67187 0.28125,-0.1875 0.75,-0.32813 0.46875,-0.14062 1.01562,-0.14062 0.8125,0 1.42188,0.23437 0.60937,0.23438 0.90625,0.64063 0.29687,0.39062 0.40625,1.0625 l -1.14063,0.15625 q -0.0781,-0.53125 -0.45312,-0.82813 -0.375,-0.3125 -1.0625,-0.3125 -0.8125,0 -1.15625,0.26563 -0.34375,0.26562 -0.34375,0.625 0,0.23437 0.14062,0.42187 0.15625,0.1875 0.45313,0.3125 0.17187,0.0625 1.03125,0.29688 1.25,0.32812 1.73437,0.54687 0.5,0.20313 0.78125,0.60938 0.28125,0.40625 0.28125,1 0,0.59375 -0.34375,1.10937 -0.34375,0.51563 -1,0.79688 -0.64062,0.28125 -1.45312,0.28125 -1.34375,0 -2.04688,-0.5625 -0.70312,-0.5625 -0.90625,-1.65625 z"
       fill-rule="nonzero"
       id="path78" />
  </g>
</svg>
